<svg width="64" height="64" viewBox="0 0 64 64" fill="none" xmlns="http://www.w3.org/2000/svg">
<path d="M40.3925 33.5398C41.3573 32.74 41.3573 31.26 40.3925 30.4602L24.8572 17.5823C23.9561 16.8353 22.6279 16.9239 21.834 17.784V17.784C20.9747 18.7149 21.0763 20.1773 22.0561 20.9804L35.5 32L22.0561 43.0196C21.0763 43.8227 20.9747 45.2851 21.834 46.216V46.216C22.6279 47.0761 23.9561 47.1647 24.8572 46.4177L40.3925 33.5398Z" fill="white"/>
<path d="M29 29C27.3431 29 26 30.3431 26 32C26 33.6569 27.3431 35 29 35H36V29H29Z" fill="white"/>
</svg>
