<svg width="33" height="26" viewBox="0 0 33 26" fill="none" xmlns="http://www.w3.org/2000/svg">
<g id="night / detailedshield_c_02_scenic">
<g id="detailedshield_c_02_scenic">
<g id="detailedshield_c_base">
<g id="stretchable-items">
<path id="shape01" d="M10.5124 1.76354C10.5488 1.71399 10.5829 1.66921 10.6144 1.62908C11.4087 2.03699 12.2921 2.35 13.5 2.35C14.2274 2.35 15.0446 2.11236 15.6474 1.89548C15.9557 1.78454 16.222 1.67381 16.4114 1.59069C16.4431 1.57679 16.4727 1.56364 16.5 1.55137C16.5273 1.56364 16.5569 1.57679 16.5886 1.59069C16.778 1.67381 17.0443 1.78454 17.3526 1.89548C17.9554 2.11236 18.7726 2.35 19.5 2.35C20.7079 2.35 21.5913 2.03699 22.3856 1.62908C22.4171 1.66921 22.4512 1.71399 22.4876 1.76354C22.7029 2.05671 22.9978 2.51725 23.2954 3.16745C23.8896 4.46593 24.5 6.53225 24.5 9.55C24.5 12.519 23.5426 14.6911 22.0711 16.2754C20.6207 17.837 18.6411 18.8586 16.5 19.48C14.3589 18.8586 12.3793 17.837 10.9289 16.2754C9.45737 14.6911 8.5 12.519 8.5 9.55C8.5 6.53225 9.11038 4.46593 9.70465 3.16745C10.0022 2.51725 10.2971 2.05671 10.5124 1.76354Z" fill="#295EA3" stroke="#B0B5BF"/>
<path id="shape02" d="M22.9265 2.39807C23.314 3.05865 23.7702 4.06789 24.0816 5.5H8.91822C9.22957 4.06789 9.68576 3.05864 10.0733 2.39806C10.2823 2.04173 10.4722 1.78557 10.6099 1.61831C11.3937 2.00749 12.2928 2.35 13.4999 2.35C14.2221 2.35 15.0395 2.11222 15.6429 1.8956C15.9518 1.78473 16.2189 1.67408 16.409 1.59103C16.4416 1.57681 16.4719 1.56339 16.4999 1.55088C16.5279 1.56339 16.5582 1.57681 16.5908 1.59102C16.7809 1.67407 17.048 1.78473 17.3568 1.8956C17.9603 2.11222 18.7777 2.35 19.4999 2.35C20.707 2.35 21.606 2.00749 22.3899 1.61831C22.5276 1.78556 22.7174 2.04173 22.9265 2.39807Z" fill="#A83939" stroke="#B0B5BF"/>
</g>
</g>
<g id="non-stretchable-items">
<g id="roadtype_scenic">
<rect id="background" x="1.5" y="15.5" width="30" height="9" fill="#295EA3" stroke="#B0B5BF"/>
<path id="SCENIC" d="M5.97903 17.336C6.37903 17.336 6.7257 17.3947 7.01903 17.512C7.3177 17.624 7.59236 17.7973 7.84303 18.032L7.28303 18.68C7.0857 18.52 6.88836 18.4027 6.69103 18.328C6.4937 18.2533 6.28303 18.216 6.05903 18.216C5.8137 18.216 5.61636 18.2693 5.46703 18.376C5.32303 18.4773 5.25103 18.624 5.25103 18.816C5.25103 18.9493 5.28036 19.0587 5.33903 19.144C5.40303 19.2293 5.51236 19.3093 5.66703 19.384C5.8217 19.4587 6.0537 19.544 6.36303 19.64C6.91236 19.816 7.32303 20.0347 7.59503 20.296C7.86703 20.552 8.00303 20.92 8.00303 21.4C8.00303 21.7413 7.9177 22.0427 7.74703 22.304C7.57636 22.56 7.32836 22.7627 7.00303 22.912C6.6777 23.056 6.29636 23.128 5.85903 23.128C5.4217 23.128 5.03236 23.0587 4.69103 22.92C4.3497 22.7813 4.05636 22.592 3.81103 22.352L4.41103 21.688C4.62436 21.8693 4.8457 22.008 5.07503 22.104C5.30436 22.1947 5.55503 22.24 5.82703 22.24C6.11503 22.24 6.34436 22.1733 6.51503 22.04C6.69103 21.9067 6.77903 21.72 6.77903 21.48C6.77903 21.3307 6.74703 21.208 6.68303 21.112C6.62436 21.0107 6.52036 20.92 6.37103 20.84C6.2217 20.76 6.0057 20.6773 5.72303 20.592C5.12036 20.4053 4.68836 20.1813 4.42703 19.92C4.17103 19.6587 4.04303 19.3173 4.04303 18.896C4.04303 18.5867 4.1257 18.3147 4.29103 18.08C4.45636 17.84 4.6857 17.656 4.97903 17.528C5.27236 17.4 5.6057 17.336 5.97903 17.336ZM10.9985 17.336C11.3451 17.336 11.6465 17.3867 11.9025 17.488C12.1585 17.584 12.4091 17.7333 12.6545 17.936L12.0705 18.616C11.7505 18.3547 11.4145 18.224 11.0625 18.224C10.6678 18.224 10.3531 18.3867 10.1185 18.712C9.88914 19.032 9.77447 19.536 9.77447 20.224C9.77447 20.896 9.88914 21.3947 10.1185 21.72C10.3531 22.04 10.6705 22.2 11.0705 22.2C11.2785 22.2 11.4678 22.1627 11.6385 22.088C11.8091 22.008 11.9878 21.896 12.1745 21.752L12.7185 22.432C12.5211 22.6347 12.2758 22.8027 11.9825 22.936C11.6945 23.064 11.3745 23.128 11.0225 23.128C10.5265 23.128 10.0918 23.016 9.71847 22.792C9.34514 22.568 9.05447 22.24 8.84647 21.808C8.63847 21.3707 8.53447 20.8427 8.53447 20.224C8.53447 19.6213 8.64114 19.104 8.85447 18.672C9.0678 18.2347 9.36114 17.904 9.73447 17.68C10.1078 17.4507 10.5291 17.336 10.9985 17.336ZM16.5608 18.32H14.5608V19.76H16.3048V20.608H14.5608V22.136H16.7048V23H13.3848V17.464H16.6888L16.5608 18.32ZM21.7873 23H20.2753L18.5153 18.608C18.5633 18.9867 18.6007 19.344 18.6273 19.68C18.6593 20.0107 18.6753 20.4 18.6753 20.848V23H17.6113V17.464H19.0913L20.8833 21.864C20.7767 21.1493 20.7233 20.4933 20.7233 19.896V17.464H21.7873V23ZM24.1311 23H22.9551V17.464H24.1311V23ZM27.4907 17.336C27.8373 17.336 28.1387 17.3867 28.3947 17.488C28.6507 17.584 28.9013 17.7333 29.1467 17.936L28.5627 18.616C28.2427 18.3547 27.9067 18.224 27.5547 18.224C27.16 18.224 26.8453 18.3867 26.6107 18.712C26.3813 19.032 26.2667 19.536 26.2667 20.224C26.2667 20.896 26.3813 21.3947 26.6107 21.72C26.8453 22.04 27.1627 22.2 27.5627 22.2C27.7707 22.2 27.96 22.1627 28.1307 22.088C28.3013 22.008 28.48 21.896 28.6667 21.752L29.2107 22.432C29.0133 22.6347 28.768 22.8027 28.4747 22.936C28.1867 23.064 27.8667 23.128 27.5147 23.128C27.0187 23.128 26.584 23.016 26.2107 22.792C25.8373 22.568 25.5467 22.24 25.3387 21.808C25.1307 21.3707 25.0267 20.8427 25.0267 20.224C25.0267 19.6213 25.1333 19.104 25.3467 18.672C25.56 18.2347 25.8533 17.904 26.2267 17.68C26.6 17.4507 27.0213 17.336 27.4907 17.336Z" fill="#B0B5BF"/>
</g>
</g>
</g>
</g>
</svg>
