<svg width="21" height="26" viewBox="0 0 21 26" fill="none" xmlns="http://www.w3.org/2000/svg">
<g id="night / detailedshield_c_02_bypass">
<g id="detailedshield_c_02_bypass">
<g id="detailedshield_c_base">
<g id="stretchable-items">
<path id="shape01" d="M4.51237 1.76354C4.54876 1.71399 4.58289 1.66921 4.61439 1.62908C5.40874 2.03699 6.29205 2.35 7.5 2.35C8.2274 2.35 9.04457 2.11236 9.6474 1.89548C9.95573 1.78454 10.222 1.67381 10.4114 1.59069C10.4431 1.57679 10.4727 1.56364 10.5 1.55137C10.5273 1.56364 10.5569 1.57679 10.5886 1.59069C10.778 1.67381 11.0443 1.78454 11.3526 1.89548C11.9554 2.11236 12.7726 2.35 13.5 2.35C14.7079 2.35 15.5913 2.03699 16.3856 1.62908C16.4171 1.66921 16.4512 1.71399 16.4876 1.76354C16.7029 2.05671 16.9978 2.51725 17.2954 3.16745C17.8896 4.46593 18.5 6.53225 18.5 9.55C18.5 12.519 17.5426 14.6911 16.0711 16.2754C14.6207 17.837 12.6411 18.8586 10.5 19.48C8.35893 18.8586 6.37928 17.837 4.92886 16.2754C3.45737 14.6911 2.5 12.519 2.5 9.55C2.5 6.53225 3.11038 4.46593 3.70465 3.16745C4.00222 2.51725 4.29707 2.05671 4.51237 1.76354Z" fill="#295EA3" stroke="#B0B5BF"/>
<path id="shape02" d="M16.9265 2.39807C17.314 3.05865 17.7702 4.06789 18.0816 5.5H2.91822C3.22957 4.06789 3.68576 3.05864 4.07329 2.39806C4.28233 2.04173 4.47216 1.78557 4.60989 1.61831C5.39374 2.00749 6.29275 2.35 7.49988 2.35C8.2221 2.35 9.03946 2.11222 9.64293 1.8956C9.95177 1.78473 10.2189 1.67408 10.409 1.59103C10.4416 1.57681 10.4719 1.56339 10.4999 1.55088C10.5279 1.56339 10.5582 1.57681 10.5908 1.59102C10.7809 1.67407 11.048 1.78473 11.3568 1.8956C11.9603 2.11222 12.7777 2.35 13.4999 2.35C14.707 2.35 15.606 2.00749 16.3899 1.61831C16.5276 1.78556 16.7174 2.04173 16.9265 2.39807Z" fill="#A83939" stroke="#B0B5BF"/>
</g>
</g>
<g id="non-stretchable-items">
<g id="roadtype_bypass">
<rect id="background" x="1.5" y="15.5" width="18" height="9" fill="#295EA3" stroke="#B0B5BF"/>
<path id="BYP" d="M6.83788 20.072C7.21121 20.1413 7.51254 20.2773 7.74188 20.48C7.97654 20.6773 8.09388 20.9813 8.09388 21.392C8.09388 21.9733 7.88588 22.3867 7.46988 22.632C7.05388 22.8773 6.47521 23 5.73388 23H4.00588V17.464H5.51788C6.27521 17.464 6.85388 17.576 7.25388 17.8C7.65388 18.024 7.85388 18.384 7.85388 18.88C7.85388 19.2053 7.75521 19.4693 7.55788 19.672C7.36588 19.8693 7.12588 20.0027 6.83788 20.072ZM5.18188 18.312V19.712H5.75788C6.04588 19.712 6.26721 19.6533 6.42188 19.536C6.57654 19.4133 6.65388 19.2293 6.65388 18.984C6.65388 18.7387 6.57121 18.5653 6.40588 18.464C6.24054 18.3627 5.98188 18.312 5.62988 18.312H5.18188ZM5.74188 22.128C6.10988 22.128 6.38988 22.0747 6.58188 21.968C6.77388 21.856 6.86988 21.648 6.86988 21.344C6.86988 20.7893 6.52854 20.512 5.84588 20.512H5.18188V22.128H5.74188ZM11.045 20.912V23H9.869V20.92L8.093 17.464H9.381L10.485 19.976L11.581 17.464H12.821L11.045 20.912ZM15.0851 17.464C15.8051 17.464 16.3624 17.6133 16.7571 17.912C17.1571 18.2107 17.3571 18.656 17.3571 19.248C17.3571 19.8667 17.1597 20.3333 16.7651 20.648C16.3704 20.9573 15.8424 21.112 15.1811 21.112H14.5491V23H13.3731V17.464H15.0851ZM15.0851 20.248C15.4264 20.248 15.6877 20.1707 15.8691 20.016C16.0504 19.8613 16.1411 19.6053 16.1411 19.248C16.1411 18.624 15.7837 18.312 15.0691 18.312H14.5491V20.248H15.0851Z" fill="#B0B5BF"/>
</g>
</g>
</g>
</g>
</svg>
