<svg width="27" height="26" viewBox="0 0 27 26" fill="none" xmlns="http://www.w3.org/2000/svg">
<g id="night / detailedshield_c_01_loop">
<g id="detailedshield_c_01_loop">
<g id="detailedshield_c_base">
<g id="stretchable-items">
<path id="shape01" d="M7.51237 1.76354C7.54876 1.71399 7.58289 1.66921 7.61439 1.62908C8.40874 2.03699 9.29205 2.35 10.5 2.35C11.2274 2.35 12.0446 2.11236 12.6474 1.89548C12.9557 1.78454 13.222 1.67381 13.4114 1.59069C13.4431 1.57679 13.4727 1.56364 13.5 1.55137C13.5273 1.56364 13.5569 1.57679 13.5886 1.59069C13.778 1.67381 14.0443 1.78454 14.3526 1.89548C14.9554 2.11236 15.7726 2.35 16.5 2.35C17.7079 2.35 18.5913 2.03699 19.3856 1.62908C19.4171 1.66921 19.4512 1.71399 19.4876 1.76354C19.7029 2.05671 19.9978 2.51725 20.2954 3.16745C20.8896 4.46593 21.5 6.53225 21.5 9.55C21.5 12.519 20.5426 14.6911 19.0711 16.2754C17.6207 17.837 15.6411 18.8586 13.5 19.48C11.3589 18.8586 9.37928 17.837 7.92886 16.2754C6.45737 14.6911 5.5 12.519 5.5 9.55C5.5 6.53225 6.11038 4.46593 6.70465 3.16745C7.00222 2.51725 7.29707 2.05671 7.51237 1.76354Z" fill="#277567" stroke="#B0B5BF"/>
<path id="shape02" d="M19.9265 2.39807C20.314 3.05865 20.7702 4.06789 21.0816 5.5H5.91822C6.22957 4.06789 6.68576 3.05864 7.07329 2.39806C7.28233 2.04173 7.47216 1.78557 7.60989 1.61831C8.39374 2.00749 9.29275 2.35 10.4999 2.35C11.2221 2.35 12.0395 2.11222 12.6429 1.8956C12.9518 1.78473 13.2189 1.67408 13.409 1.59103C13.4416 1.57681 13.4719 1.56339 13.4999 1.55088C13.5279 1.56339 13.5582 1.57681 13.5908 1.59102C13.7809 1.67407 14.048 1.78473 14.3568 1.8956C14.9603 2.11222 15.7777 2.35 16.4999 2.35C17.707 2.35 18.606 2.00749 19.3899 1.61831C19.5276 1.78556 19.7174 2.04173 19.9265 2.39807Z" fill="#277567" stroke="#B0B5BF"/>
</g>
</g>
<g id="non-stretchable-items">
<g id="roadtype_loop">
<rect id="background" x="1.5" y="15.5" width="24" height="9" fill="#277567" stroke="#B0B5BF"/>
<path id="LOOP" d="M5.47094 22.056H7.66294L7.53494 23H4.29494V17.464H5.47094V22.056ZM10.2055 17.336C10.7122 17.336 11.1495 17.4507 11.5175 17.68C11.8855 17.904 12.1682 18.232 12.3655 18.664C12.5628 19.096 12.6615 19.6187 12.6615 20.232C12.6615 20.8347 12.5628 21.3547 12.3655 21.792C12.1682 22.224 11.8855 22.5547 11.5175 22.784C11.1495 23.0133 10.7122 23.128 10.2055 23.128C9.69883 23.128 9.25883 23.016 8.8855 22.792C8.5175 22.5627 8.23483 22.232 8.0375 21.8C7.84017 21.3627 7.7415 20.84 7.7415 20.232C7.7415 19.6347 7.84017 19.12 8.0375 18.688C8.24017 18.2507 8.5255 17.9173 8.8935 17.688C9.26683 17.4533 9.70417 17.336 10.2055 17.336ZM10.2055 18.216C9.80017 18.216 9.4935 18.376 9.2855 18.696C9.08283 19.016 8.9815 19.528 8.9815 20.232C8.9815 20.936 9.0855 21.448 9.2935 21.768C9.5015 22.088 9.8055 22.248 10.2055 22.248C10.6108 22.248 10.9148 22.0907 11.1175 21.776C11.3202 21.456 11.4215 20.9413 11.4215 20.232C11.4215 19.5227 11.3202 19.0107 11.1175 18.696C10.9148 18.376 10.6108 18.216 10.2055 18.216ZM15.7368 17.336C16.2434 17.336 16.6808 17.4507 17.0488 17.68C17.4168 17.904 17.6994 18.232 17.8968 18.664C18.0941 19.096 18.1928 19.6187 18.1928 20.232C18.1928 20.8347 18.0941 21.3547 17.8968 21.792C17.6994 22.224 17.4168 22.5547 17.0488 22.784C16.6808 23.0133 16.2434 23.128 15.7368 23.128C15.2301 23.128 14.7901 23.016 14.4168 22.792C14.0488 22.5627 13.7661 22.232 13.5688 21.8C13.3714 21.3627 13.2728 20.84 13.2728 20.232C13.2728 19.6347 13.3714 19.12 13.5688 18.688C13.7714 18.2507 14.0568 17.9173 14.4248 17.688C14.7981 17.4533 15.2354 17.336 15.7368 17.336ZM15.7368 18.216C15.3314 18.216 15.0248 18.376 14.8168 18.696C14.6141 19.016 14.5128 19.528 14.5128 20.232C14.5128 20.936 14.6168 21.448 14.8248 21.768C15.0328 22.088 15.3368 22.248 15.7368 22.248C16.1421 22.248 16.4461 22.0907 16.6488 21.776C16.8514 21.456 16.9528 20.9413 16.9528 20.232C16.9528 19.5227 16.8514 19.0107 16.6488 18.696C16.4461 18.376 16.1421 18.216 15.7368 18.216ZM20.796 17.464C21.516 17.464 22.0733 17.6133 22.468 17.912C22.868 18.2107 23.068 18.656 23.068 19.248C23.068 19.8667 22.8707 20.3333 22.476 20.648C22.0813 20.9573 21.5533 21.112 20.892 21.112H20.26V23H19.084V17.464H20.796ZM20.796 20.248C21.1373 20.248 21.3987 20.1707 21.58 20.016C21.7613 19.8613 21.852 19.6053 21.852 19.248C21.852 18.624 21.4947 18.312 20.78 18.312H20.26V20.248H20.796Z" fill="#B0B5BF"/>
</g>
</g>
</g>
</g>
</svg>
