<svg width="27" height="26" viewBox="0 0 27 26" fill="none" xmlns="http://www.w3.org/2000/svg">
<g id="night / detailedshield_c_02_spur">
<g id="detailedshield_c_02_spur">
<g id="detailedshield_c_base">
<g id="stretchable-items">
<path id="shape01" d="M7.51237 1.76354C7.54876 1.71399 7.58289 1.66921 7.61439 1.62908C8.40874 2.03699 9.29205 2.35 10.5 2.35C11.2274 2.35 12.0446 2.11236 12.6474 1.89548C12.9557 1.78454 13.222 1.67381 13.4114 1.59069C13.4431 1.57679 13.4727 1.56364 13.5 1.55137C13.5273 1.56364 13.5569 1.57679 13.5886 1.59069C13.778 1.67381 14.0443 1.78454 14.3526 1.89548C14.9554 2.11236 15.7726 2.35 16.5 2.35C17.7079 2.35 18.5913 2.03699 19.3856 1.62908C19.4171 1.66921 19.4512 1.71399 19.4876 1.76354C19.7029 2.05671 19.9978 2.51725 20.2954 3.16745C20.8896 4.46593 21.5 6.53225 21.5 9.55C21.5 12.519 20.5426 14.6911 19.0711 16.2754C17.6207 17.837 15.6411 18.8586 13.5 19.48C11.3589 18.8586 9.37928 17.837 7.92886 16.2754C6.45737 14.6911 5.5 12.519 5.5 9.55C5.5 6.53225 6.11038 4.46593 6.70465 3.16745C7.00222 2.51725 7.29707 2.05671 7.51237 1.76354Z" fill="#295EA3" stroke="#B0B5BF"/>
<path id="shape02" d="M19.9265 2.39807C20.314 3.05865 20.7702 4.06789 21.0816 5.5H5.91822C6.22957 4.06789 6.68576 3.05864 7.07329 2.39806C7.28233 2.04173 7.47216 1.78557 7.60989 1.61831C8.39374 2.00749 9.29275 2.35 10.4999 2.35C11.2221 2.35 12.0395 2.11222 12.6429 1.8956C12.9518 1.78473 13.2189 1.67408 13.409 1.59103C13.4416 1.57681 13.4719 1.56339 13.4999 1.55088C13.5279 1.56339 13.5582 1.57681 13.5908 1.59102C13.7809 1.67407 14.048 1.78473 14.3568 1.8956C14.9603 2.11222 15.7777 2.35 16.4999 2.35C17.707 2.35 18.606 2.00749 19.3899 1.61831C19.5276 1.78556 19.7174 2.04173 19.9265 2.39807Z" fill="#A83939" stroke="#B0B5BF"/>
</g>
</g>
<g id="non-stretchable-items">
<g id="roadtype_spur">
<rect id="background" x="1.5" y="15.5" width="24" height="9" fill="#295EA3" stroke="#B0B5BF"/>
<path id="SPUR" d="M6.04153 17.336C6.44153 17.336 6.7882 17.3947 7.08153 17.512C7.3802 17.624 7.65486 17.7973 7.90553 18.032L7.34553 18.68C7.1482 18.52 6.95086 18.4027 6.75353 18.328C6.5562 18.2533 6.34553 18.216 6.12153 18.216C5.8762 18.216 5.67886 18.2693 5.52953 18.376C5.38553 18.4773 5.31353 18.624 5.31353 18.816C5.31353 18.9493 5.34286 19.0587 5.40153 19.144C5.46553 19.2293 5.57486 19.3093 5.72953 19.384C5.8842 19.4587 6.1162 19.544 6.42553 19.64C6.97486 19.816 7.38553 20.0347 7.65753 20.296C7.92953 20.552 8.06553 20.92 8.06553 21.4C8.06553 21.7413 7.9802 22.0427 7.80953 22.304C7.63886 22.56 7.39086 22.7627 7.06553 22.912C6.7402 23.056 6.35886 23.128 5.92153 23.128C5.4842 23.128 5.09486 23.0587 4.75353 22.92C4.4122 22.7813 4.11886 22.592 3.87353 22.352L4.47353 21.688C4.68686 21.8693 4.9082 22.008 5.13753 22.104C5.36686 22.1947 5.61753 22.24 5.88953 22.24C6.17753 22.24 6.40686 22.1733 6.57753 22.04C6.75353 21.9067 6.84153 21.72 6.84153 21.48C6.84153 21.3307 6.80953 21.208 6.74553 21.112C6.68686 21.0107 6.58286 20.92 6.43353 20.84C6.2842 20.76 6.0682 20.6773 5.78553 20.592C5.18286 20.4053 4.75086 20.1813 4.48953 19.92C4.23353 19.6587 4.10553 19.3173 4.10553 18.896C4.10553 18.5867 4.1882 18.3147 4.35353 18.08C4.51886 17.84 4.7482 17.656 5.04153 17.528C5.33486 17.4 5.6682 17.336 6.04153 17.336ZM10.589 17.464C11.309 17.464 11.8663 17.6133 12.261 17.912C12.661 18.2107 12.861 18.656 12.861 19.248C12.861 19.8667 12.6636 20.3333 12.269 20.648C11.8743 20.9573 11.3463 21.112 10.685 21.112H10.053V23H8.87697V17.464H10.589ZM10.589 20.248C10.9303 20.248 11.1916 20.1707 11.373 20.016C11.5543 19.8613 11.645 19.6053 11.645 19.248C11.645 18.624 11.2876 18.312 10.573 18.312H10.053V20.248H10.589ZM17.802 21.176C17.802 21.5547 17.722 21.8907 17.562 22.184C17.402 22.4773 17.162 22.7093 16.842 22.88C16.5274 23.0453 16.1434 23.128 15.69 23.128C15.0074 23.128 14.4847 22.952 14.122 22.6C13.7647 22.2427 13.586 21.768 13.586 21.176V17.464H14.762V21.12C14.762 21.4933 14.8367 21.7733 14.986 21.96C15.1354 22.1413 15.37 22.232 15.69 22.232C16.01 22.232 16.2447 22.1413 16.394 21.96C16.5487 21.7733 16.626 21.4933 16.626 21.12V17.464H17.802V21.176ZM20.6764 20.832H20.0764V23H18.9004V17.464H20.6284C21.3697 17.464 21.9271 17.6027 22.3004 17.88C22.6737 18.152 22.8604 18.5653 22.8604 19.12C22.8604 19.4827 22.7697 19.7813 22.5884 20.016C22.4124 20.2507 22.1377 20.4507 21.7644 20.616L23.1964 23H21.8604L20.6764 20.832ZM20.0764 20H20.6924C21.0071 20 21.2444 19.9307 21.4044 19.792C21.5644 19.648 21.6444 19.424 21.6444 19.12C21.6444 18.8373 21.5591 18.632 21.3884 18.504C21.2231 18.3707 20.9617 18.304 20.6044 18.304H20.0764V20Z" fill="#B0B5BF"/>
</g>
</g>
</g>
</g>
</svg>
