<svg width="25" height="26" viewBox="0 0 25 26" fill="none" xmlns="http://www.w3.org/2000/svg">
<g id="night / detailedshield_c_02_link">
<g id="detailedshield_c_02_link">
<g id="detailedshield_c_base">
<g id="stretchable-items">
<path id="shape01" d="M6.51237 1.76354C6.54876 1.71399 6.58289 1.66921 6.61439 1.62908C7.40874 2.03699 8.29205 2.35 9.5 2.35C10.2274 2.35 11.0446 2.11236 11.6474 1.89548C11.9557 1.78454 12.222 1.67381 12.4114 1.59069C12.4431 1.57679 12.4727 1.56364 12.5 1.55137C12.5273 1.56364 12.5569 1.57679 12.5886 1.59069C12.778 1.67381 13.0443 1.78454 13.3526 1.89548C13.9554 2.11236 14.7726 2.35 15.5 2.35C16.7079 2.35 17.5913 2.03699 18.3856 1.62908C18.4171 1.66921 18.4512 1.71399 18.4876 1.76354C18.7029 2.05671 18.9978 2.51725 19.2954 3.16745C19.8896 4.46593 20.5 6.53225 20.5 9.55C20.5 12.519 19.5426 14.6911 18.0711 16.2754C16.6207 17.837 14.6411 18.8586 12.5 19.48C10.3589 18.8586 8.37928 17.837 6.92886 16.2754C5.45737 14.6911 4.5 12.519 4.5 9.55C4.5 6.53225 5.11038 4.46593 5.70465 3.16745C6.00222 2.51725 6.29707 2.05671 6.51237 1.76354Z" fill="#295EA3" stroke="#B0B5BF"/>
<path id="shape02" d="M18.9265 2.39807C19.314 3.05865 19.7702 4.06789 20.0816 5.5H4.91822C5.22957 4.06789 5.68576 3.05864 6.07329 2.39806C6.28233 2.04173 6.47216 1.78557 6.60989 1.61831C7.39374 2.00749 8.29275 2.35 9.49988 2.35C10.2221 2.35 11.0395 2.11222 11.6429 1.8956C11.9518 1.78473 12.2189 1.67408 12.409 1.59103C12.4416 1.57681 12.4719 1.56339 12.4999 1.55088C12.5279 1.56339 12.5582 1.57681 12.5908 1.59102C12.7809 1.67407 13.048 1.78473 13.3568 1.8956C13.9603 2.11222 14.7777 2.35 15.4999 2.35C16.707 2.35 17.606 2.00749 18.3899 1.61831C18.5276 1.78556 18.7174 2.04173 18.9265 2.39807Z" fill="#A83939" stroke="#B0B5BF"/>
</g>
</g>
<g id="non-stretchable-items">
<g id="roadtype_link">
<rect id="background" x="1.5" y="15.5" width="22" height="9" fill="#295EA3" stroke="#B0B5BF"/>
<path id="LINK" d="M5.88891 22.056H8.08091L7.95291 23H4.71291V17.464H5.88891V22.056ZM9.95922 23H8.78322V17.464H9.95922V23ZM15.3108 23H13.7988L12.0388 18.608C12.0868 18.9867 12.1241 19.344 12.1508 19.68C12.1828 20.0107 12.1988 20.4 12.1988 20.848V23H11.1348V17.464H12.6148L14.4068 21.864C14.3001 21.1493 14.2468 20.4933 14.2468 19.896V17.464H15.3108V23ZM17.6545 23H16.4785V17.464H17.6545V23ZM18.9505 19.96L20.9425 23H19.5665L17.7025 20.048L19.5425 17.464H20.7985L18.9505 19.96Z" fill="#B0B5BF"/>
</g>
</g>
</g>
</g>
</svg>
