<svg width="21" height="19" viewBox="0 0 21 19" fill="none" xmlns="http://www.w3.org/2000/svg">
<g id="night / usa_e_TN_01">
<g id="usa_e_base">
<g id="stretchable-items">
<g id="TN">
<rect id="shape01" x="1" y="1" width="19" height="17" fill="#4E545C"/>
<rect id="shape02" x="1.5" y="1.5" width="18" height="9" fill="#B0B5BF" stroke="#4E545C"/>
<path id="shape01_2" d="M1.7215 17.5L4.3465 10.5H19.2785L16.6535 17.5H1.7215Z" fill="#B0B5BF" stroke="#4E545C"/>
</g>
</g>
<g id="non-stretchable-items">
<g id="TN_2">
<g id="shape02_2">
<path d="M10.0744 12.8328H9.19943V15.7178H8.46443V12.8328H7.54443V12.2578H10.1544L10.0744 12.8328Z" fill="#4E545C"/>
<path d="M13.1403 15.7178H12.1953L11.0953 12.9728C11.1253 13.2095 11.1487 13.4328 11.1653 13.6428C11.1853 13.8495 11.1953 14.0928 11.1953 14.3728V15.7178H10.5303V12.2578H11.4553L12.5753 15.0078C12.5087 14.5611 12.4753 14.1511 12.4753 13.7778V12.2578H13.1403V15.7178Z" fill="#4E545C"/>
</g>
</g>
</g>
</g>
</g>
</svg>
