<svg width="19" height="20" viewBox="0 0 19 20" fill="none" xmlns="http://www.w3.org/2000/svg">
<g id="night / usa_MN_01">
<g id="usa_MN_base">
<g id="stretchable-items">
<rect id="shape01" x="1.5" y="1.5" width="16" height="17" fill="#295EA3" stroke="#CCA05A"/>
<rect id="shape02" x="1" y="1" width="17" height="6" fill="#CCA05A"/>
</g>
<g id="non-stretchable-items">
<g id="shape01_2">
<path d="M9.58982 5.99906H8.86982L8.79482 4.59406C8.77149 4.17406 8.75982 3.8174 8.75982 3.52406C8.75982 3.3674 8.76149 3.25406 8.76482 3.18406L8.17982 5.62906H7.48482L6.85982 3.17906C6.87316 3.3824 6.87982 3.61073 6.87982 3.86406C6.87982 4.13406 6.87316 4.3824 6.85982 4.60906L6.78482 5.99906H6.06982L6.33982 2.53906H7.27482L7.84482 4.92406L8.37982 2.53906H9.32482L9.58982 5.99906Z" fill="#4E545C"/>
<path d="M12.7657 5.99906H11.8207L10.7207 3.25406C10.7507 3.49073 10.7741 3.71406 10.7907 3.92406C10.8107 4.13073 10.8207 4.37406 10.8207 4.65406V5.99906H10.1557V2.53906H11.0807L12.2007 5.28906C12.1341 4.8424 12.1007 4.4324 12.1007 4.05906V2.53906H12.7657V5.99906Z" fill="#4E545C"/>
</g>
</g>
</g>
</g>
</svg>
