<svg width="19" height="20" viewBox="0 0 19 20" fill="none" xmlns="http://www.w3.org/2000/svg">
<g id="night / usa_MD_01">
<g id="usa_MD_base">
<g id="stretchable-items">
<rect id="shape01" x="1.5" y="1.5" width="16" height="17" fill="#B0B5BF" stroke="#4E545C"/>
<rect id="shape02" x="1.5" y="1.5" width="16" height="7" fill="#B0B5BF" stroke="#4E545C"/>
</g>
<g id="non-stretchable-items">
<g id="shape01_2">
<path d="M9.40498 6.99993H8.56978L8.48278 5.37013C8.45571 4.88293 8.44218 4.46919 8.44218 4.12893C8.44218 3.94719 8.44411 3.81573 8.44798 3.73453L7.76938 6.57073H6.96318L6.23818 3.72873C6.25364 3.96459 6.26138 4.22946 6.26138 4.52333C6.26138 4.83653 6.25364 5.12459 6.23818 5.38753L6.15118 6.99993H5.32178L5.63498 2.98633H6.71958L7.38078 5.75293L8.00138 2.98633H9.09758L9.40498 6.99993Z" fill="#4E545C"/>
<path d="M11.6112 2.98633C12.2376 2.98633 12.7384 3.12939 13.1134 3.41553C13.4924 3.69779 13.6818 4.21786 13.6818 4.97573C13.6818 5.71813 13.4962 6.24206 13.125 6.54753C12.7577 6.84913 12.286 6.99993 11.7098 6.99993H10.5614V2.98633H11.6112ZM11.414 3.61273V6.37353H11.762C12.0907 6.37353 12.344 6.273 12.5218 6.07193C12.7036 5.867 12.7944 5.5016 12.7944 4.97573C12.7944 4.61226 12.748 4.32999 12.6552 4.12893C12.5663 3.92786 12.4464 3.79253 12.2956 3.72293C12.1448 3.64946 11.9612 3.61273 11.7446 3.61273H11.414Z" fill="#4E545C"/>
</g>
</g>
</g>
</g>
</svg>
