<svg width="19" height="19" viewBox="0 0 19 19" fill="none" xmlns="http://www.w3.org/2000/svg">
<g id="night / usa_f_LA_01">
<g id="usa_f_base">
<g id="stretchable-items">
<g id="LA">
<path id="shape01" d="M1.53166 17.4838L1.99911 9.64495L2.00216 9.59383L1.99478 9.54316L1.5 6.14428V1.51758H12.0425V3.41257L11.5519 5.90317L11.4344 6.4998H12.0425H17.4486L17.1483 9.56645L17.1442 9.60809L17.1471 9.64983L17.4981 14.7045L17.1976 17.493L6.58015 17.3343L6.56899 17.3341L6.55783 17.3344L1.53166 17.4838Z" fill="#B0B5BF" stroke="#4E545C"/>
</g>
</g>
<g id="non-stretchable-items">
<g id="LA_2">
<g id="shape02">
<path d="M4.86342 5.95398H6.23342L6.15342 6.54398H4.12842V3.08398H4.86342V5.95398Z" fill="#4E545C"/>
<path d="M8.30736 5.76898H7.22236L7.02736 6.54398H6.26236L7.32736 3.08398H8.22236L9.28236 6.54398H8.50236L8.30736 5.76898ZM8.16736 5.22398L7.76236 3.62898L7.36236 5.22398H8.16736Z" fill="#4E545C"/>
</g>
</g>
</g>
</g>
</g>
</svg>
