<svg width="19" height="18" viewBox="0 0 19 18" fill="none" xmlns="http://www.w3.org/2000/svg">
<g id="night / usa_a_RI_01">
<g id="usa_a_base">
<g id="stretchable-items">
<rect id="shape01" x="1.5" y="1.5" width="16" height="15" fill="#B0B5BF" stroke="#4E545C"/>
</g>
<g id="non-stretchable-items">
<g id="RI">
<g id="shape01_2">
<path d="M8.77602 5.10109H8.40102V6.45609H7.66602V2.99609H8.74602C9.20935 2.99609 9.55768 3.08276 9.79102 3.25609C10.0243 3.42609 10.141 3.68443 10.141 4.03109C10.141 4.25776 10.0843 4.44443 9.97102 4.59109C9.86102 4.73776 9.68935 4.86276 9.45602 4.96609L10.351 6.45609H9.51602L8.77602 5.10109ZM8.40102 4.58109H8.78602C8.98268 4.58109 9.13102 4.53776 9.23102 4.45109C9.33102 4.36109 9.38102 4.22109 9.38102 4.03109C9.38102 3.85443 9.32768 3.72609 9.22102 3.64609C9.11768 3.56276 8.95435 3.52109 8.73102 3.52109H8.40102V4.58109Z" fill="#4E545C"/>
<path d="M11.4723 6.45609H10.7373V2.99609H11.4723V6.45609Z" fill="#4E545C"/>
</g>
</g>
</g>
</g>
</g>
</svg>
