<svg width="30" height="30" viewBox="0 0 30 30" fill="none" xmlns="http://www.w3.org/2000/svg">
<circle cx="15" cy="15" r="13" fill="#E1BDBD"/>
<circle cx="15" cy="15" r="10" fill="#EBEBEB"/>
<path d="M12 12.5C12 12.775 11.775 13 11.5 13H10.5C10.225 13 10 12.775 10 12.5V9.5C10 9.225 10.225 9 10.5 9H11.5C11.775 9 12 9.225 12 9.5V12.5Z" fill="#999999"/>
<path d="M20 12.5C20 12.775 19.775 13 19.5 13H18.5C18.225 13 18 12.775 18 12.5V9.5C18 9.225 18.225 9 18.5 9H19.5C19.775 9 20 9.225 20 9.5V12.5Z" fill="#999999"/>
<path d="M15 12.5C15.8284 12.5 16.5 11.8284 16.5 11C16.5 10.1716 15.8284 9.5 15 9.5C14.1716 9.5 13.5 10.1716 13.5 11C13.5 11.8284 14.1716 12.5 15 12.5Z" fill="#999999"/>
<path d="M18 10.5H12V11.5H18V10.5Z" fill="#999999"/>
</svg>
