<svg width="30" height="30" viewBox="0 0 30 30" fill="none" xmlns="http://www.w3.org/2000/svg">
<path d="M14.9996 1L29 15.0004L15.0004 29L1 14.9996L14.9996 1Z" fill="#333333"/>
<path d="M27.5 15L15 27.5L2.5 15L15 2.5L27.5 15Z" fill="#F8D40D"/>
<path d="M15.35 16.84C15.96 16.942 16.57 17.08 17 17.17V18.77C15.48 18.85 13.4 18.88 13 19C12.38 19.18 11 21 11 21L9 19C9 19 12.667 16.812 13.62 16.73C13.78 16.587 14.91 15.547 15.19 15.318C15.48 15.068 15.58 14.858 15.85 15.108C16.121 15.368 16.299 15.387 16.079 15.708C15.939 15.891 15.609 16.42 15.35 16.84ZM20.77 15.02C20.77 15.02 18.05 17.121 18 17.15V18.711C18.771 18.668 21.188 16.356 21.471 15.841C21.62 15.566 21.15 14.86 20.77 15.02ZM11 10C10.447 10 10 10.447 10 11C10 11.553 10.447 12 11 12H16V10H11ZM17.5 11C17.225 11 17 11.224 17 11.5C17 11.776 17.225 12 17.5 12C17.775 12 18 11.776 18 11.5C18 11.224 17.775 11 17.5 11ZM17.5 13C17.225 13 17 13.224 17 13.5C17 13.776 17.225 14 17.5 14C17.775 14 18 13.776 18 13.5C18 13.224 17.775 13 17.5 13ZM17.5 15C17.225 15 17 15.224 17 15.5C17 15.775 17.225 16 17.5 16C17.775 16 18 15.775 18 15.5C18 15.224 17.775 15 17.5 15Z" fill="#333333"/>
</svg>
