<svg width="30" height="30" viewBox="0 0 30 30" fill="none" xmlns="http://www.w3.org/2000/svg">
<rect x="5.5" y="5.5" width="19" height="19" rx="1.5" fill="#EBEBEB" stroke="#999999"/>
<path d="M9.71022 8.5968H8.77289V11.7846H7.98553V8.5968H7V7.96144H9.79592L9.71022 8.5968Z" fill="#999999"/>
<path d="M11.3877 10.2874H10.986V11.7846H10.1986V7.96144H11.3555C11.8519 7.96144 12.225 8.05721 12.475 8.24874C12.7249 8.43658 12.8499 8.72203 12.8499 9.10509C12.8499 9.35555 12.7892 9.56181 12.6678 9.72388C12.55 9.88594 12.3661 10.0241 12.1161 10.1382L13.0749 11.7846H12.1804L11.3877 10.2874ZM10.986 9.71283H11.3984C11.6091 9.71283 11.768 9.66494 11.8751 9.56918C11.9822 9.46973 12.0358 9.31504 12.0358 9.10509C12.0358 8.90988 11.9786 8.76807 11.8644 8.67968C11.7537 8.5876 11.5787 8.54156 11.3395 8.54156H10.986V9.71283Z" fill="#999999"/>
<path d="M16.216 10.525C16.216 10.7865 16.1624 11.0185 16.0553 11.2211C15.9481 11.4237 15.7875 11.5839 15.5732 11.7018C15.3625 11.816 15.1054 11.873 14.8019 11.873C14.3449 11.873 13.9949 11.7515 13.7521 11.5084C13.5129 11.2616 13.3933 10.9338 13.3933 10.525V7.96144H14.1806V10.4863C14.1806 10.7441 14.2306 10.9375 14.3306 11.0664C14.4306 11.1916 14.5877 11.2543 14.8019 11.2543C15.0162 11.2543 15.1733 11.1916 15.2733 11.0664C15.3768 10.9375 15.4286 10.7441 15.4286 10.4863V7.96144H16.216V10.525Z" fill="#999999"/>
<path d="M18.4136 7.87305C18.6457 7.87305 18.8474 7.90804 19.0188 7.97802C19.1902 8.04432 19.358 8.14745 19.5223 8.28741L19.1313 8.75702C18.9171 8.57655 18.6921 8.48631 18.4564 8.48631C18.1922 8.48631 17.9815 8.59865 17.8244 8.82332C17.6709 9.04432 17.5941 9.39238 17.5941 9.86752C17.5941 10.3316 17.6709 10.676 17.8244 10.9007C17.9815 11.1217 18.194 11.2322 18.4618 11.2322C18.601 11.2322 18.7278 11.2064 18.8421 11.1548C18.9563 11.0996 19.076 11.0222 19.2009 10.9228L19.5652 11.3924C19.433 11.5323 19.2688 11.6484 19.0724 11.7405C18.8796 11.8288 18.6653 11.873 18.4296 11.873C18.0976 11.873 17.8065 11.7957 17.5566 11.641C17.3066 11.4863 17.112 11.2598 16.9728 10.9614C16.8335 10.6594 16.7639 10.2948 16.7639 9.86752C16.7639 9.45132 16.8353 9.09404 16.9781 8.7957C17.121 8.49367 17.3173 8.26531 17.5673 8.11062C17.8173 7.95224 18.0993 7.87305 18.4136 7.87305Z" fill="#999999"/>
<path d="M20.7986 11.7846H20.0113V7.96144H20.7986V11.7846ZM21.6663 9.6852L23 11.7846H22.0787L20.8308 9.74597L22.0627 7.96144H22.9036L21.6663 9.6852Z" fill="#999999"/>
</svg>
