<svg width="30" height="30" viewBox="0 0 30 30" fill="none" xmlns="http://www.w3.org/2000/svg">
<circle cx="15" cy="15" r="13" fill="#FB1858"/>
<circle cx="15" cy="15" r="10" fill="white"/>
<path d="M15.0005 18L13 15H17L15.0005 18Z" fill="#333333"/>
<path d="M12 21.5C12 21.775 11.775 22 11.5 22H10.5C10.225 22 10 21.775 10 21.5V18.5C10 18.225 10.225 18 10.5 18H11.5C11.775 18 12 18.225 12 18.5V21.5Z" fill="#333333"/>
<path d="M20 21.5C20 21.775 19.775 22 19.5 22H18.5C18.225 22 18 21.775 18 21.5V18.5C18 18.225 18.225 18 18.5 18H19.5C19.775 18 20 18.225 20 18.5V21.5Z" fill="#333333"/>
<path d="M15 21.5C15.8284 21.5 16.5 20.8284 16.5 20C16.5 19.1716 15.8284 18.5 15 18.5C14.1716 18.5 13.5 19.1716 13.5 20C13.5 20.8284 14.1716 21.5 15 21.5Z" fill="#333333"/>
<path d="M18 19.5H12V20.5H18V19.5Z" fill="#333333"/>
</svg>
