<svg width="26" height="26" viewBox="0 0 26 26" fill="none" xmlns="http://www.w3.org/2000/svg">
<g id="day / detailedshield_c_02_turnpike">
<g id="detailedshield_c_02_turnpike">
<g id="detailedshield_c_base">
<g id="stretchable-items">
<path id="shape01" d="M7.22136 1.76354C7.25775 1.71399 7.29187 1.66921 7.32337 1.62908C8.11772 2.03699 9.00104 2.35 10.209 2.35C10.9364 2.35 11.7536 2.11236 12.3564 1.89548C12.6647 1.78454 12.9309 1.67381 13.1204 1.59069C13.1521 1.57679 13.1817 1.56364 13.209 1.55137C13.2363 1.56364 13.2659 1.57679 13.2976 1.59069C13.487 1.67381 13.7533 1.78454 14.0616 1.89548C14.6644 2.11236 15.4816 2.35 16.209 2.35C17.4169 2.35 18.3002 2.03699 19.0946 1.62908C19.1261 1.66921 19.1602 1.71399 19.1966 1.76354C19.4119 2.05671 19.7068 2.51725 20.0043 3.16745C20.5986 4.46593 21.209 6.53225 21.209 9.55C21.209 12.519 20.2516 14.6911 18.7801 16.2754C17.3297 17.837 15.3501 18.8586 13.209 19.48C11.0679 18.8586 9.08827 17.837 7.63784 16.2754C6.16635 14.6911 5.20898 12.519 5.20898 9.55C5.20898 6.53225 5.81936 4.46593 6.41363 3.16745C6.71121 2.51725 7.00605 2.05671 7.22136 1.76354Z" fill="#5397F0" stroke="white"/>
<path id="shape02" d="M19.636 2.39807C20.0235 3.05865 20.4797 4.06789 20.7911 5.5H5.6277C5.93905 4.06789 6.39523 3.05864 6.78276 2.39806C6.9918 2.04173 7.18163 1.78557 7.31936 1.61831C8.10321 2.00749 9.00223 2.35 10.2094 2.35C10.9316 2.35 11.7489 2.11222 12.3524 1.8956C12.6612 1.78473 12.9283 1.67408 13.1185 1.59103C13.1511 1.57681 13.1814 1.56339 13.2094 1.55088C13.2373 1.56339 13.2677 1.57681 13.3002 1.59102C13.4904 1.67407 13.7575 1.78473 14.0663 1.8956C14.6698 2.11222 15.4871 2.35 16.2094 2.35C17.4165 2.35 18.3155 2.00749 19.0993 1.61831C19.2371 1.78556 19.4269 2.04173 19.636 2.39807Z" fill="#F56C6C" stroke="white"/>
</g>
</g>
<g id="non-stretchable-items">
<g id="roadtype_turnpike">
<rect id="background" x="2.20898" y="15.5" width="22" height="9" fill="#5397F0" stroke="white"/>
<path id="TPKE" d="M8.20417 18.384H6.80417V23H5.62817V18.384H4.15617V17.464H8.33217L8.20417 18.384ZM10.6456 17.464C11.3656 17.464 11.9229 17.6133 12.3176 17.912C12.7176 18.2107 12.9176 18.656 12.9176 19.248C12.9176 19.8667 12.7203 20.3333 12.3256 20.648C11.9309 20.9573 11.4029 21.112 10.7416 21.112H10.1096V23H8.93361V17.464H10.6456ZM10.6456 20.248C10.9869 20.248 11.2483 20.1707 11.4296 20.016C11.6109 19.8613 11.7016 19.6053 11.7016 19.248C11.7016 18.624 11.3443 18.312 10.6296 18.312H10.1096V20.248H10.6456ZM14.8987 23H13.7227V17.464H14.8987V23ZM16.1947 19.96L18.1867 23H16.8107L14.9467 20.048L16.7867 17.464H18.0427L16.1947 19.96ZM21.8752 18.32H19.8752V19.76H21.6192V20.608H19.8752V22.136H22.0192V23H18.6992V17.464H22.0032L21.8752 18.32Z" fill="white"/>
</g>
</g>
</g>
</g>
</svg>
