<svg width="26" height="26" viewBox="0 0 26 26" fill="none" xmlns="http://www.w3.org/2000/svg">
<g id="day / detailedshield_c_02_toll">
<g id="detailedshield_c_02_toll">
<g id="detailedshield_c_base">
<g id="stretchable-items">
<path id="shape01" d="M7.26921 1.76354C7.3056 1.71399 7.33973 1.66921 7.37122 1.62908C8.16557 2.03699 9.04889 2.35 10.2568 2.35C10.9842 2.35 11.8014 2.11236 12.4042 1.89548C12.7126 1.78454 12.9788 1.67381 13.1683 1.59069C13.1999 1.57679 13.2295 1.56364 13.2568 1.55137C13.2842 1.56364 13.3137 1.57679 13.3454 1.59069C13.5349 1.67381 13.8011 1.78454 14.1094 1.89548C14.7123 2.11236 15.5294 2.35 16.2568 2.35C17.4648 2.35 18.3481 2.03699 19.1424 1.62908C19.1739 1.66921 19.2081 1.71399 19.2445 1.76354C19.4598 2.05671 19.7546 2.51725 20.0522 3.16745C20.6465 4.46593 21.2568 6.53225 21.2568 9.55C21.2568 12.519 20.2995 14.6911 18.828 16.2754C17.3776 17.837 15.3979 18.8586 13.2568 19.48C11.1158 18.8586 9.13612 17.837 7.68569 16.2754C6.2142 14.6911 5.25684 12.519 5.25684 9.55C5.25684 6.53225 5.86721 4.46593 6.46148 3.16745C6.75906 2.51725 7.05391 2.05671 7.26921 1.76354Z" fill="#5397F0" stroke="white"/>
<path id="shape02" d="M19.6838 2.39807C20.0714 3.05865 20.5276 4.06789 20.8389 5.5H5.67555C5.9869 4.06789 6.44308 3.05864 6.83061 2.39806C7.03966 2.04173 7.22948 1.78557 7.36721 1.61831C8.15106 2.00749 9.05008 2.35 10.2572 2.35C10.9794 2.35 11.7968 2.11222 12.4003 1.8956C12.7091 1.78473 12.9762 1.67408 13.1664 1.59103C13.1989 1.57681 13.2293 1.56339 13.2572 1.55088C13.2852 1.56339 13.3155 1.57681 13.3481 1.59102C13.5383 1.67407 13.8053 1.78473 14.1142 1.8956C14.7176 2.11222 15.535 2.35 16.2572 2.35C17.4643 2.35 18.3633 2.00749 19.1472 1.61831C19.2849 1.78556 19.4748 2.04173 19.6838 2.39807Z" fill="#F56C6C" stroke="white"/>
</g>
</g>
<g id="non-stretchable-items">
<g id="roadtype_toll">
<rect id="background" x="2.25684" y="15.5" width="22" height="9" fill="#FFF9BA" stroke="#888B8F"/>
<path id="TOLL" d="M8.5528 18.384H7.1528V23H5.9768V18.384H4.5048V17.464H8.6808L8.5528 18.384ZM11.185 17.336C11.6917 17.336 12.129 17.4507 12.497 17.68C12.865 17.904 13.1477 18.232 13.345 18.664C13.5423 19.096 13.641 19.6187 13.641 20.232C13.641 20.8347 13.5423 21.3547 13.345 21.792C13.1477 22.224 12.865 22.5547 12.497 22.784C12.129 23.0133 11.6917 23.128 11.185 23.128C10.6783 23.128 10.2383 23.016 9.86499 22.792C9.49699 22.5627 9.21433 22.232 9.01699 21.8C8.81966 21.3627 8.72099 20.84 8.72099 20.232C8.72099 19.6347 8.81966 19.12 9.01699 18.688C9.21966 18.2507 9.50499 17.9173 9.87299 17.688C10.2463 17.4533 10.6837 17.336 11.185 17.336ZM11.185 18.216C10.7797 18.216 10.473 18.376 10.265 18.696C10.0623 19.016 9.96099 19.528 9.96099 20.232C9.96099 20.936 10.065 21.448 10.273 21.768C10.481 22.088 10.785 22.248 11.185 22.248C11.5903 22.248 11.8943 22.0907 12.097 21.776C12.2997 21.456 12.401 20.9413 12.401 20.232C12.401 19.5227 12.2997 19.0107 12.097 18.696C11.8943 18.376 11.5903 18.216 11.185 18.216ZM15.7082 22.056H17.9002L17.7722 23H14.5322V17.464H15.7082V22.056ZM19.7786 22.056H21.9706L21.8426 23H18.6026V17.464H19.7786V22.056Z" fill="#888B8F"/>
</g>
</g>
</g>
</g>
</svg>
