<svg width="28" height="26" viewBox="0 0 28 26" fill="none" xmlns="http://www.w3.org/2000/svg">
<g id="day / detailedshield_c_01_loop">
<g id="detailedshield_c_01_loop">
<g id="detailedshield_c_base">
<g id="stretchable-items">
<path id="shape01" d="M7.84245 1.76354C7.87884 1.71399 7.91297 1.66921 7.94447 1.62908C8.73882 2.03699 9.62213 2.35 10.8301 2.35C11.5575 2.35 12.3747 2.11236 12.9775 1.89548C13.2858 1.78454 13.552 1.67381 13.7415 1.59069C13.7732 1.57679 13.8028 1.56364 13.8301 1.55137C13.8574 1.56364 13.887 1.57679 13.9187 1.59069C14.1081 1.67381 14.3743 1.78454 14.6827 1.89548C15.2855 2.11236 16.1027 2.35 16.8301 2.35C18.038 2.35 18.9213 2.03699 19.7157 1.62908C19.7472 1.66921 19.7813 1.71399 19.8177 1.76354C20.033 2.05671 20.3279 2.51725 20.6254 3.16745C21.2197 4.46593 21.8301 6.53225 21.8301 9.55C21.8301 12.519 20.8727 14.6911 19.4012 16.2754C17.9508 17.837 15.9712 18.8586 13.8301 19.48C11.689 18.8586 9.70936 17.837 8.25893 16.2754C6.78744 14.6911 5.83008 12.519 5.83008 9.55C5.83008 6.53225 6.44046 4.46593 7.03473 3.16745C7.3323 2.51725 7.62715 2.05671 7.84245 1.76354Z" fill="#53C2AE" stroke="white"/>
<path id="shape02" d="M20.2571 2.39807C20.6446 3.05865 21.1008 4.06789 21.4122 5.5H6.24879C6.56014 4.06789 7.01632 3.05864 7.40385 2.39806C7.6129 2.04173 7.80272 1.78557 7.94046 1.61831C8.72431 2.00749 9.62332 2.35 10.8304 2.35C11.5527 2.35 12.37 2.11222 12.9735 1.8956C13.2823 1.78473 13.5494 1.67408 13.7396 1.59103C13.7722 1.57681 13.8025 1.56339 13.8305 1.55088C13.8584 1.56339 13.8888 1.57681 13.9213 1.59102C14.1115 1.67407 14.3786 1.78473 14.6874 1.8956C15.2909 2.11222 16.1082 2.35 16.8304 2.35C18.0376 2.35 18.9366 2.00749 19.7204 1.61831C19.8582 1.78556 20.048 2.04173 20.2571 2.39807Z" fill="#53C2AE" stroke="white"/>
</g>
</g>
<g id="non-stretchable-items">
<g id="roadtype_loop">
<rect id="background" x="1.83008" y="15.5" width="24" height="9" fill="#53C2AE" stroke="white"/>
<path id="LOOP" d="M5.80102 22.056H7.99302L7.86502 23H4.62502V17.464H5.80102V22.056ZM10.5356 17.336C11.0422 17.336 11.4796 17.4507 11.8476 17.68C12.2156 17.904 12.4982 18.232 12.6956 18.664C12.8929 19.096 12.9916 19.6187 12.9916 20.232C12.9916 20.8347 12.8929 21.3547 12.6956 21.792C12.4982 22.224 12.2156 22.5547 11.8476 22.784C11.4796 23.0133 11.0422 23.128 10.5356 23.128C10.0289 23.128 9.58891 23.016 9.21558 22.792C8.84758 22.5627 8.56491 22.232 8.36758 21.8C8.17024 21.3627 8.07158 20.84 8.07158 20.232C8.07158 19.6347 8.17024 19.12 8.36758 18.688C8.57024 18.2507 8.85558 17.9173 9.22358 17.688C9.59691 17.4533 10.0342 17.336 10.5356 17.336ZM10.5356 18.216C10.1302 18.216 9.82358 18.376 9.61558 18.696C9.41291 19.016 9.31158 19.528 9.31158 20.232C9.31158 20.936 9.41558 21.448 9.62358 21.768C9.83158 22.088 10.1356 22.248 10.5356 22.248C10.9409 22.248 11.2449 22.0907 11.4476 21.776C11.6502 21.456 11.7516 20.9413 11.7516 20.232C11.7516 19.5227 11.6502 19.0107 11.4476 18.696C11.2449 18.376 10.9409 18.216 10.5356 18.216ZM16.0668 17.336C16.5735 17.336 17.0108 17.4507 17.3788 17.68C17.7468 17.904 18.0295 18.232 18.2268 18.664C18.4242 19.096 18.5228 19.6187 18.5228 20.232C18.5228 20.8347 18.4242 21.3547 18.2268 21.792C18.0295 22.224 17.7468 22.5547 17.3788 22.784C17.0108 23.0133 16.5735 23.128 16.0668 23.128C15.5602 23.128 15.1202 23.016 14.7468 22.792C14.3788 22.5627 14.0962 22.232 13.8988 21.8C13.7015 21.3627 13.6028 20.84 13.6028 20.232C13.6028 19.6347 13.7015 19.12 13.8988 18.688C14.1015 18.2507 14.3868 17.9173 14.7548 17.688C15.1282 17.4533 15.5655 17.336 16.0668 17.336ZM16.0668 18.216C15.6615 18.216 15.3548 18.376 15.1468 18.696C14.9442 19.016 14.8428 19.528 14.8428 20.232C14.8428 20.936 14.9468 21.448 15.1548 21.768C15.3628 22.088 15.6668 22.248 16.0668 22.248C16.4722 22.248 16.7762 22.0907 16.9788 21.776C17.1815 21.456 17.2828 20.9413 17.2828 20.232C17.2828 19.5227 17.1815 19.0107 16.9788 18.696C16.7762 18.376 16.4722 18.216 16.0668 18.216ZM21.1261 17.464C21.8461 17.464 22.4034 17.6133 22.7981 17.912C23.1981 18.2107 23.3981 18.656 23.3981 19.248C23.3981 19.8667 23.2007 20.3333 22.8061 20.648C22.4114 20.9573 21.8834 21.112 21.2221 21.112H20.5901V23H19.4141V17.464H21.1261ZM21.1261 20.248C21.4674 20.248 21.7287 20.1707 21.9101 20.016C22.0914 19.8613 22.1821 19.6053 22.1821 19.248C22.1821 18.624 21.8247 18.312 21.1101 18.312H20.5901V20.248H21.1261Z" fill="white"/>
</g>
</g>
</g>
</g>
</svg>
