<svg width="22" height="26" viewBox="0 0 22 26" fill="none" xmlns="http://www.w3.org/2000/svg">
<g id="day / detailedshield_c_02_extension">
<g id="detailedshield_c_02_extension">
<g id="detailedshield_c_base">
<g id="stretchable-items">
<path id="shape01" d="M4.89128 1.76354C4.92767 1.71399 4.9618 1.66921 4.99329 1.62908C5.78764 2.03699 6.67096 2.35 7.87891 2.35C8.60631 2.35 9.42348 2.11236 10.0263 1.89548C10.3346 1.78454 10.6009 1.67381 10.7903 1.59069C10.822 1.57679 10.8516 1.56364 10.8789 1.55137C10.9062 1.56364 10.9358 1.57679 10.9675 1.59069C11.1569 1.67381 11.4232 1.78454 11.7315 1.89548C12.3343 2.11236 13.1515 2.35 13.8789 2.35C15.0869 2.35 15.9702 2.03699 16.7645 1.62908C16.796 1.66921 16.8301 1.71399 16.8665 1.76354C17.0818 2.05671 17.3767 2.51725 17.6743 3.16745C18.2685 4.46593 18.8789 6.53225 18.8789 9.55C18.8789 12.519 17.9215 14.6911 16.4501 16.2754C14.9996 17.837 13.02 18.8586 10.8789 19.48C8.73783 18.8586 6.75819 17.837 5.30776 16.2754C3.83627 14.6911 2.87891 12.519 2.87891 9.55C2.87891 6.53225 3.48928 4.46593 4.08355 3.16745C4.38113 2.51725 4.67598 2.05671 4.89128 1.76354Z" fill="#5397F0" stroke="white"/>
<path id="shape02" d="M17.3059 2.39807C17.6934 3.05865 18.1496 4.06789 18.461 5.5H3.29762C3.60897 4.06789 4.06515 3.05864 4.45268 2.39806C4.66173 2.04173 4.85155 1.78557 4.98928 1.61831C5.77313 2.00749 6.67215 2.35 7.87927 2.35C8.60149 2.35 9.41886 2.11222 10.0223 1.8956C10.3312 1.78473 10.5983 1.67408 10.7884 1.59103C10.821 1.57681 10.8513 1.56339 10.8793 1.55088C10.9073 1.56339 10.9376 1.57681 10.9702 1.59102C11.1603 1.67407 11.4274 1.78473 11.7362 1.8956C12.3397 2.11222 13.1571 2.35 13.8793 2.35C15.0864 2.35 15.9854 2.00749 16.7693 1.61831C16.907 1.78556 17.0968 2.04173 17.3059 2.39807Z" fill="#F56C6C" stroke="white"/>
</g>
</g>
<g id="non-stretchable-items">
<g id="roadtype_extension">
<rect id="background" x="1.87891" y="15.5" width="18" height="9" fill="#5397F0" stroke="white"/>
<path id="EXT" d="M8.10375 18.32H6.10375V19.76H7.84775V20.608H6.10375V22.136H8.24775V23H4.92775V17.464H8.23175L8.10375 18.32ZM13.1543 23H11.8583L10.8263 20.808L9.81031 23H8.55431L10.1303 20.056L8.68231 17.464H9.97031L10.8423 19.312L11.7543 17.464H13.0023L11.5383 20.016L13.1543 23ZM17.2686 18.384H15.8686V23H14.6926V18.384H13.2206V17.464H17.3966L17.2686 18.384Z" fill="white"/>
</g>
</g>
</g>
</g>
</svg>
