<svg width="26" height="26" viewBox="0 0 26 26" fill="none" xmlns="http://www.w3.org/2000/svg">
<g id="day / detailedshield_c_02_link">
<g id="detailedshield_c_02_link">
<g id="detailedshield_c_base">
<g id="stretchable-items">
<path id="shape01" d="M7.36687 1.76354C7.40325 1.71399 7.43738 1.66921 7.46888 1.62908C8.26323 2.03699 9.14655 2.35 10.3545 2.35C11.0819 2.35 11.8991 2.11236 12.5019 1.89548C12.8102 1.78454 13.0765 1.67381 13.2659 1.59069C13.2976 1.57679 13.3272 1.56364 13.3545 1.55137C13.3818 1.56364 13.4114 1.57679 13.4431 1.59069C13.6325 1.67381 13.8988 1.78454 14.2071 1.89548C14.8099 2.11236 15.6271 2.35 16.3545 2.35C17.5624 2.35 18.4458 2.03699 19.2401 1.62908C19.2716 1.66921 19.3057 1.71399 19.3421 1.76354C19.5574 2.05671 19.8523 2.51725 20.1498 3.16745C20.7441 4.46593 21.3545 6.53225 21.3545 9.55C21.3545 12.519 20.3971 14.6911 18.9256 16.2754C17.4752 17.837 15.4956 18.8586 13.3545 19.48C11.2134 18.8586 9.23377 17.837 7.78335 16.2754C6.31186 14.6911 5.35449 12.519 5.35449 9.55C5.35449 6.53225 5.96487 4.46593 6.55914 3.16745C6.85671 2.51725 7.15156 2.05671 7.36687 1.76354Z" fill="#5397F0" stroke="white"/>
<path id="shape02" d="M19.7815 2.39807C20.169 3.05865 20.6252 4.06789 20.9366 5.5H5.7732C6.08455 4.06789 6.54074 3.05864 6.92827 2.39806C7.13731 2.04173 7.32714 1.78557 7.46487 1.61831C8.24872 2.00749 9.14773 2.35 10.3549 2.35C11.0771 2.35 11.8944 2.11222 12.4979 1.8956C12.8068 1.78473 13.0738 1.67408 13.264 1.59103C13.2966 1.57681 13.3269 1.56339 13.3549 1.55088C13.3829 1.56339 13.4132 1.57681 13.4457 1.59102C13.6359 1.67407 13.903 1.78473 14.2118 1.8956C14.8153 2.11222 15.6326 2.35 16.3549 2.35C17.562 2.35 18.461 2.00749 19.2449 1.61831C19.3826 1.78556 19.5724 2.04173 19.7815 2.39807Z" fill="#F56C6C" stroke="white"/>
</g>
</g>
<g id="non-stretchable-items">
<g id="roadtype_link">
<rect id="background" x="2.35449" y="15.5" width="22" height="9" fill="#5397F0" stroke="white"/>
<path id="LINK" d="M6.7434 22.056H8.9354L8.8074 23H5.5674V17.464H6.7434V22.056ZM10.8137 23H9.63771V17.464H10.8137V23ZM16.1653 23H14.6533L12.8933 18.608C12.9413 18.9867 12.9786 19.344 13.0053 19.68C13.0373 20.0107 13.0533 20.4 13.0533 20.848V23H11.9893V17.464H13.4693L15.2613 21.864C15.1546 21.1493 15.1013 20.4933 15.1013 19.896V17.464H16.1653V23ZM18.509 23H17.333V17.464H18.509V23ZM19.805 19.96L21.797 23H20.421L18.557 20.048L20.397 17.464H21.653L19.805 19.96Z" fill="white"/>
</g>
</g>
</g>
</g>
</svg>
