<svg width="27" height="26" viewBox="0 0 27 26" fill="none" xmlns="http://www.w3.org/2000/svg">
<g id="day / detailedshield_c_02_connector">
<g id="detailedshield_c_02_connector">
<g id="detailedshield_c_base">
<g id="stretchable-items">
<path id="shape01" d="M7.51237 1.76354C7.54876 1.71399 7.58289 1.66921 7.61439 1.62908C8.40874 2.03699 9.29205 2.35 10.5 2.35C11.2274 2.35 12.0446 2.11236 12.6474 1.89548C12.9557 1.78454 13.222 1.67381 13.4114 1.59069C13.4431 1.57679 13.4727 1.56364 13.5 1.55137C13.5273 1.56364 13.5569 1.57679 13.5886 1.59069C13.778 1.67381 14.0443 1.78454 14.3526 1.89548C14.9554 2.11236 15.7726 2.35 16.5 2.35C17.7079 2.35 18.5913 2.03699 19.3856 1.62908C19.4171 1.66921 19.4512 1.71399 19.4876 1.76354C19.7029 2.05671 19.9978 2.51725 20.2954 3.16745C20.8896 4.46593 21.5 6.53225 21.5 9.55C21.5 12.519 20.5426 14.6911 19.0711 16.2754C17.6207 17.837 15.6411 18.8586 13.5 19.48C11.3589 18.8586 9.37928 17.837 7.92886 16.2754C6.45737 14.6911 5.5 12.519 5.5 9.55C5.5 6.53225 6.11038 4.46593 6.70465 3.16745C7.00222 2.51725 7.29707 2.05671 7.51237 1.76354Z" fill="#5397F0" stroke="white"/>
<path id="shape02" d="M19.927 2.39807C20.3145 3.05865 20.7707 4.06789 21.0821 5.5H5.91871C6.23006 4.06789 6.68625 3.05864 7.07378 2.39806C7.28282 2.04173 7.47264 1.78557 7.61038 1.61831C8.39423 2.00749 9.29324 2.35 10.5004 2.35C11.2226 2.35 12.04 2.11222 12.6434 1.8956C12.9523 1.78473 13.2194 1.67408 13.4095 1.59103C13.4421 1.57681 13.4724 1.56339 13.5004 1.55088C13.5284 1.56339 13.5587 1.57681 13.5912 1.59102C13.7814 1.67407 14.0485 1.78473 14.3573 1.8956C14.9608 2.11222 15.7781 2.35 16.5004 2.35C17.7075 2.35 18.6065 2.00749 19.3904 1.61831C19.5281 1.78556 19.7179 2.04173 19.927 2.39807Z" fill="#F56C6C" stroke="white"/>
</g>
</g>
<g id="non-stretchable-items">
<g id="roadtype_connector">
<rect id="background" x="1.5" y="15.5" width="24" height="9" fill="#5397F0" stroke="white"/>
<path id="CONN" d="M5.95159 17.336C6.29826 17.336 6.59959 17.3867 6.85559 17.488C7.11159 17.584 7.36226 17.7333 7.60759 17.936L7.02359 18.616C6.70359 18.3547 6.36759 18.224 6.01559 18.224C5.62093 18.224 5.30626 18.3867 5.07159 18.712C4.84226 19.032 4.72759 19.536 4.72759 20.224C4.72759 20.896 4.84226 21.3947 5.07159 21.72C5.30626 22.04 5.62359 22.2 6.02359 22.2C6.23159 22.2 6.42093 22.1627 6.59159 22.088C6.76226 22.008 6.94093 21.896 7.12759 21.752L7.67159 22.432C7.47426 22.6347 7.22893 22.8027 6.93559 22.936C6.64759 23.064 6.32759 23.128 5.97559 23.128C5.47959 23.128 5.04493 23.016 4.67159 22.792C4.29826 22.568 4.00759 22.24 3.79959 21.808C3.59159 21.3707 3.48759 20.8427 3.48759 20.224C3.48759 19.6213 3.59426 19.104 3.80759 18.672C4.02093 18.2347 4.31426 17.904 4.68759 17.68C5.06093 17.4507 5.48226 17.336 5.95159 17.336ZM10.3657 17.336C10.8723 17.336 11.3097 17.4507 11.6777 17.68C12.0457 17.904 12.3283 18.232 12.5257 18.664C12.723 19.096 12.8217 19.6187 12.8217 20.232C12.8217 20.8347 12.723 21.3547 12.5257 21.792C12.3283 22.224 12.0457 22.5547 11.6777 22.784C11.3097 23.0133 10.8723 23.128 10.3657 23.128C9.85899 23.128 9.41899 23.016 9.04566 22.792C8.67766 22.5627 8.39499 22.232 8.19766 21.8C8.00032 21.3627 7.90166 20.84 7.90166 20.232C7.90166 19.6347 8.00032 19.12 8.19766 18.688C8.40032 18.2507 8.68566 17.9173 9.05366 17.688C9.42699 17.4533 9.86432 17.336 10.3657 17.336ZM10.3657 18.216C9.96032 18.216 9.65366 18.376 9.44566 18.696C9.24299 19.016 9.14166 19.528 9.14166 20.232C9.14166 20.936 9.24566 21.448 9.45366 21.768C9.66166 22.088 9.96566 22.248 10.3657 22.248C10.771 22.248 11.075 22.0907 11.2777 21.776C11.4803 21.456 11.5817 20.9413 11.5817 20.232C11.5817 19.5227 11.4803 19.0107 11.2777 18.696C11.075 18.376 10.771 18.216 10.3657 18.216ZM17.8889 23H16.3769L14.6169 18.608C14.6649 18.9867 14.7022 19.344 14.7289 19.68C14.7609 20.0107 14.7769 20.4 14.7769 20.848V23H13.7129V17.464H15.1929L16.9849 21.864C16.8782 21.1493 16.8249 20.4933 16.8249 19.896V17.464H17.8889V23ZM23.2327 23H21.7207L19.9607 18.608C20.0087 18.9867 20.046 19.344 20.0727 19.68C20.1047 20.0107 20.1207 20.4 20.1207 20.848V23H19.0567V17.464H20.5367L22.3287 21.864C22.222 21.1493 22.1687 20.4933 22.1687 19.896V17.464H23.2327V23Z" fill="white"/>
</g>
</g>
</g>
</g>
</svg>
