<svg width="34" height="26" viewBox="0 0 34 26" fill="none" xmlns="http://www.w3.org/2000/svg">
<g id="day / detailedshield_c_02_scenic">
<g id="detailedshield_c_02_scenic">
<g id="detailedshield_c_base">
<g id="stretchable-items">
<path id="shape01" d="M11.318 1.76354C11.3544 1.71399 11.3886 1.66921 11.4201 1.62908C12.2144 2.03699 13.0977 2.35 14.3057 2.35C15.0331 2.35 15.8502 2.11236 16.4531 1.89548C16.7614 1.78454 17.0276 1.67381 17.2171 1.59069C17.2488 1.57679 17.2783 1.56364 17.3057 1.55137C17.333 1.56364 17.3626 1.57679 17.3942 1.59069C17.5837 1.67381 17.8499 1.78454 18.1583 1.89548C18.7611 2.11236 19.5783 2.35 20.3057 2.35C21.5136 2.35 22.3969 2.03699 23.1913 1.62908C23.2228 1.66921 23.2569 1.71399 23.2933 1.76354C23.5086 2.05671 23.8034 2.51725 24.101 3.16745C24.6953 4.46593 25.3057 6.53225 25.3057 9.55C25.3057 12.519 24.3483 14.6911 22.8768 16.2754C21.4264 17.837 19.4467 18.8586 17.3057 19.48C15.1646 18.8586 13.1849 17.837 11.7345 16.2754C10.263 14.6911 9.30566 12.519 9.30566 9.55C9.30566 6.53225 9.91604 4.46593 10.5103 3.16745C10.8079 2.51725 11.1027 2.05671 11.318 1.76354Z" fill="#5397F0" stroke="white"/>
<path id="shape02" d="M23.7327 2.39807C24.1202 3.05865 24.5764 4.06789 24.8877 5.5H9.72438C10.0357 4.06789 10.4919 3.05864 10.8794 2.39806C11.0885 2.04173 11.2783 1.78557 11.416 1.61831C12.1999 2.00749 13.0989 2.35 14.306 2.35C15.0282 2.35 15.8456 2.11222 16.4491 1.8956C16.7579 1.78473 17.025 1.67408 17.2152 1.59103C17.2477 1.57681 17.2781 1.56339 17.3061 1.55088C17.334 1.56339 17.3644 1.57681 17.3969 1.59102C17.5871 1.67407 17.8542 1.78473 18.163 1.8956C18.7665 2.11222 19.5838 2.35 20.306 2.35C21.5132 2.35 22.4122 2.00749 23.196 1.61831C23.3338 1.78556 23.5236 2.04173 23.7327 2.39807Z" fill="#F56C6C" stroke="white"/>
</g>
</g>
<g id="non-stretchable-items">
<g id="roadtype_scenic">
<rect id="background" x="2.30566" y="15.5" width="30" height="9" fill="#5397F0" stroke="white"/>
<path id="SCENIC" d="M6.7847 17.336C7.1847 17.336 7.53136 17.3947 7.8247 17.512C8.12336 17.624 8.39803 17.7973 8.6487 18.032L8.0887 18.68C7.89136 18.52 7.69403 18.4027 7.4967 18.328C7.29936 18.2533 7.0887 18.216 6.8647 18.216C6.61936 18.216 6.42203 18.2693 6.2727 18.376C6.1287 18.4773 6.0567 18.624 6.0567 18.816C6.0567 18.9493 6.08603 19.0587 6.1447 19.144C6.2087 19.2293 6.31803 19.3093 6.4727 19.384C6.62736 19.4587 6.85936 19.544 7.1687 19.64C7.71803 19.816 8.1287 20.0347 8.4007 20.296C8.6727 20.552 8.8087 20.92 8.8087 21.4C8.8087 21.7413 8.72336 22.0427 8.5527 22.304C8.38203 22.56 8.13403 22.7627 7.8087 22.912C7.48336 23.056 7.10203 23.128 6.6647 23.128C6.22736 23.128 5.83803 23.0587 5.4967 22.92C5.15536 22.7813 4.86203 22.592 4.6167 22.352L5.2167 21.688C5.43003 21.8693 5.65136 22.008 5.8807 22.104C6.11003 22.1947 6.3607 22.24 6.6327 22.24C6.9207 22.24 7.15003 22.1733 7.3207 22.04C7.4967 21.9067 7.5847 21.72 7.5847 21.48C7.5847 21.3307 7.5527 21.208 7.4887 21.112C7.43003 21.0107 7.32603 20.92 7.1767 20.84C7.02736 20.76 6.81136 20.6773 6.5287 20.592C5.92603 20.4053 5.49403 20.1813 5.2327 19.92C4.9767 19.6587 4.8487 19.3173 4.8487 18.896C4.8487 18.5867 4.93136 18.3147 5.0967 18.08C5.26203 17.84 5.49136 17.656 5.7847 17.528C6.07803 17.4 6.41136 17.336 6.7847 17.336ZM11.8041 17.336C12.1508 17.336 12.4521 17.3867 12.7081 17.488C12.9641 17.584 13.2148 17.7333 13.4601 17.936L12.8761 18.616C12.5561 18.3547 12.2201 18.224 11.8681 18.224C11.4735 18.224 11.1588 18.3867 10.9241 18.712C10.6948 19.032 10.5801 19.536 10.5801 20.224C10.5801 20.896 10.6948 21.3947 10.9241 21.72C11.1588 22.04 11.4761 22.2 11.8761 22.2C12.0841 22.2 12.2735 22.1627 12.4441 22.088C12.6148 22.008 12.7935 21.896 12.9801 21.752L13.5241 22.432C13.3268 22.6347 13.0815 22.8027 12.7881 22.936C12.5001 23.064 12.1801 23.128 11.8281 23.128C11.3321 23.128 10.8975 23.016 10.5241 22.792C10.1508 22.568 9.86013 22.24 9.65213 21.808C9.44413 21.3707 9.34013 20.8427 9.34013 20.224C9.34013 19.6213 9.4468 19.104 9.66013 18.672C9.87347 18.2347 10.1668 17.904 10.5401 17.68C10.9135 17.4507 11.3348 17.336 11.8041 17.336ZM17.3664 18.32H15.3664V19.76H17.1104V20.608H15.3664V22.136H17.5104V23H14.1904V17.464H17.4944L17.3664 18.32ZM22.593 23H21.081L19.321 18.608C19.369 18.9867 19.4063 19.344 19.433 19.68C19.465 20.0107 19.481 20.4 19.481 20.848V23H18.417V17.464H19.897L21.689 21.864C21.5823 21.1493 21.529 20.4933 21.529 19.896V17.464H22.593V23ZM24.9368 23H23.7608V17.464H24.9368V23ZM28.2963 17.336C28.643 17.336 28.9443 17.3867 29.2003 17.488C29.4563 17.584 29.707 17.7333 29.9523 17.936L29.3683 18.616C29.0483 18.3547 28.7123 18.224 28.3603 18.224C27.9657 18.224 27.651 18.3867 27.4163 18.712C27.187 19.032 27.0723 19.536 27.0723 20.224C27.0723 20.896 27.187 21.3947 27.4163 21.72C27.651 22.04 27.9683 22.2 28.3683 22.2C28.5763 22.2 28.7657 22.1627 28.9363 22.088C29.107 22.008 29.2857 21.896 29.4723 21.752L30.0163 22.432C29.819 22.6347 29.5737 22.8027 29.2803 22.936C28.9923 23.064 28.6723 23.128 28.3203 23.128C27.8243 23.128 27.3897 23.016 27.0163 22.792C26.643 22.568 26.3523 22.24 26.1443 21.808C25.9363 21.3707 25.8323 20.8427 25.8323 20.224C25.8323 19.6213 25.939 19.104 26.1523 18.672C26.3657 18.2347 26.659 17.904 27.0323 17.68C27.4057 17.4507 27.827 17.336 28.2963 17.336Z" fill="white"/>
</g>
</g>
</g>
</g>
</svg>
