<svg width="32" height="26" viewBox="0 0 32 26" fill="none" xmlns="http://www.w3.org/2000/svg">
<g id="day / detailedshield_c_02_truck">
<g id="detailedshield_c_02_truck">
<g id="detailedshield_c_base">
<g id="stretchable-items">
<path id="shape01" d="M9.7448 1.76354C9.78118 1.71399 9.81531 1.66921 9.84681 1.62908C10.6412 2.03699 11.5245 2.35 12.7324 2.35C13.4598 2.35 14.277 2.11236 14.8798 1.89548C15.1882 1.78454 15.4544 1.67381 15.6438 1.59069C15.6755 1.57679 15.7051 1.56364 15.7324 1.55137C15.7597 1.56364 15.7893 1.57679 15.821 1.59069C16.0105 1.67381 16.2767 1.78454 16.585 1.89548C17.1878 2.11236 18.005 2.35 18.7324 2.35C19.9404 2.35 20.8237 2.03699 21.618 1.62908C21.6495 1.66921 21.6837 1.71399 21.72 1.76354C21.9354 2.05671 22.2302 2.51725 22.5278 3.16745C23.122 4.46593 23.7324 6.53225 23.7324 9.55C23.7324 12.519 22.7751 14.6911 21.3036 16.2754C19.8531 17.837 17.8735 18.8586 15.7324 19.48C13.5914 18.8586 11.6117 17.837 10.1613 16.2754C8.68979 14.6911 7.73242 12.519 7.73242 9.55C7.73242 6.53225 8.3428 4.46593 8.93707 3.16745C9.23464 2.51725 9.52949 2.05671 9.7448 1.76354Z" fill="#5397F0" stroke="white"/>
<path id="shape02" d="M22.1594 2.39807C22.547 3.05865 23.0031 4.06789 23.3145 5.5H8.15113C8.46248 4.06789 8.91867 3.05864 9.3062 2.39806C9.51524 2.04173 9.70507 1.78557 9.8428 1.61831C10.6266 2.00749 11.5257 2.35 12.7328 2.35C13.455 2.35 14.2724 2.11222 14.8758 1.8956C15.1847 1.78473 15.4518 1.67408 15.642 1.59103C15.6745 1.57681 15.7048 1.56339 15.7328 1.55088C15.7608 1.56339 15.7911 1.57681 15.8237 1.59102C16.0138 1.67407 16.2809 1.78473 16.5898 1.8956C17.1932 2.11222 18.0106 2.35 18.7328 2.35C19.9399 2.35 20.8389 2.00749 21.6228 1.61831C21.7605 1.78556 21.9504 2.04173 22.1594 2.39807Z" fill="#F56C6C" stroke="white"/>
</g>
</g>
<g id="non-stretchable-items">
<g id="roadtype_truck">
<rect id="background" x="1.73242" y="15.5" width="28" height="9" fill="#5397F0" stroke="white"/>
<path id="TRUCK" d="M7.9073 18.384H6.5073V23H5.3313V18.384H3.8593V17.464H8.0353L7.9073 18.384ZM10.4127 20.832H9.81273V23H8.63673V17.464H10.3647C11.1061 17.464 11.6634 17.6027 12.0367 17.88C12.4101 18.152 12.5967 18.5653 12.5967 19.12C12.5967 19.4827 12.5061 19.7813 12.3247 20.016C12.1487 20.2507 11.8741 20.4507 11.5007 20.616L12.9327 23H11.5967L10.4127 20.832ZM9.81273 20H10.4287C10.7434 20 10.9807 19.9307 11.1407 19.792C11.3007 19.648 11.3807 19.424 11.3807 19.12C11.3807 18.8373 11.2954 18.632 11.1247 18.504C10.9594 18.3707 10.6981 18.304 10.3407 18.304H9.81273V20ZM17.6243 21.176C17.6243 21.5547 17.5443 21.8907 17.3843 22.184C17.2243 22.4773 16.9843 22.7093 16.6643 22.88C16.3496 23.0453 15.9656 23.128 15.5123 23.128C14.8296 23.128 14.307 22.952 13.9443 22.6C13.587 22.2427 13.4083 21.768 13.4083 21.176V17.464H14.5843V21.12C14.5843 21.4933 14.659 21.7733 14.8083 21.96C14.9576 22.1413 15.1923 22.232 15.5123 22.232C15.8323 22.232 16.067 22.1413 16.2163 21.96C16.371 21.7733 16.4483 21.4933 16.4483 21.12V17.464H17.6243V21.176ZM20.9067 17.336C21.2533 17.336 21.5547 17.3867 21.8107 17.488C22.0667 17.584 22.3173 17.7333 22.5627 17.936L21.9787 18.616C21.6587 18.3547 21.3227 18.224 20.9707 18.224C20.576 18.224 20.2613 18.3867 20.0267 18.712C19.7973 19.032 19.6827 19.536 19.6827 20.224C19.6827 20.896 19.7973 21.3947 20.0267 21.72C20.2613 22.04 20.5787 22.2 20.9787 22.2C21.1867 22.2 21.376 22.1627 21.5467 22.088C21.7173 22.008 21.896 21.896 22.0827 21.752L22.6267 22.432C22.4293 22.6347 22.184 22.8027 21.8907 22.936C21.6027 23.064 21.2827 23.128 20.9307 23.128C20.4347 23.128 20 23.016 19.6267 22.792C19.2533 22.568 18.9627 22.24 18.7547 21.808C18.5467 21.3707 18.4427 20.8427 18.4427 20.224C18.4427 19.6213 18.5493 19.104 18.7627 18.672C18.976 18.2347 19.2693 17.904 19.6427 17.68C20.016 17.4507 20.4373 17.336 20.9067 17.336ZM24.469 23H23.293V17.464H24.469V23ZM25.765 19.96L27.757 23H26.381L24.517 20.048L26.357 17.464H27.613L25.765 19.96Z" fill="white"/>
</g>
</g>
</g>
</g>
</svg>
