<svg width="19" height="16" viewBox="0 0 19 16" fill="none" xmlns="http://www.w3.org/2000/svg">
<g id="day / netherlands_01">
<g id="netherlands_base">
<g id="stretchable-items">
<path id="shape01" d="M1.91028 12.3205C1.74195 12.2202 1.60623 12.1343 1.50586 12.0686L1.50586 3.93136C1.60623 3.86575 1.74195 3.77983 1.91028 3.67954C2.31492 3.43847 2.90662 3.11519 3.64747 2.79151C5.13184 2.14298 7.19853 1.5 9.55085 1.5C11.9032 1.5 13.9699 2.14298 15.4542 2.79151C16.1951 3.11519 16.7868 3.43847 17.1914 3.67954C17.3597 3.77983 17.4955 3.86575 17.5958 3.93136V12.0686C17.4955 12.1343 17.3597 12.2202 17.1914 12.3205C16.7868 12.5615 16.1951 12.8848 15.4542 13.2085C13.9699 13.857 11.9032 14.5 9.55085 14.5C7.19853 14.5 5.13184 13.857 3.64746 13.2085C2.90662 12.8848 2.31492 12.5615 1.91028 12.3205Z" fill="white" stroke="#888B8F"/>
</g>
</g>
</g>
</svg>
