<svg width="20" height="20" viewBox="0 0 20 20" fill="none" xmlns="http://www.w3.org/2000/svg">
<g id="day / usa_VT_01">
<g id="usa_VT_base">
<g id="stretchable-items">
<path id="shape02" d="M2.43193 7.66966C2.45198 7.60775 2.4707 7.55109 2.48783 7.5H17.5122C17.5293 7.55109 17.548 7.60775 17.5681 7.66966C17.6715 7.98915 17.81 8.44713 17.9485 8.99711C18.2266 10.1014 18.5 11.5571 18.5 13C18.5 14.4429 18.2266 15.8986 17.9485 17.0029C17.81 17.5529 17.6715 18.0109 17.5681 18.3303C17.548 18.3922 17.5293 18.4489 17.5122 18.5H2.48783C2.4707 18.4489 2.45198 18.3922 2.43193 18.3303C2.32848 18.0109 2.19004 17.5529 2.05153 17.0029C1.77341 15.8986 1.5 14.4429 1.5 13C1.5 11.5571 1.77341 10.1014 2.05153 8.99711C2.19004 8.44713 2.32848 7.98915 2.43193 7.66966Z" fill="white" stroke="#53C2AE"/>
<path id="shape01" d="M1.5 1.5H18.5V7.5H1.5V1.5Z" fill="white" stroke="#53C2AE"/>
</g>
<g id="non-stretchable-items">
<g id="shape01_2">
<path d="M9.12617 6.27836H8.23117L7.20117 2.81836H7.98617L8.69117 5.66836L9.37117 2.81836H10.1212L9.12617 6.27836Z" fill="#53C2AE"/>
<path d="M12.6631 3.39336H11.7881V6.27836H11.0531V3.39336H10.1331V2.81836H12.7431L12.6631 3.39336Z" fill="#53C2AE"/>
</g>
</g>
</g>
</g>
</svg>
