<svg width="21" height="19" viewBox="0 0 21 19" fill="none" xmlns="http://www.w3.org/2000/svg">
<g id="day / usa_e_TN_01">
<g id="usa_e_base">
<g id="stretchable-items">
<g id="TN">
<rect id="shape01" x="1" y="1" width="19" height="17" fill="#888B8F"/>
<rect id="shape02" x="1.5" y="1.5" width="18" height="9" fill="white" stroke="#888B8F"/>
<path id="shape01_2" d="M1.7215 17.5L4.3465 10.5H19.2785L16.6535 17.5H1.7215Z" fill="white" stroke="#888B8F"/>
</g>
</g>
<g id="non-stretchable-items">
<g id="TN_2">
<g id="shape02_2">
<path d="M10.0749 12.8328H9.19992V15.7178H8.46492V12.8328H7.54492V12.2578H10.1549L10.0749 12.8328Z" fill="#888B8F"/>
<path d="M13.1408 15.7178H12.1958L11.0958 12.9728C11.1258 13.2095 11.1492 13.4328 11.1658 13.6428C11.1858 13.8495 11.1958 14.0928 11.1958 14.3728V15.7178H10.5308V12.2578H11.4558L12.5758 15.0078C12.5092 14.5611 12.4758 14.1511 12.4758 13.7778V12.2578H13.1408V15.7178Z" fill="#888B8F"/>
</g>
</g>
</g>
</g>
</g>
</svg>
