<svg width="19" height="18" viewBox="0 0 19 18" fill="none" xmlns="http://www.w3.org/2000/svg">
<g id="day / usa_a_AK_01">
<g id="usa_a_base">
<g id="stretchable-items">
<rect id="shape01" x="1.5" y="1.5" width="16" height="15" fill="white" stroke="#888B8F"/>
</g>
<g id="non-stretchable-items">
<g id="AK">
<path id="shape01_2" d="M13.4375 4.03534L12.8968 2.42578L12.3561 4.03534H10.6064L12.022 5.0301L11.4813 6.63965L12.8968 5.64489L14.3124 6.63965L13.7717 5.0301L15.1872 4.03534H13.4375Z" fill="#888B8F"/>
<g id="shape02">
<path d="M5.99227 5.67914H4.90727L4.71227 6.45414H3.94727L5.01227 2.99414H5.90727L6.96727 6.45414H6.18727L5.99227 5.67914ZM5.85227 5.13414L5.44727 3.53914L5.04727 5.13414H5.85227Z" fill="#888B8F"/>
<path d="M8.02195 6.45414H7.28695V2.99414H8.02195V6.45414ZM8.83195 4.55414L10.077 6.45414H9.21695L8.05195 4.60914L9.20195 2.99414H9.98695L8.83195 4.55414Z" fill="#888B8F"/>
</g>
</g>
</g>
</g>
</g>
</svg>
