<svg width="19" height="18" viewBox="0 0 19 18" fill="none" xmlns="http://www.w3.org/2000/svg">
<g id="day / usa_c_AL_01">
<g id="usa_c_base">
<g id="stretchable-items">
<g id="AL">
<path id="shape01" d="M5.08601 16.5L5.33996 15.6419L5.38195 15.5L5.33996 15.3581L4.89605 13.8581L4.79007 13.5H4.4166H3.89956H3.47717L3.40659 13.9165L3.06624 15.9248L1.59663 15.762L1.50048 10.4954L2.45 1.5H16.0812L17.4904 9.41118L16.5974 13.5H8H7.5V14V15.6842C7.5 15.7032 7.49105 15.7648 7.39219 15.8708C7.29428 15.9757 7.14238 16.0856 6.95204 16.1872C6.76498 16.2871 6.56141 16.368 6.37884 16.4231C6.18716 16.481 6.05372 16.5 6 16.5H5.08601Z" fill="white" stroke="#888B8F"/>
</g>
</g>
</g>
</g>
</svg>
