<svg width="22" height="20" viewBox="0 0 22 20" fill="none" xmlns="http://www.w3.org/2000/svg">
<g id="day / usa_FL_01">
<g id="usa_FL_base">
<g id="stretchable-items">
<rect id="shape01" x="1.5" y="1.5" width="19" height="17" fill="white" stroke="#888B8F"/>
<path id="shape02" fill-rule="evenodd" clip-rule="evenodd" d="M3.0918 3.40039H7.64037L8.14037 4.00041H14.1393L14.5393 3.40039H16.8991L18.6241 7.49747L17.5999 10.0582V12.4227L18.639 14.293L17.9172 15.7366L15.7065 16.6209L13.9 15.9833L14.0997 15.4175L15.6933 15.9799L17.4825 15.2642L17.9608 14.3078L16.9999 12.5781V9.94262L17.9756 7.50331L16.5007 4.00039H14.8604L14.4604 4.60041H7.85934L7.35934 4.00039H3.90792L4.22044 5.00041H5.06281L7.03819 5.86722L9.88028 5.38451L10.8678 6.05184L10.5319 6.54898L9.74363 6.01631L6.96158 6.48883L4.93696 5.60041H3.77933L3.0918 3.40039Z" fill="#A3A5A8"/>
</g>
</g>
</g>
</svg>
