<svg width="19" height="17" viewBox="0 0 19 17" fill="none" xmlns="http://www.w3.org/2000/svg">
<g id="day / usa_c_SC_01">
<g id="usa_c_base">
<g id="stretchable-items">
<g id="SC">
<rect id="shape01" x="1.5" y="1.5" width="16" height="14" fill="white" stroke="#5397F0"/>
<rect id="shape02" x="1" y="1" width="17" height="3" fill="#5397F0"/>
</g>
</g>
<g id="non-stretchable-items">
<g id="SC_2">
<path id="shape01_2" d="M6.78246 1L5.49707 2.11788L7.49175 4.30736L9.52217 6.75615L13.7301 3.21039L11.3588 1.37103H10.2065L9.87406 1H6.78246Z" fill="white"/>
<path id="shape02_2" d="M7.34774 1.46484L6.60938 2.16505L8.48737 4.27676L9.5042 5.84107V3.9834C9.40283 3.9834 9.14438 3.93947 8.97239 3.77654C8.66921 3.48932 8.63294 3.25604 8.6782 2.98448C8.72526 2.70213 9.02897 2.28295 9.68524 2.28295C10.3415 2.28295 10.6781 2.86522 10.6018 3.31262C10.5226 3.77654 10.07 3.9834 9.91154 3.9834V5.58546L12.5904 3.21078L11.0635 1.97364H9.8592L9.34748 1.46484H7.34774Z" fill="#5397F0"/>
</g>
</g>
</g>
</g>
</svg>
