<svg width="30" height="30" viewBox="0 0 30 30" fill="none" xmlns="http://www.w3.org/2000/svg">
<path d="M14.9996 1L29 15.0004L15.0004 29L1 14.9996L14.9996 1Z" fill="#434656"/>
<path d="M27.5 15L15 27.5L2.5 15L15 2.5L27.5 15Z" fill="#A77B0C"/>
<path d="M19 9L16 11L15 8L14 11L11 9L12.364 12.745L10 12L11.657 13.947L8 15.063L11.677 16.188L10 18L12.361 17.4L11 21L14 19L15 22L16 19L19 21L17.637 17.379L20 18L18.348 16.182L22 15.063L18.324 13.94L20 12L17.643 12.726L19 9ZM11 15L14 14L15 11L16 14L19 15L16 16L15 19L14 16L11 15Z" fill="#333333"/>
</svg>
