<svg width="30" height="30" viewBox="0 0 30 30" fill="none" xmlns="http://www.w3.org/2000/svg">
<circle cx="15" cy="15" r="13" fill="#6E3434"/>
<circle cx="15" cy="15" r="10" fill="#5F626D"/>
<path d="M20.678 18.9998L24.4129 22.7346L22.7356 24.4119L17.3235 18.9998H20.678Z" fill="#6E3434"/>
<path d="M11.678 9.99976L7.09033 5.41211L5.41309 7.08935L8.32349 9.99976H11.678Z" fill="#6E3434"/>
<path d="M8.51536 16.9398C8.51536 17.1216 8.57234 17.2125 8.68632 17.2125H10.6646C10.86 17.2125 10.974 17.0913 11.0065 16.8489L11.0554 16.3943L11.6171 16.5458L11.5194 17.1822C11.4543 17.5862 11.2589 17.7883 10.9333 17.7883H8.53978C8.19785 17.7883 8.02689 17.566 8.02689 17.1216V14.1216H10.4936V15.9398C10.4936 16.263 10.3634 16.4246 10.1029 16.4246H9.51671L9.46787 15.8489H9.90749C9.97262 15.8489 10.0052 15.8085 10.0052 15.7277V14.6974H8.51536V16.9398ZM9.44344 12.9398H11.3973V13.5155H7.39188V15.0307C7.39188 16.3034 7.0581 17.2529 6.39053 17.8792L6.02418 17.3337C6.61034 16.8893 6.90342 16.0913 6.90342 14.9398V13.5155C6.70803 13.7378 6.47194 13.9297 6.19514 14.0913L5.99975 13.4852C6.79758 13.0206 7.35118 12.2125 7.66054 11.061L8.19785 11.1519C8.26298 11.2125 8.23856 11.2832 8.12458 11.364L8.02689 11.5761H9.80979L9.90749 11.4549L10.2738 11.7883C10.339 11.8893 10.3064 11.9499 10.1761 11.9701L9.44344 12.9398ZM7.8315 12.1519C7.70125 12.4145 7.54656 12.6772 7.36746 12.9398H8.88171L9.41902 12.1519H7.8315Z" fill="#372F2F"/>
<path d="M13.9129 12.8792C14.6619 12.5357 15.2074 11.9196 15.5493 11.0307L16.1354 11.0913C16.1843 11.1317 16.168 11.1822 16.0866 11.2428C16.5099 11.8691 17.1287 12.3438 17.9428 12.6671L17.7718 13.3337C16.86 12.9499 16.2087 12.3943 15.8179 11.6671C15.5086 12.4347 14.9468 13.0509 14.1327 13.5155L13.9129 12.8792ZM13.6687 15.5761C13.6361 14.9499 13.4814 14.364 13.2046 13.8186L13.5466 11.9095H12.9604V17.9701H12.4719V11.3337H13.7175L13.8152 11.2428L14.1571 11.6671L14.0595 11.7883L13.6443 13.758C13.9862 14.3842 14.1653 14.9903 14.1816 15.5761C14.1979 16.3842 14.0106 16.7883 13.6198 16.7883H13.2046L13.1558 16.1216H13.4489C13.6117 16.1216 13.685 15.9398 13.6687 15.5761ZM15.9889 16.3337C15.6958 17.2226 14.9957 17.7782 13.8885 18.0004L13.742 17.3337C14.8003 17.1317 15.4353 16.6368 15.647 15.8489H14.4747V14.1216H15.7202V13.6065H14.9387V13.0307H16.9903V13.6065H16.1354V14.1216H17.4055V15.8489H16.2331C16.5262 16.4549 17.1042 16.9095 17.9672 17.2125L17.7962 17.8792C16.9984 17.6368 16.396 17.1216 15.9889 16.3337ZM16.1354 15.364H16.9903V14.6065H16.1354V15.364ZM14.8898 15.364H15.7202V14.6065H14.8898V15.364Z" fill="#372F2F"/>
<path d="M19.2372 12.5458H19.628V11.0004H20.092C20.2223 11.0206 20.2304 11.0812 20.1164 11.1822V12.5458H20.8003V13.1216H20.1164V14.7883L20.7514 14.4852L20.8736 15.0004L20.1164 15.3943V18.0004H19.628V15.6065L18.8709 15.9095C18.8546 16.0509 18.8139 16.0812 18.7487 16.0004L18.5778 15.3337L19.628 14.9701V13.1216H19.2128C19.1802 13.5054 19.1151 13.8792 19.0174 14.2428L18.5533 14.0307C18.7487 13.3236 18.8464 12.5458 18.8464 11.6974L19.3349 11.7883C19.3837 11.8489 19.3675 11.9095 19.286 11.9701L19.2372 12.5458ZM23.9998 12.4852L23.9753 16.2125C23.9753 17.2832 23.7311 17.8186 23.2426 17.8186H22.5344L22.4367 17.1519H23.0472C23.3403 17.1923 23.4869 16.8792 23.4869 16.2125L23.5113 13.061H23.2426C23.2589 14.8388 22.5506 16.4751 21.1178 17.9701L20.8003 17.4246C22.0052 16.3135 22.6646 14.859 22.7786 13.061H22.3878C22.3227 14.2933 21.8261 15.3842 20.898 16.3337L20.5561 15.8186C21.3702 15.0307 21.8261 14.1115 21.9238 13.061H21.533C21.3539 13.6065 21.1259 14.0711 20.8491 14.4549L20.4339 14.0913C21.0038 13.2226 21.3539 12.2226 21.4841 11.0913L21.997 11.2125C22.0622 11.2933 22.0377 11.3438 21.9238 11.364C21.8749 11.7075 21.8017 12.0812 21.704 12.4852H23.9998Z" fill="#372F2F"/>
<path fill-rule="evenodd" clip-rule="evenodd" d="M9.90749 15.8489C9.97262 15.8489 10.0052 15.8085 10.0052 15.7277V14.6974H8.51536V16.9398C8.51536 17.1216 8.57234 17.2125 8.68632 17.2125H10.6646C10.86 17.2125 10.974 17.0913 11.0065 16.8489L11.0554 16.3943L11.6171 16.5458L11.5194 17.1822C11.4543 17.5862 11.2589 17.7883 10.9333 17.7883H8.53978C8.19785 17.7883 8.02689 17.566 8.02689 17.1216V14.1216H10.4936V15.9398C10.4936 16.263 10.3634 16.4246 10.1029 16.4246H9.51671L9.46787 15.8489H9.90749ZM8.61536 14.7974V16.9398C8.61536 17.0235 8.62906 17.0693 8.64283 17.0912C8.6517 17.1054 8.66118 17.1125 8.68632 17.1125H10.6646C10.7399 17.1125 10.789 17.0901 10.8238 17.0531C10.861 17.0135 10.8924 16.9459 10.9073 16.8368L10.9685 16.2673L11.7295 16.4726L11.6183 17.1974C11.5839 17.4108 11.513 17.5853 11.3959 17.7063C11.2764 17.8299 11.1185 17.8883 10.9333 17.8883H8.53978C8.34536 17.8883 8.18446 17.8237 8.07585 17.6826C7.97108 17.5464 7.92689 17.3538 7.92689 17.1216V14.0216H10.5936V15.9398C10.5936 16.1122 10.5593 16.2601 10.4738 16.3662C10.385 16.4764 10.2549 16.5246 10.1029 16.5246H9.42484L9.35902 15.7489H9.90373C9.90453 15.7439 9.90518 15.737 9.90518 15.7277V14.7974H8.61536ZM10.2738 11.7883C10.339 11.8893 10.3064 11.9499 10.1761 11.9701L9.44344 12.9398H11.3973V13.5155H7.39188V15.0307C7.39188 16.2563 7.08237 17.1821 6.46335 17.8082C6.43953 17.8323 6.41526 17.856 6.39053 17.8792L6.02418 17.3337C6.61034 16.8893 6.90342 16.0913 6.90342 14.9398V13.5155C6.87119 13.5522 6.83786 13.588 6.80342 13.623C6.65151 13.7774 6.47805 13.9158 6.28305 14.0381C6.25422 14.0562 6.22492 14.0739 6.19514 14.0913L5.99975 13.4852C6.79758 13.0206 7.35118 12.2125 7.66054 11.061L8.19785 11.1519C8.26298 11.2125 8.23856 11.2832 8.12458 11.364L8.02689 11.5761H9.80979L9.90749 11.4549L10.2738 11.7883ZM9.76195 11.4761L9.89625 11.3095L10.3508 11.7231L10.3579 11.7341C10.3951 11.7918 10.4299 11.8758 10.3863 11.9568C10.3538 12.0174 10.2923 12.0462 10.233 12.0607L9.64434 12.8398H11.4973V13.6155H7.49188V15.0307C7.49188 16.32 7.15353 17.3005 6.45894 17.9521L6.37312 18.0326L5.88851 17.3111L5.96376 17.254C6.51349 16.8372 6.80342 16.078 6.80342 14.9398V13.763C6.63924 13.9183 6.45316 14.0564 6.24556 14.1777L6.13813 14.2404L5.87988 13.4393L5.94943 13.3988C6.71837 12.951 7.25936 12.1688 7.56396 11.0351L7.58756 10.9472L8.24406 11.0583L8.26598 11.0787C8.29137 11.1023 8.31386 11.1323 8.32542 11.1696C8.33738 11.2082 8.33531 11.2471 8.3229 11.283C8.30291 11.3409 8.25703 11.3889 8.20466 11.4292L8.18304 11.4761H9.76195ZM13.9337 12.8695C13.9268 12.8728 13.9199 12.876 13.9129 12.8792L14.1327 13.5155C14.1624 13.4986 14.1918 13.4815 14.2208 13.4641C14.4472 13.3288 14.6532 13.1811 14.8387 13.0213C14.8727 12.9919 14.906 12.9622 14.9387 12.9321L14.9402 12.9307C15.2996 12.5985 15.5756 12.2163 15.7683 11.784C15.7855 11.7454 15.8021 11.7064 15.8179 11.6671C15.838 11.7044 15.8588 11.7413 15.8802 11.7778C16.1478 12.2326 16.5225 12.6169 17.0042 12.9307C17.0325 12.9491 17.0612 12.9673 17.0903 12.9853C17.272 13.0976 17.4682 13.2004 17.6789 13.2936C17.7095 13.3072 17.7405 13.3206 17.7718 13.3337L17.9428 12.6671C17.1287 12.3438 16.5099 11.8691 16.0866 11.2428C16.168 11.1822 16.1843 11.1317 16.1354 11.0913L15.5493 11.0307C15.2105 11.9113 14.672 12.5243 13.9337 12.8695ZM16.2179 11.2566C16.2339 11.2367 16.2471 11.2146 16.255 11.1902C16.2652 11.1587 16.2663 11.124 16.254 11.0898C16.2423 11.057 16.221 11.0323 16.1992 11.0142L16.1758 10.9949L15.4834 10.9234L15.4559 10.9948C15.1356 11.8275 14.6362 12.4078 13.9598 12.7459L14.1524 11.8324L14.2856 11.6671L13.8257 11.0965L13.6782 11.2337H12.3719V18.0701H13.0604V16.1882L13.1117 16.8883H13.6198C13.7357 16.8883 13.8412 16.858 13.932 16.7945C14.0221 16.7315 14.0918 16.6402 14.1441 16.5273C14.2474 16.3044 14.2898 15.9829 14.2816 15.5741C14.265 14.9797 14.0862 14.3684 13.7497 13.7426L13.8845 13.1032L14.0776 13.6622L14.1823 13.6024C14.4222 13.4655 14.641 13.3154 14.8387 13.1521V13.7065H15.6202V14.0216H14.3747V15.9489H15.5118C15.2815 16.6159 14.6981 17.0494 13.7232 17.2355L13.6222 17.2548L13.8119 18.1178L13.9082 18.0984C14.9556 17.8882 15.6626 17.3814 16.0062 16.5718C16.4213 17.2748 17.0088 17.7444 17.7672 17.9749L17.8671 18.0052L18.0868 17.1485L18.0003 17.1182C17.2251 16.8459 16.697 16.4539 16.3999 15.9489H17.5055V14.0216H16.2354V13.7065H17.0903V13.1023C17.2886 13.2212 17.5029 13.329 17.733 13.4259L17.8399 13.4709L18.0615 12.6066L17.9797 12.5741C17.2121 12.2693 16.6266 11.8295 16.2179 11.2566ZM16.9903 13.0307H14.9387V13.6065H15.7202V14.1216H14.4747V15.8489H15.647C15.6379 15.8828 15.628 15.9161 15.6173 15.9489C15.3877 16.6549 14.7952 17.1099 13.84 17.3139C13.8077 17.3208 13.775 17.3274 13.742 17.3337L13.8885 18.0004C14.9419 17.789 15.6268 17.2758 15.9433 16.461C15.9594 16.4193 15.9747 16.3769 15.9889 16.3337C16.0098 16.3742 16.0312 16.414 16.0532 16.453C16.4412 17.1432 16.9904 17.6084 17.7008 17.8486C17.7323 17.8592 17.7641 17.8694 17.7962 17.8792L17.9672 17.2125C17.1524 16.9264 16.5916 16.5052 16.2848 15.9489C16.2667 15.916 16.2495 15.8827 16.2331 15.8489H17.4055V14.1216H16.1354V13.6065H16.9903V13.0307ZM15.0854 12.9307H16.8258C16.4119 12.6397 16.0795 12.2926 15.8304 11.8888C15.6482 12.2768 15.3995 12.6241 15.0854 12.9307ZM14.0595 11.7883L14.1571 11.6671L13.8152 11.2428L13.7175 11.3337H12.4719V17.9701H12.9604V11.9095H13.5466L13.2046 13.8186C13.4814 14.364 13.6361 14.9499 13.6687 15.5761C13.685 15.9398 13.6117 16.1216 13.4489 16.1216H13.1558L13.2046 16.7883H13.6198C14.0106 16.7883 14.1979 16.3842 14.1816 15.5761C14.1653 14.9903 13.9862 14.3842 13.6443 13.758L14.0595 11.7883ZM13.5688 15.581C13.5369 14.9684 13.3857 14.3964 13.1155 13.8638L13.1003 13.8339L13.4271 12.0095H13.0604V16.0216H13.4489C13.4697 16.0216 13.4828 16.0163 13.4932 16.0083C13.5048 15.9993 13.5195 15.9819 13.5332 15.9479C13.5616 15.8773 13.5767 15.7585 13.5688 15.581ZM19.3349 11.7883C19.3837 11.8489 19.3675 11.9095 19.286 11.9701L19.2372 12.5458H19.628V11.0004H20.092C20.2223 11.0206 20.2304 11.0812 20.1164 11.1822V12.5458H20.8003V13.1216H20.1164V14.7883L20.7514 14.4852L20.8736 15.0004L20.1164 15.3943V18.0004H19.628V15.6065L18.8709 15.9095C18.8546 16.0509 18.8139 16.0812 18.7487 16.0004L18.5778 15.3337L19.628 14.9701V13.1216H19.2128C19.1831 13.4709 19.1265 13.8119 19.0429 14.1445C19.0347 14.1774 19.0262 14.2101 19.0174 14.2428L18.5533 14.0307C18.7409 13.3519 18.8384 12.608 18.846 11.799C18.8463 11.7652 18.8464 11.7314 18.8464 11.6974L19.3349 11.7883ZM19.304 13.2216C19.2688 13.5792 19.2054 13.9283 19.114 14.2688L19.0833 14.3829L18.4343 14.0862L18.457 14.0041C18.6496 13.3069 18.7464 12.5382 18.7464 11.6974V11.577L19.3896 11.6967L19.4128 11.7255C19.4518 11.774 19.4743 11.8365 19.4559 11.9051C19.4436 11.951 19.4156 11.9889 19.3822 12.0201L19.346 12.4458H19.528V10.9004H20.0997L20.1073 10.9016C20.1453 10.9075 20.1844 10.9176 20.2172 10.9368C20.2522 10.9572 20.2876 10.993 20.2949 11.0477C20.3016 11.0971 20.2818 11.1395 20.2627 11.1688C20.2501 11.1881 20.2343 11.2068 20.2164 11.2251V12.4458H20.9003V12.9955C21.1439 12.407 21.3055 11.7686 21.3848 11.0799L21.3977 10.9681L22.0534 11.1231L22.0749 11.1498C22.1106 11.1941 22.1575 11.272 22.1176 11.3545C22.099 11.3931 22.0673 11.4172 22.038 11.4322C22.03 11.4363 22.0218 11.4399 22.0133 11.4432C21.9695 11.7365 21.9085 12.0505 21.8305 12.3852H24.1004L24.0753 16.2125C24.0753 16.7522 24.0142 17.1712 23.8831 17.4586C23.817 17.6035 23.7311 17.7193 23.6222 17.7989C23.5121 17.8793 23.3842 17.9186 23.2426 17.9186H22.4479L22.3209 17.0519H23.061C23.1147 17.0593 23.1545 17.051 23.1869 17.0309C23.2206 17.01 23.2553 16.9715 23.2864 16.905C23.35 16.769 23.3869 16.5423 23.3869 16.2125L23.4105 13.161H23.3428C23.332 14.9301 22.6107 16.557 21.19 18.0393L21.0982 18.1351L20.6735 17.4055L20.7325 17.3511C21.8928 16.2811 22.54 14.8869 22.6714 13.161H22.4818C22.3953 14.3807 21.8894 15.4625 20.9695 16.4036L20.8831 16.4921L20.4267 15.8046L20.4865 15.7467C21.2563 15.0017 21.6967 14.1405 21.8127 13.161H21.605C21.4269 13.6848 21.2023 14.1361 20.9303 14.5134L20.8781 14.5858L20.9888 15.0531L20.2164 15.455V18.1004H19.528V15.7542L18.9608 15.9812C18.9575 15.9972 18.9536 16.0122 18.949 16.0262C18.9398 16.0538 18.923 16.0923 18.8878 16.1185C18.8683 16.133 18.8442 16.1428 18.8171 16.1443C18.7909 16.1457 18.7679 16.139 18.7499 16.1304C18.7165 16.1145 18.6904 16.0873 18.6709 16.0631L18.6573 16.0462L18.458 15.2694L19.528 14.8989V13.2216H19.304ZM20.9069 14.3726C20.8879 14.4005 20.8686 14.4279 20.8491 14.4549L20.4339 14.0913C20.987 13.2483 21.333 12.2816 21.472 11.1912C21.4763 11.158 21.4803 11.1247 21.4841 11.0913L21.997 11.2125C22.0622 11.2933 22.0377 11.3438 21.9238 11.364C21.879 11.679 21.8137 12.0194 21.7278 12.3852C21.72 12.4184 21.7121 12.4517 21.704 12.4852H23.9998L23.9753 16.2125C23.9753 17.2832 23.7311 17.8186 23.2426 17.8186H22.5344L22.4367 17.1519H23.0472C23.3403 17.1923 23.4869 16.8792 23.4869 16.2125L23.5113 13.061H23.2426C23.2429 13.0944 23.243 13.1277 23.2428 13.161C23.2322 14.8704 22.5478 16.4482 21.1895 17.8945C21.1658 17.9197 21.1419 17.9449 21.1178 17.9701L20.8003 17.4246C21.9828 16.3342 22.6399 14.913 22.7717 13.161C22.7742 13.1278 22.7765 13.0944 22.7786 13.061H22.3878C22.3244 14.2615 21.8514 15.3278 20.969 16.2599C20.9456 16.2846 20.922 16.3092 20.898 16.3337L20.5561 15.8186C21.3442 15.0558 21.7967 14.1699 21.9133 13.161C21.9172 13.1278 21.9207 13.0945 21.9238 13.061H21.533C21.3665 13.568 21.1578 14.0052 20.9069 14.3726ZM20.6569 14.4195L20.3026 14.1092L20.3503 14.0364C20.5206 13.7769 20.671 13.5053 20.8015 13.2216H20.2164V14.6297L20.6569 14.4195ZM7.43448 12.8398C7.58544 12.6105 7.71778 12.3812 7.8315 12.1519H9.41902L8.88171 12.9398H7.36746C7.39019 12.9065 7.41253 12.8731 7.43448 12.8398ZM7.55385 12.8398C7.68019 12.6441 7.79332 12.4481 7.89317 12.2519H9.22978L8.82886 12.8398H7.55385ZM16.9903 15.364H16.1354V14.6065H16.9903V15.364ZM16.8903 14.7065H16.2354V15.264H16.8903V14.7065ZM15.7202 15.364H14.8898V14.6065H15.7202V15.364ZM15.6202 14.7065H14.9898V15.264H15.6202V14.7065Z" fill="#372F2F"/>
</svg>
