<svg width="30" height="30" viewBox="0 0 30 30" fill="none" xmlns="http://www.w3.org/2000/svg">
<circle cx="15" cy="15" r="13" fill="#6E3434"/>
<circle cx="15" cy="15" r="10" fill="#5F626D"/>
<path d="M21 18.5C21 18.775 20.775 19 20.5 19H19.5C19.225 19 19 18.775 19 18.5V17.5C19 17.225 19.225 17 19.5 17H20.5C20.775 17 21 17.225 21 17.5V18.5Z" fill="#372F2F"/>
<path d="M16 18.5C16 18.775 15.775 19 15.5 19H14.5C14.225 19 14 18.775 14 18.5V17.5C14 17.225 14.225 17 14.5 17H15.5C15.775 17 16 17.225 16 17.5V18.5Z" fill="#372F2F"/>
<path d="M12 11V18H13V17H14V16H16V17H17V18H18V17H19V16H21V17H22V18H23V11H12Z" fill="#372F2F"/>
<path d="M8 18.5C8 18.775 7.775 19 7.5 19H6.5C6.225 19 6 18.775 6 18.5V17.5C6 17.225 6.225 17 6.5 17H7.5C7.775 17 8 17.225 8 17.5V18.5Z" fill="#372F2F"/>
<path d="M10 11V18H9V17H8V16H6V17H5.2C5.07 16.359 5 15.69 5 15C5 13.58 5.3 12.22 5.84 11H10Z" fill="#372F2F"/>
<path d="M13 17H9V18H13V17Z" fill="#372F2F"/>
</svg>
