<svg width="30" height="30" viewBox="0 0 30 30" fill="none" xmlns="http://www.w3.org/2000/svg">
<circle cx="15" cy="15" r="13" fill="#B5333A"/>
<circle cx="15" cy="15" r="10" fill="#AEB1B7"/>
<path d="M24.4129 22.7346L7.09033 5.41211L5.41309 7.08935L22.7356 24.4119L24.4129 22.7346Z" fill="#B5333A"/>
<path d="M9 18.5C9 18.775 9.225 19 9.5 19H10.5C10.775 19 11 18.775 11 18.5V17.5C11 17.225 10.775 17 10.5 17H9.5C9.225 17 9 17.225 9 17.5V18.5Z" fill="#333333"/>
<path d="M14 18.5C14 18.775 14.225 19 14.5 19H15.5C15.775 19 16 18.775 16 18.5V17.5C16 17.225 15.775 17 15.5 17H14.5C14.225 17 14 17.225 14 17.5V18.5Z" fill="#333333"/>
<path d="M18 11V18H17V17H16V16H14V17H13V18H12V17H11V16H9V17H8V18H7V11H18Z" fill="#333333"/>
<path d="M22 18.5C22 18.775 22.225 19 22.5 19H23.5C23.775 19 24 18.775 24 18.5V17.5C24 17.225 23.775 17 23.5 17H22.5C22.225 17 22 17.225 22 17.5V18.5Z" fill="#333333"/>
<path d="M20 11V18H21V17H22V16H24V17H24.8C24.93 16.359 25 15.69 25 15C25 13.58 24.7 12.22 24.16 11H20Z" fill="#333333"/>
<path d="M21 17H17V18H21V17Z" fill="#333333"/>
</svg>
