<svg width="30" height="30" viewBox="0 0 30 30" fill="none" xmlns="http://www.w3.org/2000/svg">
<path d="M14.9996 1L29 15.0004L15.0004 29L1 14.9996L14.9996 1Z" fill="#434656"/>
<path d="M27.5 15L15 27.5L2.5 15L15 2.5L27.5 15Z" fill="#A77B0C"/>
<path d="M20 14V20H19V16.973V14C19 11.794 17.206 10 15 10C12.794 10 11 11.794 11 14V16.973V20H10V14C10 11.238 12.238 9 15 9C17.762 9 20 11.238 20 14ZM15 12C13.343 12 12 13.343 12 15V19H14V15C14 14.448 14.448 14 15 14C15.553 14 16 14.448 16 15V19H18V15C18 13.343 16.657 12 15 12Z" fill="#333333"/>
</svg>
