<svg width="20" height="26" viewBox="0 0 20 26" fill="none" xmlns="http://www.w3.org/2000/svg">
<path d="M6.13616 20.3055L6.13478 20.3041C3.79676 17.9165 2.64973 16.0109 2.07934 14.4183C1.50975 12.8278 1.5 11.5122 1.5 10.2415C1.5 5.40107 5.32485 1.5 9.99133 1.5C14.659 1.5 18.5 5.40234 18.5 10.2415C18.5 11.5122 18.4903 12.8278 17.9207 14.4183C17.3503 16.0109 16.2033 17.9165 13.8652 20.3041L13.8639 20.3055L10 24.2825L6.13616 20.3055Z" fill="#433667" stroke="#705F9D"/>
<path d="M14.5 10.5H10V8.5H13.5C13.7652 8.5 14.0196 8.60536 14.2071 8.79289C14.3946 8.98043 14.5 9.23478 14.5 9.5V10.5ZM7 10.5V9.5C7 9.23478 7.10536 8.98043 7.29289 8.79289C7.48043 8.60536 7.73478 8.5 8 8.5C8.26522 8.5 8.51957 8.60536 8.70711 8.79289C8.89464 8.98043 9 9.23478 9 9.5V10.5H7ZM15 11.875C14.9987 11.7759 14.9588 11.6813 14.8887 11.6113C14.8187 11.5412 14.7241 11.5013 14.625 11.5H6V7.5H5V15H6V13.5H14V15H15V11.875Z" fill="#BFBFBF"/>
</svg>
