<svg width="20" height="26" viewBox="0 0 20 26" fill="none" xmlns="http://www.w3.org/2000/svg">
<path d="M10 24.2825L6.13616 20.3055L6.13478 20.3041C3.79676 17.9165 2.64973 16.0109 2.07934 14.4183C1.50975 12.8278 1.5 11.5122 1.5 10.2415C1.5 5.40107 5.32485 1.5 9.99133 1.5C14.659 1.5 18.5 5.40234 18.5 10.2415C18.5 11.5122 18.4903 12.8278 17.9207 14.4183C17.3503 16.0109 16.2033 17.9165 13.8652 20.3041L13.8639 20.3055L10 24.2825Z" fill="#1B8862" stroke="#48AD84"/>
<path fill-rule="evenodd" clip-rule="evenodd" d="M8.12501 15.7634C8.87556 14.7729 8.94855 13.6074 8.80925 12.8376C9.39421 12.8609 10.2386 12.8267 11.1313 12.5653C11.1819 13.2409 11.5285 15.021 11.8751 15.021C12.5332 15.021 13.48 13.0205 13.7021 11.2764C12.8709 11.2041 12.134 11.0096 11.5037 10.6587C10.6703 10.1947 10.0547 9.47481 9.65186 8.4781L10.3482 8.20241C10.6954 9.06147 11.2047 9.64058 11.8714 10.0117C12.4244 10.3196 13.1067 10.496 13.9333 10.5495C14.489 9.45203 14.4941 7.93719 14.4978 6.85224C14.4983 6.72308 14.4987 6.60002 14.5 6.48448H13.75V5.74217C13.5117 5.74468 13.2659 5.73518 13.0136 5.72543C11.809 5.6789 10.4549 5.62659 9.04628 6.84679C9.03168 6.86027 9.01723 6.8738 9.00291 6.88738C7.9813 7.10638 5.50001 8.40432 5.50001 9.08257C5.50001 9.42609 7.10177 9.76962 7.64173 9.81886C7.57379 10.546 7.64719 11.2288 7.74578 11.753C6.9688 11.6056 5.76796 11.6673 4.75012 12.423C4.75008 12.6037 5.25855 12.6715 5.83578 12.7485C6.444 12.8297 7.12855 12.921 7.375 13.1653C7.62132 13.4094 7.71365 14.0864 7.79571 14.6881C7.87367 15.2597 7.94236 15.7634 8.12501 15.7634ZM12.25 7.78352C12.25 8.091 11.9982 8.34025 11.6875 8.34025C11.3769 8.34025 11.125 8.091 11.125 7.78352C11.125 7.47605 11.3769 7.22679 11.6875 7.22679C11.9982 7.22679 12.25 7.47605 12.25 7.78352Z" fill="#D9D9D9"/>
</svg>
