<svg width="20" height="26" viewBox="0 0 20 26" fill="none" xmlns="http://www.w3.org/2000/svg">
<circle cx="10" cy="13" r="8.5" fill="#28497A" stroke="#5174B2"/>
<path d="M14 10V8.75C14 8.55109 13.921 8.36032 13.7803 8.21967C13.6397 8.07902 13.4489 8 13.25 8H6.75C6.55109 8 6.36032 8.07902 6.21967 8.21967C6.07902 8.36032 6 8.55109 6 8.75V10H5.5V12H6V17.5C6 17.6326 6.05268 17.7598 6.14645 17.8536C6.24021 17.9473 6.36739 18 6.5 18H7.5C7.63261 18 7.75978 17.9473 7.85355 17.8536C7.94732 17.7598 8 17.6326 8 17.5V17H12V17.5C12 17.6326 12.0527 17.7598 12.1464 17.8536C12.2402 17.9473 12.3674 18 12.5 18H13.5C13.6326 18 13.7598 17.9473 13.8536 17.8536C13.9473 17.7598 14 17.6326 14 17.5V12H14.5V10H14ZM7 9H13V10H7V9ZM7 11H13V14H7V11ZM8.5 16H7.25C7.17238 15.9418 7.10937 15.8663 7.06598 15.7795C7.02259 15.6927 7 15.597 7 15.5C7 15.403 7.02259 15.3073 7.06598 15.2205C7.10937 15.1337 7.17238 15.0582 7.25 15H8.5V16ZM11.5 15H12.75C12.8276 15.0582 12.8906 15.1337 12.934 15.2205C12.9774 15.3073 13 15.403 13 15.5C13 15.597 12.9774 15.6927 12.934 15.7795C12.8906 15.8663 12.8276 15.9418 12.75 16H11.5V15Z" fill="#BFBFBF"/>
</svg>
