<svg width="20" height="26" viewBox="0 0 20 26" fill="none" xmlns="http://www.w3.org/2000/svg">
<path d="M6.13616 20.3055L6.13478 20.3041C3.79676 17.9165 2.64973 16.0109 2.07934 14.4183C1.50975 12.8278 1.5 11.5122 1.5 10.2415C1.5 5.40107 5.32485 1.5 9.99133 1.5C14.659 1.5 18.5 5.40234 18.5 10.2415C18.5 11.5122 18.4903 12.8278 17.9207 14.4183C17.3503 16.0109 16.2033 17.9165 13.8652 20.3041L13.8639 20.3055L10 24.2825L6.13616 20.3055Z" fill="#433667" stroke="#705F9D"/>
<path d="M14.335 15L10.5 8.22L11.755 6H10.755L10 7.335L9.25 6H8.25L9.5 8.22L5.675 15H5V16H15V15H14.335ZM10 11.75L11.855 15H8.17L10 11.75Z" fill="#BFBFBF"/>
</svg>
