<svg width="20" height="26" viewBox="0 0 20 26" fill="none" xmlns="http://www.w3.org/2000/svg">
<path d="M10 24.2825L6.13616 20.3055L6.13478 20.3041C3.79676 17.9165 2.64973 16.0109 2.07934 14.4183C1.50975 12.8278 1.5 11.5122 1.5 10.2415C1.5 5.40107 5.32485 1.5 9.99133 1.5C14.659 1.5 18.5 5.40234 18.5 10.2415C18.5 11.5122 18.4903 12.8278 17.9207 14.4183C17.3503 16.0109 16.2033 17.9165 13.8652 20.3041L13.8639 20.3055L10 24.2825Z" fill="#4A505E" stroke="#717C95"/>
<path d="M9.25 5.75H10.75V6.9144C11.5734 7.02151 12.269 7.34141 12.852 7.80479L12.1278 8.91167C11.4906 8.49843 10.8823 8.27706 10.2016 8.27706C9.46293 8.27706 9.04291 8.58698 9.04291 9.05926C9.04291 9.5758 9.34706 9.81194 10.6506 10.1809C12.2147 10.6089 13.0982 11.2583 13.0982 12.6456C13.0982 13.9872 12.0893 14.8047 10.75 15.0481V16.25H9.25V15.09C8.22522 14.9715 7.40704 14.5621 6.8125 14.0181L7.73943 12.9555C8.33324 13.413 9.04291 13.7229 9.82501 13.7229C10.6506 13.7229 11.1864 13.3687 11.1864 12.7784C11.1864 12.129 10.8823 11.9224 9.44844 11.5092C7.86977 11.0664 7.17458 10.299 7.17458 9.14781C7.17458 8.07713 7.97188 7.22711 9.25 6.9616V5.75Z" fill="#BFBFBF"/>
</svg>
