<svg width="20" height="26" viewBox="0 0 20 26" fill="none" xmlns="http://www.w3.org/2000/svg">
<path d="M6.13616 20.3055L6.13478 20.3041C3.79676 17.9165 2.64973 16.0109 2.07934 14.4183C1.50975 12.8278 1.5 11.5122 1.5 10.2415C1.5 5.40107 5.32485 1.5 9.99133 1.5C14.659 1.5 18.5 5.40234 18.5 10.2415C18.5 11.5122 18.4903 12.8278 17.9207 14.4183C17.3503 16.0109 16.2033 17.9165 13.8652 20.3041L13.8639 20.3055L10 24.2825L6.13616 20.3055Z" fill="#144C4D" stroke="#2F7A7C"/>
<path d="M9.00001 7H7.00001V6H9.00001V7ZM5.00001 16H8.00001V15H5.00001V16ZM12 16H15V15H12V16ZM13 6H11V7H13V6ZM15 11.255V14.5H12V12H8.00001V14.5H5.00001V11.255C4.99873 10.9232 5.08128 10.5964 5.24001 10.305L6.75001 7.5H9.00001V8H11V7.5H13.24L14.74 10.305C14.9057 10.5945 14.9952 10.9214 15 11.255V11.255ZM10.5 9H9.50001V11H10.5V9Z" fill="#BFBFBF"/>
</svg>
