<svg width="20" height="26" viewBox="0 0 20 26" fill="none" xmlns="http://www.w3.org/2000/svg">
<path d="M6.13616 20.3055L6.13478 20.3041C3.79676 17.9165 2.64973 16.0109 2.07934 14.4183C1.50975 12.8278 1.5 11.5122 1.5 10.2415C1.5 5.40107 5.32485 1.5 9.99133 1.5C14.659 1.5 18.5 5.40234 18.5 10.2415C18.5 11.5122 18.4903 12.8278 17.9207 14.4183C17.3503 16.0109 16.2033 17.9165 13.8652 20.3041L13.8639 20.3055L10 24.2825L6.13616 20.3055Z" fill="#255978" stroke="#4687B0"/>
<path d="M15 7.5H5V7C5 6.73478 5.10536 6.48043 5.29289 6.29289C5.48043 6.10536 5.73478 6 6 6H14C14.2652 6 14.5196 6.10536 14.7071 6.29289C14.8946 6.48043 15 6.73478 15 7V7.5ZM5 15C5 15.2652 5.10536 15.5196 5.29289 15.7071C5.48043 15.8946 5.73478 16 6 16H14C14.2652 16 14.5196 15.8946 14.7071 15.7071C14.8946 15.5196 15 15.2652 15 15V14.5H5V15ZM6.18 13.5H5V8.5H6.615C7.905 8.5 8.7 9.035 8.7 10.13C8.7 11.225 7.875 11.835 6.7 11.835H6.18V13.5ZM6.18 11H6.62C7.155 11 7.5 10.76 7.5 10.13C7.5 9.595 7.185 9.345 6.6 9.345H6.18V11ZM9 10.745C8.99901 10.8938 9.04228 11.0394 9.12431 11.1635C9.20634 11.2876 9.32342 11.3846 9.46067 11.4419C9.59792 11.4993 9.74913 11.5146 9.89508 11.4858C10.041 11.457 10.1751 11.3855 10.2803 11.2803C10.3855 11.1751 10.457 11.041 10.4858 10.8951C10.5146 10.7491 10.4993 10.5979 10.4419 10.4607C10.3846 10.3234 10.2876 10.2063 10.1635 10.1243C10.0394 10.0423 9.89376 9.99901 9.745 10C9.64641 9.99724 9.5483 10.0146 9.45667 10.0511C9.36503 10.0876 9.2818 10.1423 9.21206 10.2121C9.14233 10.2818 9.08755 10.365 9.05109 10.4567C9.01462 10.5483 8.99724 10.6464 9 10.745V10.745ZM13.735 11.37L15 13.5H13.67L12.645 11.59H12.18V13.5H11V8.5H12.635C13.99 8.5 14.69 9 14.69 10C14.7032 10.3015 14.6169 10.599 14.4443 10.8466C14.2717 11.0942 14.0225 11.2781 13.735 11.37V11.37ZM13.5 10C13.5 9.5 13.215 9.31 12.63 9.31H12.205V10.755H12.705C13.2 10.775 13.5 10.55 13.5 10Z" fill="#BFBFBF"/>
</svg>
