<svg width="20" height="26" viewBox="0 0 20 26" fill="none" xmlns="http://www.w3.org/2000/svg">
<path d="M6.13616 20.3055L6.13478 20.3041C3.79676 17.9165 2.64973 16.0109 2.07934 14.4183C1.50975 12.8278 1.5 11.5122 1.5 10.2415C1.5 5.40107 5.32485 1.5 9.99133 1.5C14.659 1.5 18.5 5.40234 18.5 10.2415C18.5 11.5122 18.4903 12.8278 17.9207 14.4183C17.3503 16.0109 16.2033 17.9165 13.8652 20.3041L13.8639 20.3055L10 24.2825L6.13616 20.3055Z" fill="#4D3D3A" stroke="#82655F"/>
<path d="M13 6L11 11V14.5H9.49996V10.5H5.49996V16H15V11L13 6ZM6.99996 14.5V11.5C7.05818 11.4224 7.13367 11.3594 7.22045 11.316C7.30724 11.2726 7.40294 11.25 7.49996 11.25C7.59699 11.25 7.69269 11.2726 7.77947 11.316C7.86626 11.3594 7.94175 11.4224 7.99996 11.5V14.5H6.99996ZM12.5 14.5V11.5C12.5582 11.4224 12.6337 11.3594 12.7205 11.316C12.8072 11.2726 12.9029 11.25 13 11.25C13.097 11.25 13.1927 11.2726 13.2795 11.316C13.3663 11.3594 13.4417 11.4224 13.5 11.5V14.5H12.5ZM9.99996 8.5C10.0053 8.69496 9.96253 8.88823 9.87531 9.06267C9.78809 9.23712 9.65916 9.38733 9.49996 9.5H5.49996C5.34077 9.38733 5.21184 9.23712 5.12462 9.06267C5.03739 8.88823 4.99458 8.69496 4.99996 8.5C4.99996 7.5 7.49996 6 7.49996 6C7.49996 6 9.99996 7.5 9.99996 8.5Z" fill="#BFBFBF"/>
</svg>
