<svg width="18" height="14" viewBox="0 0 18 14" fill="none" xmlns="http://www.w3.org/2000/svg">
<rect width="18" height="14" rx="2" fill="#265956"/>
<path d="M5.50802 2.57617H3.96802V11.3382H5.50802V2.57617Z" fill="#CCCCCC"/>
<path d="M13.087 9.30895C12.804 9.51595 12.533 9.67795 12.282 9.79195C12.045 9.89995 11.761 9.95395 11.44 9.95395C10.811 9.95395 10.321 9.72195 9.94102 9.24295C9.55602 8.75795 9.36102 7.97795 9.36102 6.92595C9.36102 5.84495 9.55702 5.05595 9.94502 4.58195C10.329 4.11395 10.822 3.88595 11.453 3.88595C11.964 3.88595 12.458 4.07695 12.923 4.45295L13.075 4.57695L13.954 3.53695L13.803 3.40795C13.435 3.09195 13.067 2.85995 12.708 2.71795C12.347 2.57395 11.9 2.50195 11.381 2.50195C10.706 2.50195 10.085 2.67495 9.53502 3.01695C8.98402 3.36095 8.54402 3.87295 8.22502 4.53895C7.90902 5.19695 7.74902 5.99595 7.74902 6.91495C7.74902 7.83195 7.90202 8.63095 8.20502 9.28795C8.51202 9.95495 8.94902 10.47 9.50502 10.818C10.059 11.164 10.698 11.339 11.405 11.339C11.95 11.339 12.442 11.242 12.867 11.05C13.29 10.859 13.642 10.616 13.914 10.328L14.032 10.203L13.243 9.19495L13.087 9.30895Z" fill="#CCCCCC"/>
</svg>
