<svg width="19" height="14" viewBox="0 0 19 14" fill="none" xmlns="http://www.w3.org/2000/svg">
<rect width="19" height="14" rx="2" fill="#265956"/>
<path d="M9.33658 5.42202C9.33658 4.51202 9.02658 3.81502 8.41758 3.34902C7.82558 2.89602 6.98558 2.66602 5.92058 2.66602H3.54858V11.334H5.08858V8.29802H5.93258C6.94058 8.29802 7.76458 8.06202 8.38058 7.59802C9.01558 7.12002 9.33658 6.38802 9.33658 5.42202ZM5.08858 3.95402H5.90858C6.50858 3.95402 6.97058 4.07402 7.28158 4.31002C7.57958 4.53702 7.72458 4.90702 7.72458 5.44002C7.72458 6.03602 7.57658 6.44802 7.28458 6.66502C6.97258 6.89402 6.50158 7.01002 5.88458 7.01002H5.08858V3.95402Z" fill="#CCCCCC"/>
<path d="M13.6836 2.66602H11.9526L9.17163 11.334H10.7466L11.3706 9.25802H14.2056L14.8296 11.334H16.4516L13.7276 2.80502L13.6836 2.66602ZM13.8086 7.93402H11.7656L12.7916 4.51302L13.8086 7.93402Z" fill="#CCCCCC"/>
</svg>
