<svg width="24" height="14" viewBox="0 0 24 14" fill="none" xmlns="http://www.w3.org/2000/svg">
<rect width="24" height="14" rx="2" fill="#265956"/>
<path d="M4.64607 9.71112C4.64607 10.0731 4.61307 10.3681 4.54607 10.5891C4.48507 10.7911 4.37607 10.9661 4.21907 11.1101C4.05507 11.2601 3.79507 11.4041 3.44907 11.5391L3.26807 11.6091L3.70407 12.8141L3.88807 12.7551C4.64807 12.5131 5.22607 12.1711 5.60407 11.7361C5.99207 11.2931 6.18807 10.6311 6.18807 9.76913V2.45312H4.64807V9.71112H4.64607Z" fill="#CCCCCC"/>
<path d="M12.9252 9.37341C12.6422 9.58041 12.3712 9.74241 12.1202 9.85641C11.8832 9.96441 11.5992 10.0184 11.2782 10.0184C10.6492 10.0184 10.1592 9.78641 9.77916 9.30741C9.39416 8.82241 9.19916 8.04241 9.19916 6.99041C9.19916 5.90941 9.39516 5.12041 9.78316 4.64641C10.1672 4.17841 10.6602 3.95041 11.2912 3.95041C11.8022 3.95041 12.2962 4.14141 12.7612 4.51741L12.9132 4.64141L13.7922 3.60141L13.6412 3.47241C13.2732 3.15641 12.9052 2.92441 12.5462 2.78241C12.1852 2.63841 11.7382 2.56641 11.2192 2.56641C10.5442 2.56641 9.92316 2.73941 9.37316 3.08141C8.82216 3.42541 8.38216 3.93741 8.06316 4.60341C7.74716 5.26141 7.58716 6.06041 7.58716 6.97941C7.58716 7.89641 7.74016 8.69541 8.04316 9.35241C8.35016 10.0194 8.78716 10.5344 9.34316 10.8824C9.89716 11.2284 10.5362 11.4034 11.2432 11.4034C11.7882 11.4034 12.2802 11.3064 12.7052 11.1144C13.1282 10.9234 13.4802 10.6804 13.7522 10.3924L13.8702 10.2674L13.0812 9.25941L12.9252 9.37341Z" fill="#CCCCCC"/>
<path d="M14.4031 4.11937H16.7551V11.4034H18.2951V4.11937H20.5631L20.7321 2.73438H14.4031V4.11937Z" fill="#CCCCCC"/>
</svg>
