<svg width="20" height="26" viewBox="0 0 20 26" fill="none" xmlns="http://www.w3.org/2000/svg">
<path d="M10 24.2825L6.13616 20.3055L6.13478 20.3041C3.79676 17.9165 2.64973 16.0109 2.07934 14.4183C1.50975 12.8278 1.5 11.5122 1.5 10.2415C1.5 5.40107 5.32485 1.5 9.99133 1.5C14.659 1.5 18.5 5.40234 18.5 10.2415C18.5 11.5122 18.4903 12.8278 17.9207 14.4183C17.3503 16.0109 16.2033 17.9165 13.8652 20.3041L13.8639 20.3055L10 24.2825Z" fill="#4D3D3A" stroke="#82655F"/>
<path d="M10.6103 6.62591L10 5.77148L9.38969 6.62591C8.54761 7.80482 7.44519 8.5303 6.53691 8.96282C6.08457 9.17822 5.6872 9.31763 5.40627 9.40243C5.26608 9.44476 5.15571 9.47323 5.08299 9.49064C5.04665 9.49933 5.0198 9.50524 5.00341 9.50872L4.98683 9.51215C4.98708 9.51211 4.98676 9.51218 5.12497 10.2493C5.26319 10.9865 5.26347 10.9864 5.26375 10.9864L5.26586 10.986L5.26963 10.9853L5.28044 10.9831C5.28909 10.9814 5.3006 10.9791 5.31484 10.976C5.34331 10.97 5.38274 10.9613 5.4321 10.9494C5.53077 10.9258 5.66942 10.8899 5.83978 10.8384C6.17995 10.7357 6.64977 10.5705 7.18181 10.3171C8.04306 9.90699 9.08545 9.25726 9.99999 8.253C10.9145 9.25726 11.9569 9.90699 12.8182 10.3171C13.3502 10.5705 13.82 10.7357 14.1602 10.8384C14.3306 10.8899 14.4692 10.9258 14.5679 10.9494C14.6172 10.9613 14.6567 10.97 14.6851 10.976C14.6994 10.9791 14.7109 10.9814 14.7195 10.9831L14.7303 10.9853L14.7341 10.986L14.7356 10.9863C14.7359 10.9863 14.7368 10.9865 14.875 10.2493C15.0132 9.51218 15.0135 9.51223 15.0137 9.51228L14.9966 9.50872C14.9802 9.50524 14.9533 9.49933 14.917 9.49064C14.8443 9.47323 14.7339 9.44476 14.5937 9.40244C14.3128 9.31763 13.9154 9.17822 13.4631 8.96282C12.5548 8.5303 11.4524 7.80482 10.6103 6.62591Z" fill="#BFBFBF"/>
<path d="M8.49994 11.7493H6.99994V16.2493H12.9999V11.7493H11.4999V14.7493H8.49994V11.7493Z" fill="#BFBFBF"/>
</svg>
