<svg width="20" height="26" viewBox="0 0 20 26" fill="none" xmlns="http://www.w3.org/2000/svg">
<path d="M10 24.2825L6.13616 20.3055L6.13478 20.3041C3.79676 17.9165 2.64973 16.0109 2.07934 14.4183C1.50975 12.8278 1.5 11.5122 1.5 10.2415C1.5 5.40107 5.32485 1.5 9.99133 1.5C14.659 1.5 18.5 5.40234 18.5 10.2415C18.5 11.5122 18.4903 12.8278 17.9207 14.4183C17.3503 16.0109 16.2033 17.9165 13.8652 20.3041L13.8639 20.3055L10 24.2825Z" fill="#4D3D3A" stroke="#82655F"/>
<path fill-rule="evenodd" clip-rule="evenodd" d="M11.638 8.28176L10.0001 5.60156L8.36222 8.28176L5.03935 8.28176L6.70078 11.0005L5.03931 13.7192H8.36226L10.0002 16.3994L11.6381 13.7192H14.9609L13.2995 11.0005L14.961 8.28176L11.638 8.28176ZM10.5393 8.28176L10.0001 7.39943L9.46092 8.28176H10.5393ZM8.888 9.21926H11.1122L12.2008 11.0005L11.1123 12.7817H8.88805L7.79948 11.0005L8.888 9.21926ZM7.7893 9.21926H6.71097L7.25013 10.1015L7.7893 9.21926ZM7.25013 11.8994L6.71092 12.7817H7.78935L7.25013 11.8994ZM9.46096 13.7192L10.0002 14.6016L10.5394 13.7192H9.46096ZM12.211 12.7817H13.2893L12.7501 11.8995L12.211 12.7817ZM12.7501 10.1016L12.2109 9.21926H13.2893L12.7501 10.1016Z" fill="#BFBFBF"/>
</svg>
