<svg width="21" height="21" viewBox="0 0 21 21" fill="none" xmlns="http://www.w3.org/2000/svg">
<path d="M17.5 14H3.5C1.6 14 0 12.4 0 10.5C0 8.6 1.6 7 3.5 7H17.5C19.4 7 21 8.6 21 10.5C21 12.4 19.4 14 17.5 14Z" fill="#232333"/>
<path d="M16.7998 12.5C17.9044 12.5 18.7998 11.6046 18.7998 10.5C18.7998 9.39543 17.9044 8.5 16.7998 8.5C15.6952 8.5 14.7998 9.39543 14.7998 10.5C14.7998 11.6046 15.6952 12.5 16.7998 12.5Z" fill="#666666"/>
<path d="M10.5 12.5C11.6046 12.5 12.5 11.6046 12.5 10.5C12.5 9.39543 11.6046 8.5 10.5 8.5C9.39543 8.5 8.5 9.39543 8.5 10.5C8.5 11.6046 9.39543 12.5 10.5 12.5Z" fill="#666666"/>
<path d="M4.2998 12.5C5.40437 12.5 6.2998 11.6046 6.2998 10.5C6.2998 9.39543 5.40437 8.5 4.2998 8.5C3.19524 8.5 2.2998 9.39543 2.2998 10.5C2.2998 11.6046 3.19524 12.5 4.2998 12.5Z" fill="#666666"/>
</svg>
