<svg width="20" height="26" viewBox="0 0 20 26" fill="none" xmlns="http://www.w3.org/2000/svg">
<path d="M6.13616 20.3055L6.13478 20.3041C3.79676 17.9165 2.64973 16.0109 2.07934 14.4183C1.50975 12.8278 1.5 11.5122 1.5 10.2415C1.5 5.40107 5.32485 1.5 9.99133 1.5C14.659 1.5 18.5 5.40234 18.5 10.2415C18.5 11.5122 18.4903 12.8278 17.9207 14.4183C17.3503 16.0109 16.2033 17.9165 13.8652 20.3041L13.8639 20.3055L10 24.2825L6.13616 20.3055Z" fill="#853A92" stroke="#AA5DB6"/>
<path d="M13.25 10.75C13.2502 10.1558 13.0874 9.5729 12.7795 9.06472C12.4715 8.55653 12.0301 8.14251 11.5033 7.86765C10.9765 7.5928 10.3844 7.46764 9.79137 7.50579C9.19838 7.54393 8.6272 7.74392 8.13993 8.084C7.65266 8.42409 7.26796 8.89125 7.02764 9.4347C6.78733 9.97816 6.7006 10.5771 6.7769 11.1664C6.8532 11.7557 7.0896 12.3128 7.46039 12.7771C7.83119 13.2414 8.32219 13.5952 8.88 13.8L8 16H12L11.12 13.8C11.7437 13.5695 12.282 13.1538 12.6628 12.6086C13.0435 12.0635 13.2484 11.4149 13.25 10.75V10.75ZM10.75 12.865L10.19 11.465C10.298 11.422 10.3877 11.3427 10.4435 11.2407C10.4994 11.1387 10.5179 11.0205 10.496 10.9063C10.4741 10.7921 10.4131 10.6891 10.3235 10.6151C10.2339 10.541 10.1213 10.5005 10.005 10.5005C9.88873 10.5005 9.7761 10.541 9.68648 10.6151C9.59686 10.6891 9.53585 10.7921 9.51395 10.9063C9.49205 11.0205 9.51063 11.1387 9.56648 11.2407C9.62234 11.3427 9.71199 11.422 9.82 11.465L9.26 12.865C8.75959 12.6881 8.33783 12.3399 8.06928 11.8821C7.80072 11.4243 7.70265 10.8863 7.7924 10.3632C7.88216 9.84008 8.15395 9.36553 8.55975 9.02342C8.96556 8.68131 9.47923 8.49368 10.01 8.49368C10.5408 8.49368 11.0544 8.68131 11.4602 9.02342C11.866 9.36553 12.1378 9.84008 12.2276 10.3632C12.3173 10.8863 12.2193 11.4243 11.9507 11.8821C11.6822 12.3399 11.2604 12.6881 10.76 12.865H10.75ZM6 8V7.5H7.5V8C7.5 8.13261 7.44732 8.25978 7.35355 8.35355C7.25978 8.44732 7.13261 8.5 7 8.5H6.5C6.36739 8.5 6.24021 8.44732 6.14645 8.35355C6.05268 8.25978 6 8.13261 6 8ZM9.25 6.5V6H10.75V6.5C10.75 6.63261 10.6973 6.75979 10.6036 6.85355C10.5098 6.94732 10.3826 7 10.25 7H9.75C9.61739 7 9.49021 6.94732 9.39645 6.85355C9.30268 6.75979 9.25 6.63261 9.25 6.5ZM12.5 8V7.5H14V8C14 8.13261 13.9473 8.25978 13.8536 8.35355C13.7598 8.44732 13.6326 8.5 13.5 8.5H13C12.8674 8.5 12.7402 8.44732 12.6464 8.35355C12.5527 8.25978 12.5 8.13261 12.5 8ZM6 11.5H5.5C5.36739 11.5 5.24021 11.4473 5.14645 11.3536C5.05268 11.2598 5 11.1326 5 11V11V10.5H6.5V11C6.5 11.1326 6.44732 11.2598 6.35355 11.3536C6.25978 11.4473 6.13261 11.5 6 11.5ZM15 11C15 11.1326 14.9473 11.2598 14.8536 11.3536C14.7598 11.4473 14.6326 11.5 14.5 11.5H14C13.8674 11.5 13.7402 11.4473 13.6464 11.3536C13.5527 11.2598 13.5 11.1326 13.5 11V10.5H15V11ZM6 13.5H7.5V14C7.5 14.1326 7.44732 14.2598 7.35355 14.3536C7.25978 14.4473 7.13261 14.5 7 14.5H6.5C6.36739 14.5 6.24021 14.4473 6.14645 14.3536C6.05268 14.2598 6 14.1326 6 14V13.5ZM12.5 13.5H14V14C14 14.1326 13.9473 14.2598 13.8536 14.3536C13.7598 14.4473 13.6326 14.5 13.5 14.5H13C12.8674 14.5 12.7402 14.4473 12.6464 14.3536C12.5527 14.2598 12.5 14.1326 12.5 14V13.5Z" fill="#D9D9D9"/>
</svg>
