<svg width="20" height="26" viewBox="0 0 20 26" fill="none" xmlns="http://www.w3.org/2000/svg">
<path d="M6.13616 20.3055L6.13478 20.3041C3.79676 17.9165 2.64973 16.0109 2.07934 14.4183C1.50975 12.8278 1.5 11.5122 1.5 10.2415C1.5 5.40107 5.32485 1.5 9.99133 1.5C14.659 1.5 18.5 5.40234 18.5 10.2415C18.5 11.5122 18.4903 12.8278 17.9207 14.4183C17.3503 16.0109 16.2033 17.9165 13.8652 20.3041L13.8639 20.3055L10 24.2825L6.13616 20.3055Z" fill="#853A92" stroke="#AA5DB6"/>
<path d="M12.5 8.5L10 6L7.5 8.5H5V15.5H15V8.5H12.5ZM10 7L11.5 8.5H8.5L10 7ZM14 14.5H6V9.5H14V14.5ZM13 13.5H7V10.5H13V13.5Z" fill="#D9D9D9"/>
</svg>
