<svg width="20" height="26" viewBox="0 0 20 26" fill="none" xmlns="http://www.w3.org/2000/svg">
<path d="M6.13616 20.3055L6.13478 20.3041C3.79676 17.9165 2.64973 16.0109 2.07934 14.4183C1.50975 12.8278 1.5 11.5122 1.5 10.2415C1.5 5.40107 5.32485 1.5 9.99133 1.5C14.659 1.5 18.5 5.40234 18.5 10.2415C18.5 11.5122 18.4903 12.8278 17.9207 14.4183C17.3503 16.0109 16.2033 17.9165 13.8652 20.3041L13.8639 20.3055L10 24.2825L6.13616 20.3055Z" fill="#BA4A82" stroke="#E26EA5"/>
<path d="M11.345 8.69018C10.3941 8.6924 9.48212 9.06762 8.805 9.73518C8.89755 9.92439 9.00106 10.108 9.115 10.2852C9.54696 10.867 9.80057 11.5619 9.845 12.2852C9.74414 13.3136 9.55171 14.331 9.27 15.3252C9.87488 15.76 10.6001 15.9959 11.345 16.0002C12.3144 16.0002 13.244 15.6151 13.9295 14.9297C14.6149 14.2442 15 13.3145 15 12.3452C15 11.3758 14.6149 10.4462 13.9295 9.76071C13.244 9.07526 12.3144 8.69018 11.345 8.69018V8.69018ZM11.565 11.1902C11.5575 11.1105 11.5668 11.0301 11.5922 10.9543C11.6176 10.8784 11.6585 10.8086 11.7124 10.7494C11.7663 10.6903 11.8319 10.643 11.9051 10.6107C11.9783 10.5783 12.0575 10.5616 12.1375 10.5616C12.2175 10.5616 12.2967 10.5783 12.3699 10.6107C12.4431 10.643 12.5087 10.6903 12.5626 10.7494C12.6165 10.8086 12.6574 10.8784 12.6828 10.9543C12.7082 11.0301 12.7175 11.1105 12.71 11.1902C12.7175 11.2699 12.7082 11.3502 12.6828 11.4261C12.6574 11.502 12.6165 11.5718 12.5626 11.6309C12.5087 11.6901 12.4431 11.7374 12.3699 11.7697C12.2967 11.802 12.2175 11.8187 12.1375 11.8187C12.0575 11.8187 11.9783 11.802 11.9051 11.7697C11.8319 11.7374 11.7663 11.6901 11.7124 11.6309C11.6585 11.5718 11.6176 11.502 11.5922 11.4261C11.5668 11.3502 11.5575 11.2699 11.565 11.1902V11.1902ZM12.525 13.3052C12.4097 13.3072 12.2964 13.2747 12.1996 13.212C12.1028 13.1492 12.0269 13.0591 11.9816 12.953C11.9363 12.8469 11.9237 12.7297 11.9453 12.6164C11.967 12.5031 12.0219 12.3989 12.1031 12.3169C12.1843 12.235 12.2881 12.1792 12.4012 12.1565C12.5143 12.1339 12.6316 12.1455 12.7381 12.1899C12.8446 12.2342 12.9354 12.3093 12.999 12.4056C13.0625 12.5018 13.096 12.6148 13.095 12.7302C13.0957 12.8057 13.0814 12.8806 13.0531 12.9506C13.0249 13.0206 12.9831 13.0844 12.9301 13.1382C12.8772 13.1921 12.8142 13.235 12.7447 13.2645C12.6752 13.294 12.6005 13.3095 12.525 13.3102V13.3052ZM13.685 12.1502C13.6097 12.1502 13.5352 12.1353 13.4657 12.1063C13.3962 12.0774 13.3332 12.0349 13.2802 11.9815C13.2272 11.928 13.1853 11.8646 13.1569 11.7948C13.1286 11.7251 13.1143 11.6505 13.115 11.5752C13.115 11.4612 13.1489 11.3499 13.2123 11.2552C13.2757 11.1606 13.3658 11.0869 13.4711 11.0435C13.5765 11.0001 13.6924 10.989 13.804 11.0116C13.9157 11.0342 14.0181 11.0895 14.0984 11.1704C14.1786 11.2513 14.2329 11.3542 14.2546 11.4661C14.2762 11.578 14.2641 11.6937 14.2198 11.7987C14.1755 11.9037 14.101 11.9931 14.0058 12.0557C13.9106 12.1183 13.7989 12.1512 13.685 12.1502ZM7.685 9.33018C7.685 10.4402 8.84 11.1802 8.84 12.2902C8.69152 13.4123 8.46768 14.5231 8.17 15.6152C8.14262 15.7261 8.07808 15.8243 7.9871 15.8935C7.89613 15.9626 7.78422 15.9985 7.67 15.9952H6.17C6.05578 15.9985 5.94387 15.9626 5.8529 15.8935C5.76192 15.8243 5.69738 15.7261 5.67 15.6152C5.37035 14.5253 5.14648 13.416 5 12.2952C5 11.1852 6.155 10.4452 6.155 9.33518C6.155 9.33518 6.155 9.02518 6.125 8.83518L5.795 7.33518C5.78735 7.25871 5.78735 7.18166 5.795 7.10518C5.8028 6.81025 5.92513 6.52995 6.13606 6.32368C6.347 6.11741 6.62997 6.00138 6.925 6.00018C7.22518 5.99482 7.51527 6.10861 7.73174 6.31665C7.94821 6.52469 8.07343 6.81002 8.08 7.11018C8.08 7.20494 8.06653 7.29921 8.04 7.39018L7.72 8.84018C7.7 9.02518 7.69 9.33518 7.69 9.33518L7.685 9.33018Z" fill="#D9D9D9"/>
</svg>
