<svg width="20" height="26" viewBox="0 0 20 26" fill="none" xmlns="http://www.w3.org/2000/svg">
<path d="M6.13616 20.3055L6.13478 20.3041C3.79676 17.9165 2.64973 16.0109 2.07934 14.4183C1.50975 12.8278 1.5 11.5122 1.5 10.2415C1.5 5.40107 5.32485 1.5 9.99133 1.5C14.659 1.5 18.5 5.40234 18.5 10.2415C18.5 11.5122 18.4903 12.8278 17.9207 14.4183C17.3503 16.0109 16.2033 17.9165 13.8652 20.3041L13.8639 20.3055L10 24.2825L6.13616 20.3055Z" fill="#5B72A4" stroke="#7F94C9"/>
<path d="M6.55 8.75H8.725L9.1 8H10.45L10.975 7.475L11.5 8H12.7L13.45 7.25L12.7 6.5H9.1L8.725 5.75H6.55C6.1 5.75 5.725 6.12499 5.725 6.57499V7.85C5.725 8.375 6.1 8.75 6.55 8.75ZM6.7 6.8H8.2V7.775H6.7V6.8ZM13.6 11.3L13.075 10.175C12.85 9.64999 12.325 9.35 11.8 9.35H7.6C7.075 9.35 6.55 9.64999 6.325 10.175L5.8 11.3H4.975C4.675 11.6 4.675 11.975 4.975 12.275H5.2V15.275C5.2 15.575 5.425 15.8 5.725 15.8H7.225C7.525 15.8 7.75 15.575 7.75 15.275V14.75H11.725V15.275C11.725 15.575 11.95 15.8 12.25 15.8H13.75C14.05 15.8 14.275 15.575 14.275 15.275V12.275H14.5C14.8 11.975 14.8 11.6 14.5 11.3H13.6ZM7.225 10.55C7.3 10.4 7.45 10.325 7.6 10.325H11.8C11.95 10.325 12.1 10.4 12.175 10.55L12.7 11.825H6.7L7.225 10.55ZM7.675 13.775H6.475C6.175 13.475 6.175 13.1 6.475 12.8H7.75V13.775H7.675ZM12.925 13.775H11.65V12.8H12.925C13.3 13.1 13.3 13.475 12.925 13.775Z" fill="#D9D9D9"/>
</svg>
