<svg width="20" height="26" viewBox="0 0 20 26" fill="none" xmlns="http://www.w3.org/2000/svg">
<path d="M6.13616 20.3055L6.13478 20.3041C3.79676 17.9165 2.64973 16.0109 2.07934 14.4183C1.50975 12.8278 1.5 11.5122 1.5 10.2415C1.5 5.40107 5.32485 1.5 9.99133 1.5C14.659 1.5 18.5 5.40234 18.5 10.2415C18.5 11.5122 18.4903 12.8278 17.9207 14.4183C17.3503 16.0109 16.2033 17.9165 13.8652 20.3041L13.8639 20.3055L10 24.2825L6.13616 20.3055Z" fill="#0686D0" stroke="#4FA9F7"/>
<path d="M13.8799 11.5L13.3799 10.35C13.2742 10.1009 13.0983 9.8879 12.8737 9.73698C12.6491 9.58606 12.3855 9.50372 12.1149 9.5H7.88491C7.61605 9.50564 7.35455 9.58887 7.13189 9.73968C6.90923 9.89048 6.73491 10.1024 6.62991 10.35L6.12991 11.5H5.24991C5.17403 11.5594 5.11267 11.6353 5.07048 11.7219C5.02828 11.8085 5.00635 11.9036 5.00635 12C5.00635 12.0964 5.02828 12.1915 5.07048 12.2781C5.11267 12.3647 5.17403 12.4406 5.24991 12.5H5.49991V15.5C5.49991 15.6326 5.55259 15.7598 5.64635 15.8536C5.74012 15.9473 5.8673 16 5.99991 16H7.49991C7.63252 16 7.75969 15.9473 7.85346 15.8536C7.94723 15.7598 7.99991 15.6326 7.99991 15.5V15H11.9999V15.5C11.9999 15.6326 12.0526 15.7598 12.1464 15.8536C12.2401 15.9473 12.3673 16 12.4999 16H13.9999C14.1325 16 14.2597 15.9473 14.3535 15.8536C14.4472 15.7598 14.4999 15.6326 14.4999 15.5V12.5H14.7499C14.8266 12.4412 14.8888 12.3655 14.9316 12.2788C14.9744 12.1921 14.9966 12.0967 14.9966 12C14.9966 11.9033 14.9744 11.8079 14.9316 11.7212C14.8888 11.6345 14.8266 11.5588 14.7499 11.5H13.8799ZM7.54491 10.755C7.57138 10.6845 7.61745 10.6231 7.67769 10.5779C7.73793 10.5327 7.80982 10.5057 7.88491 10.5H12.1149C12.19 10.5057 12.2619 10.5327 12.3221 10.5779C12.3824 10.6231 12.4284 10.6845 12.4549 10.755L12.9999 12H6.99991L7.54491 10.755ZM7.99991 14H6.74991C6.67229 13.9418 6.60928 13.8663 6.56589 13.7795C6.5225 13.6927 6.49991 13.597 6.49991 13.5C6.49991 13.403 6.5225 13.3073 6.56589 13.2205C6.60928 13.1337 6.67229 13.0582 6.74991 13H7.99991V14ZM13.2499 14H11.9999V13H13.2499C13.3275 13.0582 13.3905 13.1337 13.4339 13.2205C13.4773 13.3073 13.4999 13.403 13.4999 13.5C13.4999 13.597 13.4773 13.6927 13.4339 13.7795C13.3905 13.8663 13.3275 13.9418 13.2499 14ZM11.9999 8H13.4999V8.25C13.4999 8.38261 13.4472 8.50978 13.3535 8.60355C13.2597 8.69732 13.1325 8.75 12.9999 8.75H11.9999V8ZM11.4999 9H9.49991C9.23469 9 8.98034 8.89464 8.7928 8.70711C8.60526 8.51957 8.49991 8.26522 8.49991 8H6.49991C6.42229 7.94178 6.35928 7.86629 6.31589 7.77951C6.2725 7.69272 6.24991 7.59703 6.24991 7.5C6.24991 7.40297 6.2725 7.30728 6.31589 7.22049C6.35928 7.13371 6.42229 7.05822 6.49991 7H8.49991C8.49991 6.73478 8.60526 6.48043 8.7928 6.29289C8.98034 6.10536 9.23469 6 9.49991 6H11.4999V9ZM12.9999 6.255C13.1325 6.255 13.2597 6.30768 13.3535 6.40145C13.4472 6.49521 13.4999 6.62239 13.4999 6.755V7H11.9999V6.25L12.9999 6.255Z" fill="#D9D9D9"/>
</svg>
