<svg width="20" height="26" viewBox="0 0 20 26" fill="none" xmlns="http://www.w3.org/2000/svg">
<path d="M6.13616 20.3055L6.13478 20.3041C3.79676 17.9165 2.64973 16.0109 2.07934 14.4183C1.50975 12.8278 1.5 11.5122 1.5 10.2415C1.5 5.40107 5.32485 1.5 9.99133 1.5C14.659 1.5 18.5 5.40234 18.5 10.2415C18.5 11.5122 18.4903 12.8278 17.9207 14.4183C17.3503 16.0109 16.2033 17.9165 13.8652 20.3041L13.8639 20.3055L10 24.2825L6.13616 20.3055Z" fill="#BA4A82" stroke="#E26EA5"/>
<path d="M13.75 6.5H6.25C6.05109 6.5 5.86032 6.57902 5.71967 6.71967C5.57902 6.86032 5.5 7.05109 5.5 7.25V14.75C5.5 14.9489 5.57902 15.1397 5.71967 15.2803C5.86032 15.421 6.05109 15.5 6.25 15.5H13.75C13.9489 15.5 14.1397 15.421 14.2803 15.2803C14.421 15.1397 14.5 14.9489 14.5 14.75V7.25C14.5 7.05109 14.421 6.86032 14.2803 6.71967C14.1397 6.57902 13.9489 6.5 13.75 6.5ZM7.5 14.75C7.25277 14.75 7.0111 14.6767 6.80554 14.5393C6.59998 14.402 6.43976 14.2068 6.34515 13.9784C6.25054 13.7499 6.22579 13.4986 6.27402 13.2561C6.32225 13.0137 6.4413 12.7909 6.61612 12.6161C6.79093 12.4413 7.01366 12.3222 7.25614 12.274C7.49861 12.2258 7.74995 12.2505 7.97835 12.3451C8.20676 12.4398 8.40198 12.6 8.53934 12.8055C8.67669 13.0111 8.75 13.2528 8.75 13.5C8.75 13.8315 8.6183 14.1495 8.38388 14.3839C8.14946 14.6183 7.83152 14.75 7.5 14.75V14.75ZM10 12.25C9.75277 12.25 9.5111 12.1767 9.30554 12.0393C9.09997 11.902 8.93976 11.7068 8.84515 11.4784C8.75054 11.2499 8.72579 10.9986 8.77402 10.7561C8.82225 10.5137 8.9413 10.2909 9.11612 10.1161C9.29093 9.9413 9.51366 9.82225 9.75614 9.77402C9.99861 9.72579 10.2499 9.75054 10.4784 9.84515C10.7068 9.93976 10.902 10.1 11.0393 10.3055C11.1767 10.5111 11.25 10.7528 11.25 11C11.25 11.3315 11.1183 11.6495 10.8839 11.8839C10.6495 12.1183 10.3315 12.25 10 12.25V12.25ZM12.5 9.75C12.2528 9.75 12.0111 9.67669 11.8055 9.53934C11.6 9.40198 11.4398 9.20676 11.3451 8.97835C11.2505 8.74995 11.2258 8.49861 11.274 8.25614C11.3222 8.01366 11.4413 7.79093 11.6161 7.61612C11.7909 7.4413 12.0137 7.32225 12.2561 7.27402C12.4986 7.22579 12.7499 7.25054 12.9784 7.34515C13.2068 7.43976 13.402 7.59998 13.5393 7.80554C13.6767 8.0111 13.75 8.25277 13.75 8.5C13.75 8.83152 13.6183 9.14946 13.3839 9.38388C13.1495 9.6183 12.8315 9.75 12.5 9.75Z" fill="#D9D9D9"/>
</svg>
