<svg width="20" height="26" viewBox="0 0 20 26" fill="none" xmlns="http://www.w3.org/2000/svg">
<path d="M10 24.2825L6.13616 20.3055L6.13478 20.3041C3.79676 17.9165 2.64973 16.0109 2.07934 14.4183C1.50975 12.8278 1.5 11.5122 1.5 10.2415C1.5 5.40107 5.32485 1.5 9.99133 1.5C14.659 1.5 18.5 5.40234 18.5 10.2415C18.5 11.5122 18.4903 12.8278 17.9207 14.4183C17.3503 16.0109 16.2033 17.9165 13.8652 20.3041L13.8639 20.3055L10 24.2825Z" fill="#5B72A4" stroke="#7F94C9"/>
<path d="M10.7916 6.40625C9.33582 6.40625 8.03122 7.58044 8.03122 9.10615V10.25H6.99994V11.75H8.03122V12.5378C8.03122 13.0935 7.70394 13.5971 7.1961 13.8228L7.00841 13.9062H6.99997V13.9106C6.99674 13.9117 6.99334 13.913 6.99023 13.9143L6.99997 13.9106V13.9362V15.5937H13V13.9062H9.39964C9.60567 13.4887 9.71872 13.0222 9.71872 12.5378V11.75H11.6874V10.25H9.71872V8.975C9.71872 8.375 10.2251 7.835 10.7501 7.835C11.2376 7.835 11.5001 7.9625 11.6876 8.1875L12.6402 7.19703C12.1565 6.71325 11.5376 6.40625 10.7916 6.40625Z" fill="#D9D9D9"/>
</svg>
