<svg width="20" height="26" viewBox="0 0 20 26" fill="none" xmlns="http://www.w3.org/2000/svg">
<circle cx="10" cy="13" r="8.5" fill="#275CAA" stroke="#547DCF"/>
<path d="M13.755 13.195L13.5 10.195C13.478 10.0045 13.3871 9.8286 13.2443 9.70056C13.1015 9.57252 12.9168 9.50118 12.725 9.5H10.5V8H9.50003V9.5H7.27503C7.08478 9.50087 6.90131 9.57081 6.75876 9.69681C6.61621 9.82281 6.52426 9.99629 6.50003 10.185L6.24503 13.185L10 12L13.755 13.195ZM10 13.34L5.03003 14.92L6.30503 17.92C6.49435 17.5934 6.76783 17.3236 7.09694 17.1387C7.42605 16.9538 7.79874 16.8605 8.17616 16.8687C8.55357 16.8769 8.92188 16.9862 9.24268 17.1851C9.56347 17.3841 9.82502 17.6655 10 18C10.1732 17.6645 10.4332 17.3815 10.753 17.1807C11.0727 16.9799 11.4405 16.8686 11.818 16.8584C12.1954 16.8482 12.5687 16.9395 12.8989 17.1227C13.229 17.3059 13.504 17.5743 13.695 17.9L14.97 14.9L10 13.34Z" fill="#D9D9D9"/>
</svg>
