<svg width="20" height="26" viewBox="0 0 20 26" fill="none" xmlns="http://www.w3.org/2000/svg">
<path d="M6.13616 20.3055L6.13478 20.3041C3.79676 17.9165 2.64973 16.0109 2.07934 14.4183C1.50975 12.8278 1.5 11.5122 1.5 10.2415C1.5 5.40107 5.32485 1.5 9.99133 1.5C14.659 1.5 18.5 5.40234 18.5 10.2415C18.5 11.5122 18.4903 12.8278 17.9207 14.4183C17.3503 16.0109 16.2033 17.9165 13.8652 20.3041L13.8639 20.3055L10 24.2825L6.13616 20.3055Z" fill="#1B8862" stroke="#48AD84"/>
<path d="M14.86 10.5009L14.155 9.80094L15.04 8.91594L14 7.85594L14.5 7.32594L13.8 6.61594L13.27 7.15094L12.21 6.08594L11.325 6.97094L10.62 6.26594C10.5735 6.21907 10.5182 6.18188 10.4573 6.15649C10.3964 6.13111 10.331 6.11804 10.265 6.11804C10.199 6.11804 10.1337 6.13111 10.0727 6.15649C10.0118 6.18188 9.9565 6.21907 9.91001 6.26594L9.03001 7.15094C8.93689 7.24462 8.88462 7.37134 8.88462 7.50344C8.88462 7.63553 8.93689 7.76226 9.03001 7.85594L10.795 9.62094L8.50001 11.9209L6.73001 10.1559C6.68353 10.1091 6.62823 10.0719 6.5673 10.0465C6.50637 10.0211 6.44102 10.008 6.37501 10.008C6.30901 10.008 6.24366 10.0211 6.18273 10.0465C6.1218 10.0719 6.0665 10.1091 6.02001 10.1559L5.31501 10.8609C5.22189 10.9546 5.16962 11.0813 5.16962 11.2134C5.16962 11.3455 5.22189 11.4723 5.31501 11.5659L6.00001 12.2759L5.14001 13.1609L6.20001 14.2209L5.50001 14.9259L6.20001 15.6359L6.90501 14.9259L7.96501 16.0009L8.85001 15.1059L9.56001 15.8109C9.6537 15.9041 9.78042 15.9563 9.91251 15.9563C10.0446 15.9563 10.1713 15.9041 10.265 15.8109L10.97 15.1059C11.0169 15.0595 11.0541 15.0042 11.0795 14.9432C11.1048 14.8823 11.1179 14.8169 11.1179 14.7509C11.1179 14.6849 11.1048 14.6196 11.0795 14.5586C11.0541 14.4977 11.0169 14.4424 10.97 14.3959L9.20501 12.6309L11.505 10.3309L13.27 12.0959C13.3637 12.1891 13.4904 12.2413 13.6225 12.2413C13.7546 12.2413 13.8813 12.1891 13.975 12.0959L14.86 11.2159C14.9076 11.1694 14.9455 11.1138 14.9713 11.0524C14.9971 10.991 15.0105 10.925 15.0105 10.8584C15.0105 10.7918 14.9971 10.7259 14.9713 10.6645C14.9455 10.6031 14.9076 10.5475 14.86 10.5009Z" fill="#D9D9D9"/>
</svg>
