<svg width="20" height="26" viewBox="0 0 20 26" fill="none" xmlns="http://www.w3.org/2000/svg">
<path d="M6.13616 20.3055L6.13478 20.3041C3.79676 17.9165 2.64973 16.0109 2.07934 14.4183C1.50975 12.8278 1.5 11.5122 1.5 10.2415C1.5 5.40107 5.32485 1.5 9.99133 1.5C14.659 1.5 18.5 5.40234 18.5 10.2415C18.5 11.5122 18.4903 12.8278 17.9207 14.4183C17.3503 16.0109 16.2033 17.9165 13.8652 20.3041L13.8639 20.3055L10 24.2825L6.13616 20.3055Z" fill="#BA4A82" stroke="#E26EA5"/>
<path d="M7 15H6V14H7V15ZM6 15H5V16H6V15ZM14 14H13V15H14V14ZM15 15H14V16H15V15ZM15 10.5V12H13V14H12V12H10.5V13H11V15H9V13H9.5V12H8V14H7V12H5V10.5H6V9H7V7.5H8V6H12V7.5H13V9H14V10.5H15ZM9 10.5V9H7.5V10.5H9ZM12.5 9H11V10.5H12.5V9Z" fill="#D9D9D9"/>
</svg>
