<svg width="20" height="26" viewBox="0 0 20 26" fill="none" xmlns="http://www.w3.org/2000/svg">
<path d="M10 24.2825L6.13616 20.3055L6.13478 20.3041C3.79676 17.9165 2.64973 16.0109 2.07934 14.4183C1.50975 12.8278 1.5 11.5122 1.5 10.2415C1.5 5.40107 5.32485 1.5 9.99133 1.5C14.659 1.5 18.5 5.40234 18.5 10.2415C18.5 11.5122 18.4903 12.8278 17.9207 14.4183C17.3503 16.0109 16.2033 17.9165 13.8652 20.3041L13.8639 20.3055L10 24.2825Z" fill="#875147" stroke="#AC7267"/>
<path fill-rule="evenodd" clip-rule="evenodd" d="M6.60137 7.35237L7.37493 5.75L6.77811 6.21894C4.30319 8.16353 4.08376 11.8338 6.30938 14.0594L6.99996 14.75L7.74993 13.625L9.23057 14.5134L8.12499 15.125L8.49999 15.875L9.62489 15.2001V16.3053H10.3749V15.2L11.5 15.875L11.875 15.125L10.7688 14.5137L12.25 13.625L13 14.75L13.6351 14.1138C15.7406 12.0048 15.6704 8.5682 13.4806 6.54689L12.6173 5.75001L13.3917 7.3541C14.43 9.50481 13.6074 12.092 11.5176 13.2481L10.3749 13.8803V13.125L11.125 12.875C11.0325 12.69 10.909 12.3855 10.789 12.0044C11.8532 11.6694 12.625 10.6748 12.625 9.5C12.625 8.33381 11.8645 7.34524 10.8124 7.00314C10.9394 6.59841 11.061 6.2851 11.125 6.12497L9.99993 5.75L8.875 6.12498C8.93905 6.2851 9.06064 6.59841 9.18757 7.00314C8.13547 7.34524 7.375 8.33381 7.375 9.5C7.375 10.6748 8.14679 11.6694 9.21101 12.0044C9.09096 12.3855 8.96746 12.69 8.875 12.875L9.62489 13.125V13.8815L8.47728 13.2473C6.38633 12.0918 5.56276 9.50378 6.60137 7.35237ZM10.592 11.2796C11.3374 11.0318 11.875 10.3287 11.875 9.5C11.875 8.67836 11.3465 7.98016 10.6109 7.72678C10.4785 8.27344 10.375 8.89393 10.375 9.49999C10.375 10.1185 10.4669 10.7361 10.592 11.2796ZM9.38908 7.72678C9.51901 8.26322 9.62112 8.87076 9.62489 9.466V9.5368C9.62134 10.143 9.5306 10.7469 9.408 11.2796C8.66257 11.0318 8.125 10.3287 8.125 9.5C8.125 8.67836 8.65349 7.98016 9.38908 7.72678Z" fill="#D9D9D9"/>
</svg>
