<svg width="20" height="26" viewBox="0 0 20 26" fill="none" xmlns="http://www.w3.org/2000/svg">
<path d="M6.13616 20.3055L6.13478 20.3041C3.79676 17.9165 2.64973 16.0109 2.07934 14.4183C1.50975 12.8278 1.5 11.5122 1.5 10.2415C1.5 5.40107 5.32485 1.5 9.99133 1.5C14.659 1.5 18.5 5.40234 18.5 10.2415C18.5 11.5122 18.4903 12.8278 17.9207 14.4183C17.3503 16.0109 16.2033 17.9165 13.8652 20.3041L13.8639 20.3055L10 24.2825L6.13616 20.3055Z" fill="#6246A4" stroke="#8767C9"/>
<path d="M14 12H10.5V10H13C13.2652 10 13.5196 10.1054 13.7071 10.2929C13.8946 10.4804 14 10.7348 14 11V12ZM7.5 12V11C7.5 10.7348 7.60536 10.4804 7.79289 10.2929C7.98043 10.1054 8.23478 10 8.5 10C8.76522 10 9.01957 10.1054 9.20711 10.2929C9.39464 10.4804 9.5 10.7348 9.5 11V12H7.5ZM14.5 13.375C14.4987 13.2759 14.4588 13.1813 14.3887 13.1113C14.3187 13.0412 14.2241 13.0013 14.125 13H6.5V10H5.5V16H6.5V15H13.5V16H14.5V13.375ZM15 9.21L10 7.42L5 9.21V7.78L10 6L15 7.78V9.21Z" fill="#D9D9D9"/>
</svg>
