<svg width="20" height="26" viewBox="0 0 20 26" fill="none" xmlns="http://www.w3.org/2000/svg">
<circle cx="10" cy="13" r="8.5" fill="#275CAA" stroke="#547DCF"/>
<path d="M13.95 13.155L13.5 9.41C13.4771 9.02798 13.309 8.66918 13.0301 8.40706C12.7512 8.14494 12.3827 7.99931 12 8H8.00004C7.61733 7.99931 7.24882 8.14494 6.96997 8.40706C6.69111 8.66918 6.523 9.02798 6.50004 9.41L6.05004 13.155C6.00884 13.5469 6.06199 13.9429 6.20504 14.31L6.97004 16.05C7.04784 16.2531 7.18465 16.4284 7.36286 16.5531C7.54107 16.6779 7.75253 16.7464 7.97004 16.75L8.28004 15.25C8.33635 15.0317 8.46478 14.8388 8.64449 14.7027C8.82419 14.5665 9.04463 14.4951 9.27004 14.5H10.73C10.9542 14.4991 11.1722 14.5735 11.349 14.7113C11.5259 14.8491 11.6512 15.0424 11.705 15.26L11.985 16.76C12.2025 16.7564 12.414 16.6879 12.5922 16.5631C12.7704 16.4384 12.9072 16.2631 12.985 16.06L13.775 14.32C13.9265 13.9515 13.9865 13.5518 13.95 13.155ZM7.95004 9H12.06C12.2091 9.00331 12.3515 9.06198 12.4597 9.16458C12.5678 9.26717 12.6339 9.40635 12.645 9.555C12.645 9.555 12.695 10.66 12.725 11.5H7.26004C7.29504 10.66 7.36004 9.555 7.36004 9.555C7.37127 9.40551 7.43805 9.26563 7.54725 9.16292C7.65644 9.0602 7.80014 9.00208 7.95004 9V9ZM8.50004 13.75H7.50004C7.44271 13.7501 7.38598 13.7385 7.33332 13.7158C7.28066 13.6932 7.2332 13.66 7.19385 13.6183C7.15451 13.5766 7.12411 13.5273 7.10454 13.4734C7.08496 13.4195 7.07662 13.3622 7.08004 13.305L7.10504 12.895C7.11149 12.7862 7.15994 12.6843 7.24017 12.6106C7.3204 12.5369 7.42613 12.4972 7.53504 12.5H8.50004V13.75ZM12.5 13.75H11.5V12.5H12.465C12.5722 12.4998 12.6754 12.5406 12.7535 12.6141C12.8316 12.6875 12.8787 12.788 12.885 12.895L12.91 13.305C12.9134 13.3614 12.9054 13.4179 12.8864 13.4711C12.8675 13.5243 12.8379 13.5731 12.7997 13.6147C12.7614 13.6562 12.7151 13.6896 12.6636 13.7129C12.6122 13.7361 12.5565 13.7488 12.5 13.75ZM10.855 15.88L11.235 18H8.73504L9.12504 15.885C9.15241 15.7741 9.21696 15.6758 9.30793 15.6067C9.39891 15.5376 9.51082 15.5017 9.62504 15.505H10.34C10.4544 15.5002 10.567 15.5349 10.6589 15.6031C10.7508 15.6714 10.8165 15.7691 10.845 15.88H10.855Z" fill="#D9D9D9"/>
</svg>
