<svg width="20" height="26" viewBox="0 0 20 26" fill="none" xmlns="http://www.w3.org/2000/svg">
<path d="M10 24.2825L6.13616 20.3055L6.13478 20.3041C3.79676 17.9165 2.64973 16.0109 2.07934 14.4183C1.50975 12.8278 1.5 11.5122 1.5 10.2415C1.5 5.40107 5.32485 1.5 9.99133 1.5C14.659 1.5 18.5 5.40234 18.5 10.2415C18.5 11.5122 18.4903 12.8278 17.9207 14.4183C17.3503 16.0109 16.2033 17.9165 13.8652 20.3041L13.8639 20.3055L10 24.2825Z" fill="#875147" stroke="#AC7267"/>
<path d="M13.75 7.25C13.75 7.25 13 8 12.25 8V8.75H7.75V8C7 8 6.25 7.25 6.25 7.25C6.25 7.25 8.5 7.25 10 5.75C11.5 7.25 13.75 7.25 13.75 7.25Z" fill="#D9D9D9"/>
<path d="M14.5 10.25C14.5 10.25 13.75 11 13 11V11.75H7V11C6.25 11 5.5 10.25 5.5 10.25C5.5 10.25 7.375 10.25 7.75 9.5L12.25 9.5C12.625 10.25 14.5 10.25 14.5 10.25Z" fill="#D9D9D9"/>
<path fill-rule="evenodd" clip-rule="evenodd" d="M4.75 13.25C4.75 13.25 5.48856 14.4237 6.25 14.75V16.25L13.75 16.2501V14.75C14.5114 14.4237 15.25 13.25 15.25 13.25C15.25 13.25 13.75 13.25 13 12.5H7C6.25002 13.25 4.75 13.25 4.75 13.25ZM10 13.625C10.6213 13.625 11.125 14.1287 11.125 14.75V16.25H8.875V14.75C8.875 14.1287 9.37868 13.625 10 13.625Z" fill="#D9D9D9"/>
</svg>
