<svg width="20" height="26" viewBox="0 0 20 26" fill="none" xmlns="http://www.w3.org/2000/svg">
<path d="M6.13616 20.3055L6.13478 20.3041C3.79676 17.9165 2.64973 16.0109 2.07934 14.4183C1.50975 12.8278 1.5 11.5122 1.5 10.2415C1.5 5.40107 5.32485 1.5 9.99133 1.5C14.659 1.5 18.5 5.40234 18.5 10.2415C18.5 11.5122 18.4903 12.8278 17.9207 14.4183C17.3503 16.0109 16.2033 17.9165 13.8652 20.3041L13.8639 20.3055L10 24.2825L6.13616 20.3055Z" fill="#BF173E" stroke="#E9475E"/>
<path d="M13.8901 7.81937L13.1801 7.10938L10.0001 10.2944L6.82011 7.10938L6.11011 7.81937L9.29511 10.9994L6.11011 14.1794L6.82011 14.8894L10.0001 11.7044L13.1801 14.8894L13.8901 14.1794L10.7051 10.9994L13.8901 7.81937Z" fill="#D9D9D9"/>
</svg>
