<svg width="20" height="26" viewBox="0 0 20 26" fill="none" xmlns="http://www.w3.org/2000/svg">
<path d="M6.13616 20.3055L6.13478 20.3041C3.79676 17.9165 2.64973 16.0109 2.07934 14.4183C1.50975 12.8278 1.5 11.5122 1.5 10.2415C1.5 5.40107 5.32485 1.5 9.99133 1.5C14.659 1.5 18.5 5.40234 18.5 10.2415C18.5 11.5122 18.4903 12.8278 17.9207 14.4183C17.3503 16.0109 16.2033 17.9165 13.8652 20.3041L13.8639 20.3055L10 24.2825L6.13616 20.3055Z" fill="#875147" stroke="#AC7267"/>
<path d="M14.5 12.5H14.1L14.255 16H13.255L13 12.5H12.5L12.25 16H11.25L11.395 12.5H11V9.25C11 8.75 11.28 8.5 11.66 8.5H13.845C14.22 8.5 14.5 8.75 14.5 9.25V12.5ZM9 9.25C9 9.05109 8.92098 8.86032 8.78033 8.71967C8.63968 8.57902 8.44891 8.5 8.25 8.5C7.86 8.5 7.785 8.75 7.25 8.75C6.715 8.75 6.625 8.5 6.25 8.5C6.05109 8.5 5.86032 8.57902 5.71967 8.71967C5.57902 8.86032 5.5 9.05109 5.5 9.25V9.75L6.5 10.25L5 14.5H6.5L6.75 16H7.75L8 14.5H9.5L8 10.25L9 9.75V9.25ZM12.5 8H13C13.1326 8 13.2598 7.94732 13.3536 7.85355C13.4473 7.75978 13.5 7.63261 13.5 7.5V6.5C13.5 6.36739 13.4473 6.24021 13.3536 6.14645C13.2598 6.05268 13.1326 6 13 6H12.5C12.3674 6 12.2402 6.05268 12.1464 6.14645C12.0527 6.24021 12 6.36739 12 6.5V7.5C12 7.63261 12.0527 7.75978 12.1464 7.85355C12.2402 7.94732 12.3674 8 12.5 8ZM7 8H7.5C7.63261 8 7.75978 7.94732 7.85355 7.85355C7.94732 7.75978 8 7.63261 8 7.5V6.5C8 6.36739 7.94732 6.24021 7.85355 6.14645C7.75978 6.05268 7.63261 6 7.5 6H7C6.86739 6 6.74021 6.05268 6.64645 6.14645C6.55268 6.24021 6.5 6.36739 6.5 6.5V7.5C6.5 7.63261 6.55268 7.75978 6.64645 7.85355C6.74021 7.94732 6.86739 8 7 8Z" fill="#D9D9D9"/>
</svg>
