<svg width="20" height="26" viewBox="0 0 20 26" fill="none" xmlns="http://www.w3.org/2000/svg">
<circle cx="10" cy="13" r="8.5" fill="#275CAA" stroke="#547DCF"/>
<path d="M12 15.5H13.25V13.025C13.2486 12.6827 13.2302 12.3406 13.195 12L12.89 9.36502C12.8564 8.99276 12.6849 8.64647 12.4093 8.39398C12.1337 8.14149 11.7738 8.001 11.4 8.00002H8.6C8.22763 7.99803 7.86783 8.13461 7.59058 8.38321C7.31334 8.63181 7.13847 8.97464 7.1 9.34502L6.805 12C6.76909 12.3472 6.75073 12.696 6.75 13.045V15.5H8L5.5 18H7L9.25 15.5H10.75L13.5 18H15L12 15.5ZM8.13 9.68002C8.16 9.36002 8.43 9.00002 8.75 9.00002H11.25C11.57 9.00002 11.84 9.36502 11.87 9.68502L12.175 12.075C12.175 12.215 12.205 12.36 12.21 12.505H7.79C7.79 12.36 7.79 12.215 7.825 12.075L8.13 9.68002ZM10 14.75C9.85166 14.75 9.70666 14.706 9.58332 14.6236C9.45998 14.5412 9.36386 14.4241 9.30709 14.287C9.25032 14.15 9.23547 13.9992 9.26441 13.8537C9.29335 13.7082 9.36478 13.5746 9.46967 13.4697C9.57456 13.3648 9.7082 13.2934 9.85368 13.2644C9.99917 13.2355 10.15 13.2503 10.287 13.3071C10.4241 13.3639 10.5412 13.46 10.6236 13.5833C10.706 13.7067 10.75 13.8517 10.75 14C10.75 14.1989 10.671 14.3897 10.5303 14.5304C10.3897 14.671 10.1989 14.75 10 14.75V14.75Z" fill="#D9D9D9"/>
</svg>
