<svg width="20" height="26" viewBox="0 0 20 26" fill="none" xmlns="http://www.w3.org/2000/svg">
<path d="M6.13616 20.3055L6.13478 20.3041C3.79676 17.9165 2.64973 16.0109 2.07934 14.4183C1.50975 12.8278 1.5 11.5122 1.5 10.2415C1.5 5.40107 5.32485 1.5 9.99133 1.5C14.659 1.5 18.5 5.40234 18.5 10.2415C18.5 11.5122 18.4903 12.8278 17.9207 14.4183C17.3503 16.0109 16.2033 17.9165 13.8652 20.3041L13.8639 20.3055L10 24.2825L6.13616 20.3055Z" fill="#BA6517" stroke="#E3883B"/>
<path d="M14 6V16H12.5V12H11.5V9.5C11.5 7 14 6 14 6ZM9 6V8.5H8.25V6H7.25V8.5H6.5V6H5.5V8.655C5.50012 9.03809 5.64682 9.40662 5.91 9.685L6.85 10.5C6.89908 10.5481 6.93772 10.6057 6.96353 10.6694C6.98934 10.733 7.00175 10.8013 7 10.87V16H8.5V10.87C8.49889 10.801 8.51209 10.7325 8.53877 10.6688C8.56544 10.6051 8.60502 10.5476 8.655 10.5L9.56 9.725C9.84138 9.44396 9.99965 9.06269 10 8.665V6H9Z" fill="#D9D9D9"/>
</svg>
