<svg width="19" height="14" viewBox="0 0 19 14" fill="none" xmlns="http://www.w3.org/2000/svg">
<rect width="19" height="14" rx="2" fill="#38584C"/>
<path d="M9.33646 5.42202C9.33646 4.51202 9.02646 3.81502 8.41746 3.34902C7.82546 2.89602 6.98546 2.66602 5.92046 2.66602H3.54846V11.334H5.08846V8.29802H5.93246C6.94046 8.29802 7.76446 8.06202 8.38046 7.59802C9.01546 7.12002 9.33646 6.38802 9.33646 5.42202ZM5.08846 3.95402H5.90846C6.50846 3.95402 6.97046 4.07402 7.28146 4.31002C7.57946 4.53702 7.72446 4.90702 7.72446 5.44002C7.72446 6.03602 7.57646 6.44802 7.28446 6.66502C6.97246 6.89402 6.50146 7.01002 5.88446 7.01002H5.08846V3.95402Z" fill="#EBEBEB"/>
<path d="M13.6834 2.66602H11.9524L9.17139 11.334H10.7464L11.3704 9.25802H14.2054L14.8294 11.334H16.4514L13.7274 2.80502L13.6834 2.66602ZM13.8084 7.93402H11.7654L12.7914 4.51302L13.8084 7.93402Z" fill="#EBEBEB"/>
</svg>
