<svg width="19" height="13" viewBox="0 0 19 13" fill="none" xmlns="http://www.w3.org/2000/svg">
<ellipse cx="9.5" cy="6.5" rx="9.5" ry="6.5" fill="#93A7B8" fill-opacity="0.85"/>
<path d="M18.325 6.5C18.325 8.00717 17.4327 9.4469 15.8364 10.5391C14.2433 11.6291 12.0051 12.325 9.5 12.325C6.99491 12.325 4.75672 11.6291 3.16365 10.5391C1.56734 9.4469 0.675 8.00717 0.675 6.5C0.675 4.99283 1.56734 3.5531 3.16365 2.46089C4.75672 1.37089 6.99491 0.675 9.5 0.675C12.0051 0.675 14.2433 1.37089 15.8364 2.46089C17.4327 3.5531 18.325 4.99283 18.325 6.5Z" stroke="#969BA1" stroke-opacity="0.03" stroke-width="1.35"/>
<path d="M18.225 6.5C18.225 7.96453 17.358 9.37683 15.7799 10.4566C14.2055 11.5338 11.9876 12.225 9.5 12.225C7.01243 12.225 4.7945 11.5338 3.22012 10.4566C1.64201 9.37683 0.775 7.96453 0.775 6.5C0.775 5.03547 1.64201 3.62317 3.22012 2.54342C4.7945 1.46621 7.01243 0.775 9.5 0.775C11.9876 0.775 14.2055 1.46621 15.7799 2.54342C17.358 3.62317 18.225 5.03547 18.225 6.5Z" stroke="#969BA1" stroke-opacity="0.03" stroke-width="1.55"/>
<path d="M18.025 6.5C18.025 7.87927 17.2086 9.23667 15.6669 10.2915C14.1299 11.3432 11.9525 12.025 9.5 12.025C7.04747 12.025 4.87008 11.3432 3.33305 10.2915C1.79135 9.23667 0.975 7.87927 0.975 6.5C0.975 5.12073 1.79135 3.76333 3.33305 2.70848C4.87008 1.65683 7.04747 0.975 9.5 0.975C11.9525 0.975 14.1299 1.65683 15.6669 2.70848C17.2086 3.76333 18.025 5.12073 18.025 6.5Z" stroke="#969BA1" stroke-opacity="0.03" stroke-width="1.95"/>
<path d="M17.825 6.5C17.825 7.79401 17.0593 9.09652 15.554 10.1265C14.0543 11.1525 11.9175 11.825 9.5 11.825C7.08251 11.825 4.94565 11.1525 3.44599 10.1265C1.94069 9.09652 1.175 7.79401 1.175 6.5C1.175 5.20599 1.94069 3.90348 3.44599 2.87354C4.94565 1.84746 7.08251 1.175 9.5 1.175C11.9175 1.175 14.0543 1.84746 15.554 2.87354C17.0593 3.90348 17.825 5.20599 17.825 6.5Z" stroke="#969BA1" stroke-opacity="0.03" stroke-width="2.35"/>
<path d="M17.625 6.5C17.625 7.70875 16.91 8.95636 15.4411 9.9614C13.9788 10.9619 11.8825 11.625 9.5 11.625C7.11755 11.625 5.02123 10.9619 3.55893 9.9614C2.09003 8.95636 1.375 7.70875 1.375 6.5C1.375 5.29125 2.09003 4.04364 3.55893 3.0386C5.02123 2.03808 7.11755 1.375 9.5 1.375C11.8825 1.375 13.9788 2.03808 15.4411 3.0386C16.91 4.04364 17.625 5.29125 17.625 6.5Z" stroke="#969BA1" stroke-opacity="0.03" stroke-width="2.75"/>
<path d="M18.625 6.5C18.625 8.13506 17.6567 9.65714 16.0058 10.7867C14.3566 11.915 12.0577 12.625 9.5 12.625C6.94235 12.625 4.64335 11.915 2.99424 10.7867C1.34333 9.65714 0.375 8.13506 0.375 6.5C0.375 4.86494 1.34333 3.34286 2.99424 2.2133C4.64335 1.08496 6.94235 0.375 9.5 0.375C12.0577 0.375 14.3566 1.08496 16.0058 2.2133C17.6567 3.34286 18.625 4.86494 18.625 6.5Z" stroke="#C5CDD4" stroke-width="0.75"/>
</svg>
