<svg width="20" height="26" viewBox="0 0 20 26" fill="none" xmlns="http://www.w3.org/2000/svg">
<path d="M6.13616 20.3055L6.13478 20.3041C3.79676 17.9165 2.64973 16.0109 2.07934 14.4183C1.50975 12.8278 1.5 11.5122 1.5 10.2415C1.5 5.40107 5.32485 1.5 9.99133 1.5C14.659 1.5 18.5 5.40234 18.5 10.2415C18.5 11.5122 18.4903 12.8278 17.9207 14.4183C17.3503 16.0109 16.2033 17.9165 13.8652 20.3041L13.8639 20.3055L10 24.2825L6.13616 20.3055Z" fill="#1B8862" stroke="#48AD84"/>
<path d="M14.1849 8.04574L14.6849 7.17574C14.7485 7.0614 14.7648 6.92668 14.7302 6.80048C14.6956 6.67428 14.6129 6.56667 14.4999 6.50075L14.0649 6.25075C13.9501 6.18556 13.8141 6.16843 13.6867 6.20308C13.5594 6.23774 13.4508 6.32138 13.3849 6.43575L12.6349 7.73574L13.0699 7.98074L13.4999 8.23074C13.5569 8.2638 13.62 8.28525 13.6854 8.29384C13.7508 8.30243 13.8172 8.298 13.8809 8.28081C13.9446 8.26361 14.0042 8.23399 14.0564 8.19365C14.1085 8.1533 14.1522 8.10304 14.1849 8.04574V8.04574ZM13.6849 14.9607C13.2599 15.2007 13.0699 15.1857 12.7899 15.0207L9.74988 13.2857L11.4999 12.2607L10.9999 10.5557L8.84988 9.31574L9.96488 11.3907L8.66488 12.6657L5.84488 11.0507L5.25488 11.5757L12.4099 15.6657C12.6327 15.795 12.8914 15.8487 13.1473 15.819C13.4032 15.7893 13.6426 15.6776 13.8299 15.5007L13.6849 14.9607ZM14.2449 10.9607L12.9449 10.2157L12.8999 8.75574L11.2149 7.79074C11.1389 7.74686 11.0527 7.72376 10.9649 7.72376C10.8771 7.72376 10.7909 7.74686 10.7149 7.79074L9.90488 8.50074L7.29988 7.00075L6.92988 7.65075L13.8749 11.6207L14.2449 10.9607Z" fill="#D9D9D9"/>
</svg>
