<svg width="20" height="26" viewBox="0 0 20 26" fill="none" xmlns="http://www.w3.org/2000/svg">
<path d="M10 24.2825L6.13616 20.3055L6.13478 20.3041C3.79676 17.9165 2.64973 16.0109 2.07934 14.4183C1.50975 12.8278 1.5 11.5122 1.5 10.2415C1.5 5.40107 5.32485 1.5 9.99133 1.5C14.659 1.5 18.5 5.40234 18.5 10.2415C18.5 11.5122 18.4903 12.8278 17.9207 14.4183C17.3503 16.0109 16.2033 17.9165 13.8652 20.3041L13.8639 20.3055L10 24.2825Z" fill="#875147" stroke="#AC7267"/>
<path fill-rule="evenodd" clip-rule="evenodd" d="M11.6379 8.28176L9.99999 5.60156L8.3621 8.28176L5.03923 8.28176L6.70066 11.0005L5.03918 13.7192H8.36214L10 16.3994L11.6379 13.7192H14.9608L13.2994 11.0005L14.9608 8.28176L11.6379 8.28176ZM10.5392 8.28176L9.99999 7.39943L9.46079 8.28176H10.5392ZM8.88788 9.21926H11.1121L12.2007 11.0005L11.1121 12.7817H8.88792L7.79936 11.0005L8.88788 9.21926ZM7.78918 9.21926H6.71084L7.25001 10.1015L7.78918 9.21926ZM7.25001 11.8994L6.7108 12.7817H7.78922L7.25001 11.8994ZM9.46084 13.7192L10 14.6016L10.5392 13.7192H9.46084ZM12.2108 12.7817H13.2892L12.75 11.8995L12.2108 12.7817ZM12.75 10.1016L12.2108 9.21926H13.2892L12.75 10.1016Z" fill="#D9D9D9"/>
</svg>
