<svg width="20" height="26" viewBox="0 0 20 26" fill="none" xmlns="http://www.w3.org/2000/svg">
<path d="M6.13616 20.3055L6.13478 20.3041C3.79676 17.9165 2.64973 16.0109 2.07934 14.4183C1.50975 12.8278 1.5 11.5122 1.5 10.2415C1.5 5.40107 5.32485 1.5 9.99133 1.5C14.659 1.5 18.5 5.40234 18.5 10.2415C18.5 11.5122 18.4903 12.8278 17.9207 14.4183C17.3503 16.0109 16.2033 17.9165 13.8652 20.3041L13.8639 20.3055L10 24.2825L6.13616 20.3055Z" fill="#BA4A82" stroke="#E26EA5"/>
<path d="M5.5 6V11.72C5.5 12.9135 5.97411 14.0581 6.81802 14.902C7.66193 15.7459 8.80653 16.22 10 16.22C11.1935 16.22 12.3381 15.7459 13.182 14.902C14.0259 14.0581 14.5 12.9135 14.5 11.72V6H5.5ZM7 9.375C7 9.04348 7.1317 8.72554 7.36612 8.49112C7.60054 8.2567 7.91848 8.125 8.25 8.125C8.58152 8.125 8.89946 8.2567 9.13388 8.49112C9.3683 8.72554 9.5 9.04348 9.5 9.375C9.5 10.065 8.94 10 8.25 10C7.56 10 7 10.065 7 9.375ZM12.34 12.875C12.161 13.351 11.8411 13.761 11.423 14.0505C11.0049 14.3399 10.5085 14.495 10 14.495C9.49149 14.495 8.99507 14.3399 8.57697 14.0505C8.15888 13.761 7.839 13.351 7.66 12.875C7.629 12.7917 7.62077 12.7016 7.63616 12.6141C7.65155 12.5265 7.69001 12.4446 7.74757 12.3769C7.80513 12.3091 7.87971 12.258 7.96363 12.2286C8.04755 12.1993 8.13777 12.1929 8.225 12.21C9.39988 12.41 10.6001 12.41 11.775 12.21C11.864 12.1913 11.9564 12.1972 12.0423 12.2272C12.1282 12.2571 12.2042 12.3098 12.2624 12.3798C12.3205 12.4497 12.3584 12.5342 12.3721 12.6241C12.3858 12.714 12.3747 12.8059 12.34 12.89V12.875ZM11.75 10C11.06 10 10.5 10.065 10.5 9.375C10.5 9.04348 10.6317 8.72554 10.8661 8.49112C11.1005 8.2567 11.4185 8.125 11.75 8.125C12.0815 8.125 12.3995 8.2567 12.6339 8.49112C12.8683 8.72554 13 9.04348 13 9.375C13 10.065 12.44 10 11.75 10Z" fill="#D9D9D9"/>
</svg>
