<svg width="20" height="26" viewBox="0 0 20 26" fill="none" xmlns="http://www.w3.org/2000/svg">
<path d="M6.13616 20.3055L6.13478 20.3041C3.79676 17.9165 2.64973 16.0109 2.07934 14.4183C1.50975 12.8278 1.5 11.5122 1.5 10.2415C1.5 5.40107 5.32485 1.5 9.99133 1.5C14.659 1.5 18.5 5.40234 18.5 10.2415C18.5 11.5122 18.4903 12.8278 17.9207 14.4183C17.3503 16.0109 16.2033 17.9165 13.8652 20.3041L13.8639 20.3055L10 24.2825L6.13616 20.3055Z" fill="#5B72A4" stroke="#7F94C9"/>
<path d="M11 14.0004V9.50039H7.5V11.5004H9V14.0004H7V16.0004H12.5V14.0004H11ZM11.35 7.50039C11.35 7.7674 11.2708 8.0284 11.1225 8.25041C10.9741 8.47242 10.7633 8.64545 10.5166 8.74763C10.2699 8.84981 9.9985 8.87654 9.73663 8.82445C9.47475 8.77236 9.23421 8.64379 9.04541 8.45498C8.8566 8.26618 8.72803 8.02564 8.67594 7.76376C8.62385 7.50189 8.65058 7.23045 8.75276 6.98377C8.85494 6.73709 9.02797 6.52625 9.24998 6.37791C9.47199 6.22957 9.73299 6.15039 10 6.15039C10.358 6.15039 10.7014 6.29262 10.9546 6.5458C11.2078 6.79897 11.35 7.14235 11.35 7.50039V7.50039Z" fill="#D9D9D9"/>
</svg>
