<svg width="32" height="34" viewBox="0 0 32 34" fill="none" xmlns="http://www.w3.org/2000/svg">
<path d="M3.3402 11.2976L11.5421 3.29959C14.0027 0.900134 17.9973 0.900136 20.4579 3.2996L28.6598 11.2976C31.1134 13.6902 31.1134 17.564 28.6598 19.9566L16 32.3016L3.3402 19.9566C0.8866 17.564 0.886601 13.6902 3.3402 11.2976Z" fill="#40464F" stroke="#E6E6E6"/>
<path d="M17 17H15L14 13V9H18V13L17 17ZM18 21C18 19.9 17.1 19 16 19C14.9 19 14 19.9 14 21C14 22.1 14.9 23 16 23C17.1 23 18 22.1 18 21Z" fill="white"/>
</svg>
