<svg width="32" height="34" viewBox="0 0 32 34" fill="none" xmlns="http://www.w3.org/2000/svg">
<path d="M3.3402 11.2976L11.5421 3.29959C14.0027 0.900134 17.9973 0.900136 20.4579 3.2996L28.6598 11.2976C31.1134 13.6902 31.1134 17.564 28.6598 19.9566L16 32.3016L3.3402 19.9566C0.8866 17.564 0.886601 13.6902 3.3402 11.2976Z" fill="#40464F" stroke="#E6E6E6"/>
<path d="M13 23L13 9H11V23L13 23Z" fill="white"/>
<path fill-rule="evenodd" clip-rule="evenodd" d="M22.4323 18.4989L19.6263 12.8778C19.5665 12.7626 19.4758 12.6664 19.3644 12.5997C19.253 12.533 19.1252 12.4985 18.9954 12.5001C18.8655 12.5016 18.7386 12.5391 18.6289 12.6085C18.5191 12.6778 18.4307 12.7763 18.3737 12.8928L15.5677 18.4989C15.5173 18.6052 15.4944 18.7224 15.5012 18.8398C15.508 18.9572 15.5442 19.071 15.6066 19.1707C15.669 19.2704 15.7555 19.3528 15.8582 19.4104C15.9608 19.4679 16.0763 19.4988 16.194 19.5H21.806C21.9237 19.4988 22.0392 19.4679 22.1418 19.4104C22.2445 19.3528 22.331 19.2704 22.3934 19.1707C22.4558 19.071 22.492 18.9572 22.4988 18.8398C22.5056 18.7224 22.4827 18.6052 22.4323 18.4989ZM18.4989 16.4967V14.4945H19.5011V16.4967H18.4989ZM18.4989 18.4989V17.4978H19.5011V18.4989H18.4989Z" fill="white"/>
<path d="M20 9V11H18V9H20Z" fill="white"/>
<path d="M20 23V21H18V23H20Z" fill="white"/>
</svg>
