<svg width="32" height="34" viewBox="0 0 32 34" fill="none" xmlns="http://www.w3.org/2000/svg">
<path d="M3.3402 11.2976L11.5421 3.29959C14.0027 0.900134 17.9973 0.900136 20.4579 3.2996L28.6598 11.2976C31.1134 13.6902 31.1134 17.564 28.6598 19.9566L16 32.3016L3.3402 19.9566C0.8866 17.564 0.886601 13.6902 3.3402 11.2976Z" fill="#40464F" stroke="#E6E6E6"/>
<path d="M20.1 21.0003L22.1 18.0003V21.0003H20.1ZM21.1 16.6003L19.5 17.7003L18.5 22.1003H12.8L12.2 23.1003L11 22.2003L11.6 21.2003L9.60001 19.9003C9.00001 19.5003 8.90001 18.8003 9.20001 18.3003L10.6 16.1003L12.2 16.9003L14.8 12.9003L13.5 11.8003L14.9 9.60029C15.3 9.00029 16 8.80029 16.5 9.20029L18.5 10.5003L19.1 9.50029L20.3 10.3003L19.7 11.3003L21.5 14.5003C22 15.2003 21.8 16.1003 21.1 16.6003ZM15.6 12.7003C15.7 13.2003 16.3 13.6003 16.8 13.5003C17.3 13.4003 17.7 12.8003 17.6 12.3003C17.5 11.8003 16.9 11.4003 16.4 11.5003C15.8 11.6003 15.5 12.2003 15.6 12.7003ZM13.6 18.4003C13.5 17.9003 12.9 17.5003 12.4 17.6003C11.9 17.7003 11.5 18.3003 11.6 18.8003C11.7 19.3003 12.3 19.7003 12.8 19.6003C13.4 19.4003 13.8 18.9003 13.6 18.4003ZM20.3 15.2003L18.9 12.7003H18.8L14.4 19.6003L13.9 20.4003H17.4L18.1 17.2003L18.2 16.6003L18.7 16.3003L20.3 15.2003C20.3 15.3003 20.3 15.3003 20.3 15.2003Z" fill="white"/>
</svg>
