<svg width="20" height="26" viewBox="0 0 20 26" fill="none" xmlns="http://www.w3.org/2000/svg">
<path d="M6.13616 20.3055L6.13478 20.3041C3.79676 17.9165 2.64973 16.0109 2.07934 14.4183C1.50975 12.8278 1.5 11.5122 1.5 10.2415C1.5 5.40107 5.32485 1.5 9.99133 1.5C14.659 1.5 18.5 5.40234 18.5 10.2415C18.5 11.5122 18.4903 12.8278 17.9207 14.4183C17.3503 16.0109 16.2033 17.9165 13.8652 20.3041L13.8639 20.3055L10 24.2825L6.13616 20.3055Z" fill="#667284" stroke="#4B515A"/>
<path d="M7 10.8125L14.9671 6.91855C15.1787 6.82121 15.3167 6.61228 15.3232 6.37948C15.3329 6.03473 15.0561 5.75 14.7112 5.75H13.6103C13.2504 5.75 12.8958 5.83632 12.5762 6.00172L10.9375 6.875L6.25 5.75L5.125 6.5L8.5 8.375L7.375 9.125L5.5 8.9375L4.75 9.5L7 10.8125Z" fill="white"/>
<path d="M13 11.75V10.25H10.375V11.75H13Z" fill="white"/>
<path d="M13.75 16.25H12.625L12.625 15.5H7.375V16.25H6.25V14.75H13.75V16.25Z" fill="white"/>
<path d="M7 14H9.625V12.5H7V14Z" fill="white"/>
<path d="M13 14V12.5H10.375V14H13Z" fill="white"/>
</svg>
