<svg width="20" height="26" viewBox="0 0 20 26" fill="none" xmlns="http://www.w3.org/2000/svg">
<circle cx="10" cy="13" r="8.5" fill="#5990E2" stroke="#3B6EB3"/>
<path d="M6.8 16.2144C6.7 16.1144 6.7 15.9644 6.85 15.6644L5.4 14.8144L5.85 14.3644L7.45 14.7144C8 13.9644 8.75 12.9644 9.6 12.0644L5 10.5144L6.15 9.36436L11.7 9.81436C13.6 8.01436 14.45 7.76436 14.8 8.16436C15.2 8.56436 14.95 9.41436 13.15 11.2644L13.6 16.8144L12.5 18.0144L11 13.4144C10.05 14.2644 9.1 15.0144 8.35 15.5644L8.7 17.1644L8.25 17.6144L7.4 16.1644C7.05 16.2644 6.9 16.3144 6.8 16.2144Z" fill="white"/>
</svg>
