<svg width="20" height="26" viewBox="0 0 20 26" fill="none" xmlns="http://www.w3.org/2000/svg">
<path d="M6.13616 20.3055L6.13478 20.3041C3.79676 17.9165 2.64973 16.0109 2.07934 14.4183C1.50975 12.8278 1.5 11.5122 1.5 10.2415C1.5 5.40107 5.32485 1.5 9.99133 1.5C14.659 1.5 18.5 5.40234 18.5 10.2415C18.5 11.5122 18.4903 12.8278 17.9207 14.4183C17.3503 16.0109 16.2033 17.9165 13.8652 20.3041L13.8639 20.3055L10 24.2825L6.13616 20.3055Z" fill="#CD81DA" stroke="#A361AF"/>
<path d="M13 11.25C13 11.4972 12.9267 11.7389 12.7893 11.9445C12.652 12.15 12.4568 12.3102 12.2284 12.4048C11.9999 12.4995 11.7486 12.5242 11.5061 12.476C11.2637 12.4277 11.0409 12.3087 10.8661 12.1339C10.6913 11.9591 10.5722 11.7363 10.524 11.4939C10.4758 11.2514 10.5005 11.0001 10.5951 10.7716C10.6898 10.5432 10.85 10.348 11.0555 10.2107C11.2611 10.0733 11.5028 10 11.75 10C12.0815 10 12.3995 10.1317 12.6339 10.3661C12.8683 10.6005 13 10.9185 13 11.25ZM15 8V13.5C15 13.7652 14.8946 14.0196 14.7071 14.2071C14.5196 14.3946 14.2652 14.5 14 14.5H6C5.73478 14.5 5.48043 14.3946 5.29289 14.2071C5.10536 14.0196 5 13.7652 5 13.5V8H6.5V7H8.5V8H15ZM8.5 9H6.5V10H8.5V9ZM14 11.25C14 10.805 13.868 10.37 13.6208 9.99997C13.3736 9.62996 13.0222 9.34157 12.611 9.17127C12.1999 9.00097 11.7475 8.95642 11.311 9.04323C10.8746 9.13005 10.4737 9.34434 10.159 9.65901C9.84434 9.97368 9.63005 10.3746 9.54323 10.811C9.45642 11.2475 9.50097 11.6999 9.67127 12.111C9.84157 12.5222 10.13 12.8736 10.5 13.1208C10.87 13.368 11.305 13.5 11.75 13.5C12.0457 13.5007 12.3385 13.4429 12.6118 13.3301C12.8851 13.2172 13.1334 13.0515 13.3425 12.8425C13.5515 12.6334 13.7172 12.3851 13.8301 12.1118C13.9429 11.8385 14.0007 11.5457 14 11.25V11.25Z" fill="white"/>
</svg>
