<svg width="20" height="26" viewBox="0 0 20 26" fill="none" xmlns="http://www.w3.org/2000/svg">
<path d="M6.13616 20.3055L6.13478 20.3041C3.79676 17.9165 2.64973 16.0109 2.07934 14.4183C1.50975 12.8278 1.5 11.5122 1.5 10.2415C1.5 5.40107 5.32485 1.5 9.99133 1.5C14.659 1.5 18.5 5.40234 18.5 10.2415C18.5 11.5122 18.4903 12.8278 17.9207 14.4183C17.3503 16.0109 16.2033 17.9165 13.8652 20.3041L13.8639 20.3055L10 24.2825L6.13616 20.3055Z" fill="#667284" stroke="#4B515A"/>
<path fill-rule="evenodd" clip-rule="evenodd" d="M14.051 8.75L10.375 6.2993V5.75H9.625V6.29931L5.94896 8.75H4.75V15.5H7V14.75H13V15.5H15.25V8.75H14.051ZM10.375 8V7.20069L12.699 8.75H7.30105L9.625 7.2007V8H10.375ZM10.375 13.25H9.625V10.25H10.375V13.25ZM11.125 13.25V10.25H11.875V13.25H11.125ZM13.375 13.25H12.625V10.25H13.375V13.25ZM6.625 13.25V10.25H7.375V13.25H6.625ZM8.875 13.25H8.125V10.25H8.875V13.25Z" fill="white"/>
</svg>
