<svg width="20" height="26" viewBox="0 0 20 26" fill="none" xmlns="http://www.w3.org/2000/svg">
<path d="M6.13616 20.3055L6.13478 20.3041C3.79676 17.9165 2.64973 16.0109 2.07934 14.4183C1.50975 12.8278 1.5 11.5122 1.5 10.2415C1.5 5.40107 5.32485 1.5 9.99133 1.5C14.659 1.5 18.5 5.40234 18.5 10.2415C18.5 11.5122 18.4903 12.8278 17.9207 14.4183C17.3503 16.0109 16.2033 17.9165 13.8652 20.3041L13.8639 20.3055L10 24.2825L6.13616 20.3055Z" fill="#ED97C2" stroke="#BF789B"/>
<path d="M11.1249 10.5C11.5434 10.4999 11.9535 10.383 12.3093 10.1626C12.665 9.94221 12.9522 9.62695 13.1387 9.25228C13.3251 8.87761 13.4033 8.45837 13.3646 8.04168C13.3258 7.625 13.1716 7.22737 12.9193 6.89349C12.667 6.55962 12.3266 6.30272 11.9363 6.15167C11.546 6.00063 11.1214 5.96142 10.71 6.03845C10.2987 6.11548 9.91701 6.30571 9.60784 6.58774C9.29867 6.86978 9.07429 7.23245 8.9599 7.635C8.78686 7.35965 8.545 7.13418 8.2582 6.98086C7.97139 6.82754 7.64956 6.75166 7.32448 6.76073C6.99939 6.76979 6.68229 6.86348 6.40447 7.03254C6.12666 7.2016 5.89773 7.44019 5.7403 7.72476C5.58287 8.00933 5.50238 8.33003 5.50676 8.65522C5.51115 8.9804 5.60026 9.29882 5.76531 9.57904C5.93036 9.85925 6.16563 10.0916 6.4479 10.2531C6.73018 10.4146 7.04969 10.4997 7.3749 10.5H11.1249ZM11.1249 7.5C11.2732 7.5 11.4182 7.54399 11.5416 7.6264C11.6649 7.70881 11.761 7.82594 11.8178 7.96299C11.8746 8.10003 11.8894 8.25083 11.8605 8.39632C11.8316 8.5418 11.7601 8.67544 11.6552 8.78033C11.5503 8.88522 11.4167 8.95665 11.2712 8.98559C11.1257 9.01453 10.9749 8.99968 10.8379 8.94291C10.7008 8.88614 10.5837 8.79001 10.5013 8.66668C10.4189 8.54334 10.3749 8.39834 10.3749 8.25C10.3749 8.05109 10.4539 7.86032 10.5946 7.71967C10.7352 7.57902 10.926 7.5 11.1249 7.5ZM6.6249 8.625C6.6249 8.47666 6.66889 8.33166 6.7513 8.20832C6.83371 8.08499 6.95085 7.98886 7.08789 7.93209C7.22493 7.87532 7.37573 7.86047 7.52122 7.88941C7.66671 7.91835 7.80034 7.98978 7.90523 8.09467C8.01012 8.19956 8.08155 8.3332 8.11049 8.47868C8.13943 8.62417 8.12458 8.77497 8.06781 8.91201C8.01105 9.04906 7.91492 9.16619 7.79158 9.2486C7.66824 9.33101 7.52324 9.375 7.3749 9.375C7.17599 9.375 6.98522 9.29598 6.84457 9.15533C6.70392 9.01468 6.6249 8.82391 6.6249 8.625ZM14.4999 12V15.5H13.4999L11.9999 14.5V15.5C11.9999 15.6326 11.9472 15.7598 11.8535 15.8536C11.7597 15.9473 11.6325 16 11.4999 16H6.9999C6.86729 16 6.74012 15.9473 6.64635 15.8536C6.55258 15.7598 6.4999 15.6326 6.4999 15.5V12C6.4999 11.8674 6.55258 11.7402 6.64635 11.6464C6.74012 11.5527 6.86729 11.5 6.9999 11.5H11.4999C11.6325 11.5 11.7597 11.5527 11.8535 11.6464C11.9472 11.7402 11.9999 11.8674 11.9999 12V13L13.4999 12H14.4999Z" fill="white"/>
</svg>
