<svg width="20" height="26" viewBox="0 0 20 26" fill="none" xmlns="http://www.w3.org/2000/svg">
<path d="M10 24.2825L6.13616 20.3055L6.13478 20.3041C3.79676 17.9165 2.64973 16.0109 2.07934 14.4183C1.50975 12.8278 1.5 11.5122 1.5 10.2415C1.5 5.40107 5.32485 1.5 9.99133 1.5C14.659 1.5 18.5 5.40234 18.5 10.2415C18.5 11.5122 18.4903 12.8278 17.9207 14.4183C17.3503 16.0109 16.2033 17.9165 13.8652 20.3041L13.8639 20.3055L10 24.2825Z" fill="#A0B1DA" stroke="#818DAB"/>
<path d="M10.7501 8C9.79717 8 8.96258 8.53352 8.54395 9.5H12.25L11.875 10.625H8.27348C8.26344 10.7463 8.25829 10.8713 8.25828 11C8.25827 11.1287 8.26342 11.2537 8.27345 11.375H11.6875L11.3125 12.5H8.54388C8.96251 13.4665 9.7972 14 10.7501 14C11.1506 14 11.5315 13.8645 11.8307 13.7092C11.9768 13.6335 12.0939 13.5579 12.1724 13.5029C12.2114 13.4756 12.2402 13.4538 12.2575 13.4404C12.2661 13.4336 12.2718 13.429 12.2744 13.4269L12.2735 13.4277C12.2735 13.4277 12.2728 13.4283 12.7583 14C13.2437 14.5717 13.2434 14.572 13.2434 14.572L13.2421 14.573L13.2402 14.5747L13.2354 14.5787L13.2217 14.5899C13.2109 14.5988 13.1965 14.6103 13.1788 14.6241C13.1434 14.6517 13.0943 14.6885 13.033 14.7315C12.9107 14.8171 12.7367 14.929 12.5214 15.0407C12.0977 15.2605 11.4744 15.5 10.7501 15.5C8.86567 15.5 7.46474 14.2673 6.96151 12.5H5.5L5.875 11.375H6.77023C6.76229 11.2515 6.75828 11.1264 6.75828 11C6.75829 10.8735 6.76231 10.7485 6.77025 10.625H5.5L5.875 9.5H6.96158C7.46482 7.73271 8.86554 6.5 10.7501 6.5C11.4744 6.5 12.0977 6.73946 12.5214 6.95925C12.7367 7.07096 12.9107 7.18289 13.033 7.26851C13.0943 7.3115 13.1434 7.34834 13.1788 7.37591C13.1965 7.3897 13.2109 7.40122 13.2217 7.41006L13.2354 7.4213L13.2402 7.42534L13.2421 7.42696L13.243 7.42766C13.243 7.42766 13.2437 7.42829 12.7583 8C12.2728 8.57171 12.2732 8.572 12.2732 8.572L12.2741 8.57277C12.2715 8.57063 12.2661 8.56635 12.2575 8.55964C12.2402 8.54619 12.2114 8.52444 12.1724 8.49711C12.0939 8.44211 11.9768 8.36654 11.8307 8.29075C11.5315 8.13554 11.1506 8 10.7501 8Z" fill="white"/>
<path d="M12.2741 8.57277L12.275 8.57357L12.276 8.57439L12.2741 8.57277Z" fill="white"/>
</svg>
