<svg width="20" height="26" viewBox="0 0 20 26" fill="none" xmlns="http://www.w3.org/2000/svg">
<path d="M6.13616 20.3055L6.13478 20.3041C3.79676 17.9165 2.64973 16.0109 2.07934 14.4183C1.50975 12.8278 1.5 11.5122 1.5 10.2415C1.5 5.40107 5.32485 1.5 9.99133 1.5C14.659 1.5 18.5 5.40234 18.5 10.2415C18.5 11.5122 18.4903 12.8278 17.9207 14.4183C17.3503 16.0109 16.2033 17.9165 13.8652 20.3041L13.8639 20.3055L10 24.2825L6.13616 20.3055Z" fill="#667284" stroke="#4B515A"/>
<path d="M12.9595 5.81445L8.90612 7.3242L10.7906 12.4715L14.844 10.9617L12.9595 5.81445Z" fill="white"/>
<path d="M6.21289 7.05514L5.4626 6.49623L4.7876 7.39014L5.53789 7.94905C5.93453 8.24452 6.23102 8.6531 6.38781 9.12027L7.5264 12.5129C6.98228 12.8817 6.62509 13.5025 6.62509 14.2062C6.62509 15.3376 7.5485 16.2547 8.68759 16.2547C9.68061 16.2547 10.5097 15.5577 10.706 14.6294L15.2197 13.0182L14.8392 11.9666L10.6147 13.4746C10.3182 12.7045 9.56717 12.1577 8.68759 12.1577C8.65613 12.1577 8.62484 12.1584 8.59372 12.1597L7.45508 8.76692C7.22593 8.08413 6.7926 7.48698 6.21289 7.05514Z" fill="white"/>
</svg>
