<svg width="20" height="26" viewBox="0 0 20 26" fill="none" xmlns="http://www.w3.org/2000/svg">
<path d="M6.13616 20.3055L6.13478 20.3041C3.79676 17.9165 2.64973 16.0109 2.07934 14.4183C1.50975 12.8278 1.5 11.5122 1.5 10.2415C1.5 5.40107 5.32485 1.5 9.99133 1.5C14.659 1.5 18.5 5.40234 18.5 10.2415C18.5 11.5122 18.4903 12.8278 17.9207 14.4183C17.3503 16.0109 16.2033 17.9165 13.8652 20.3041L13.8639 20.3055L10 24.2825L6.13616 20.3055Z" fill="#C19D95" stroke="#937D78"/>
<path d="M10 12.11C11.0241 12.1575 12.0466 11.987 13 11.61V11.755C13 14.1 11.66 16 10 16C8.34 16 7 14.1 7 11.755V11.61C7.95324 11.9875 8.97586 12.1579 10 12.11V12.11ZM15 8.855L10 6L5 8.855L7 10.25V10.75C7.95902 11.1062 8.97728 11.276 10 11.25C11.0227 11.276 12.041 11.1062 13 10.75V10.285L13.75 9.75V13.56H14.75V9.06L15 8.855Z" fill="white"/>
</svg>
