<svg width="20" height="26" viewBox="0 0 20 26" fill="none" xmlns="http://www.w3.org/2000/svg">
<path d="M6.13616 20.3055L6.13478 20.3041C3.79676 17.9165 2.64973 16.0109 2.07934 14.4183C1.50975 12.8278 1.5 11.5122 1.5 10.2415C1.5 5.40107 5.32485 1.5 9.99133 1.5C14.659 1.5 18.5 5.40234 18.5 10.2415C18.5 11.5122 18.4903 12.8278 17.9207 14.4183C17.3503 16.0109 16.2033 17.9165 13.8652 20.3041L13.8639 20.3055L10 24.2825L6.13616 20.3055Z" fill="#A0B1DA" stroke="#818DAB"/>
<path d="M5 10V15.5H8.5V14H11.5V15.5H15V10H5ZM7.25 13H6V11H7.25V13ZM9.5 13H8.25V11H9.5V13ZM11.75 13H10.5V11H11.75V13ZM14 13H12.75V11H14V13ZM5.105 9.00003C5.56655 8.09912 6.26777 7.34306 7.13145 6.81512C7.99512 6.28717 8.98774 6.00781 10 6.00781C11.0123 6.00781 12.0049 6.28717 12.8686 6.81512C13.7322 7.34306 14.4335 8.09912 14.895 9.00003H13.74C13.3295 8.3812 12.7723 7.87358 12.118 7.52242C11.4636 7.17127 10.7326 6.9875 9.99 6.9875C9.24741 6.9875 8.51636 7.17127 7.86204 7.52242C7.20773 7.87358 6.65048 8.3812 6.24 9.00003H5.105Z" fill="white"/>
</svg>
