<svg width="20" height="26" viewBox="0 0 20 26" fill="none" xmlns="http://www.w3.org/2000/svg">
<path d="M6.13616 20.3055L6.13478 20.3041C3.79676 17.9165 2.64973 16.0109 2.07934 14.4183C1.50975 12.8278 1.5 11.5122 1.5 10.2415C1.5 5.40107 5.32485 1.5 9.99133 1.5C14.659 1.5 18.5 5.40234 18.5 10.2415C18.5 11.5122 18.4903 12.8278 17.9207 14.4183C17.3503 16.0109 16.2033 17.9165 13.8652 20.3041L13.8639 20.3055L10 24.2825L6.13616 20.3055Z" fill="#45BF94" stroke="#2E9874"/>
<path d="M14.8599 10.5009L14.1549 9.80094L15.0399 8.91594L13.9999 7.85594L14.4999 7.32594L13.7999 6.61594L13.2699 7.15094L12.2099 6.08594L11.3249 6.97094L10.6199 6.26594C10.5734 6.21907 10.5181 6.18188 10.4572 6.15649C10.3963 6.13111 10.3309 6.11804 10.2649 6.11804C10.1989 6.11804 10.1335 6.13111 10.0726 6.15649C10.0117 6.18188 9.95637 6.21907 9.90989 6.26594L9.02989 7.15094C8.93677 7.24462 8.8845 7.37134 8.8845 7.50344C8.8845 7.63553 8.93677 7.76226 9.02989 7.85594L10.7949 9.62094L8.49989 11.9209L6.72989 10.1559C6.68341 10.1091 6.62811 10.0719 6.56718 10.0465C6.50625 10.0211 6.4409 10.008 6.37489 10.008C6.30889 10.008 6.24353 10.0211 6.1826 10.0465C6.12167 10.0719 6.06637 10.1091 6.01989 10.1559L5.31489 10.8609C5.22177 10.9546 5.1695 11.0813 5.1695 11.2134C5.1695 11.3455 5.22177 11.4723 5.31489 11.5659L5.99989 12.2759L5.13989 13.1609L6.19989 14.2209L5.49989 14.9259L6.19989 15.6359L6.90489 14.9259L7.96489 16.0009L8.84989 15.1059L9.55989 15.8109C9.65357 15.9041 9.7803 15.9563 9.91239 15.9563C10.0445 15.9563 10.1712 15.9041 10.2649 15.8109L10.9699 15.1059C11.0168 15.0595 11.054 15.0042 11.0793 14.9432C11.1047 14.8823 11.1178 14.8169 11.1178 14.7509C11.1178 14.6849 11.1047 14.6196 11.0793 14.5586C11.054 14.4977 11.0168 14.4424 10.9699 14.3959L9.20489 12.6309L11.5049 10.3309L13.2699 12.0959C13.3636 12.1891 13.4903 12.2413 13.6224 12.2413C13.7545 12.2413 13.8812 12.1891 13.9749 12.0959L14.8599 11.2159C14.9075 11.1694 14.9454 11.1138 14.9712 11.0524C14.997 10.991 15.0103 10.925 15.0103 10.8584C15.0103 10.7918 14.997 10.7259 14.9712 10.6645C14.9454 10.6031 14.9075 10.5475 14.8599 10.5009Z" fill="white"/>
</svg>
