<svg width="20" height="26" viewBox="0 0 20 26" fill="none" xmlns="http://www.w3.org/2000/svg">
<path d="M6.13616 20.3055L6.13478 20.3041C3.79676 17.9165 2.64973 16.0109 2.07934 14.4183C1.50975 12.8278 1.5 11.5122 1.5 10.2415C1.5 5.40107 5.32485 1.5 9.99133 1.5C14.659 1.5 18.5 5.40234 18.5 10.2415C18.5 11.5122 18.4903 12.8278 17.9207 14.4183C17.3503 16.0109 16.2033 17.9165 13.8652 20.3041L13.8639 20.3055L10 24.2825L6.13616 20.3055Z" fill="#45BF94" stroke="#2E9874"/>
<path d="M12 12.25C12 11.9533 12.088 11.6633 12.2528 11.4166C12.4176 11.17 12.6519 10.9777 12.926 10.8642C13.2001 10.7506 13.5017 10.7209 13.7926 10.7788C14.0836 10.8367 14.3509 10.9796 14.5607 11.1893C14.7704 11.3991 14.9133 11.6664 14.9712 11.9574C15.0291 12.2483 14.9993 12.5499 14.8858 12.824C14.7723 13.0981 14.58 13.3324 14.3334 13.4972C14.0867 13.662 13.7967 13.75 13.5 13.75C13.1022 13.75 12.7206 13.592 12.4393 13.3107C12.158 13.0294 12 12.6478 12 12.25V12.25ZM15 14.5H7.5V10.1L11.5 8L6.5 6V14.5H5V15.5H15V14.5Z" fill="white"/>
</svg>
