<svg width="20" height="26" viewBox="0 0 20 26" fill="none" xmlns="http://www.w3.org/2000/svg">
<path d="M10 24.2825L6.13616 20.3055L6.13478 20.3041C3.79676 17.9165 2.64973 16.0109 2.07934 14.4183C1.50975 12.8278 1.5 11.5122 1.5 10.2415C1.5 5.40107 5.32485 1.5 9.99133 1.5C14.659 1.5 18.5 5.40234 18.5 10.2415C18.5 11.5122 18.4903 12.8278 17.9207 14.4183C17.3503 16.0109 16.2033 17.9165 13.8652 20.3041L13.8639 20.3055L10 24.2825Z" fill="#C19D95" stroke="#937D78"/>
<path fill-rule="evenodd" clip-rule="evenodd" d="M6.60125 7.35237L7.37481 5.75L6.77799 6.21894C4.30306 8.16353 4.08364 11.8338 6.30925 14.0594L6.99984 14.75L7.74981 13.625L9.23045 14.5134L8.12487 15.125L8.49987 15.875L9.62477 15.2001V16.3053H10.3748V15.2L11.4999 15.875L11.8749 15.125L10.7687 14.5137L12.2499 13.625L12.9999 14.75L13.635 14.1138C15.7404 12.0048 15.6703 8.5682 13.4805 6.54689L12.6172 5.75001L13.3916 7.3541C14.4299 9.50481 13.6073 12.092 11.5175 13.2481L10.3748 13.8803V13.125L11.1249 12.875C11.0324 12.69 10.9089 12.3855 10.7889 12.0044C11.8531 11.6694 12.6249 10.6748 12.6249 9.5C12.6249 8.33381 11.8644 7.34524 10.8123 7.00314C10.9392 6.59841 11.0608 6.2851 11.1249 6.12497L9.99981 5.75L8.87488 6.12498C8.93893 6.2851 9.06052 6.59841 9.18745 7.00314C8.13535 7.34524 7.37488 8.33381 7.37488 9.5C7.37488 10.6748 8.14667 11.6694 9.21089 12.0044C9.09084 12.3855 8.96734 12.69 8.87488 12.875L9.62477 13.125V13.8815L8.47716 13.2473C6.38621 12.0918 5.56264 9.50378 6.60125 7.35237ZM10.5919 11.2796C11.3373 11.0318 11.8749 10.3287 11.8749 9.5C11.8749 8.67836 11.3464 7.98016 10.6108 7.72678C10.4784 8.27344 10.3749 8.89393 10.3749 9.49999C10.3749 10.1185 10.4668 10.7361 10.5919 11.2796ZM9.38896 7.72678C9.51889 8.26322 9.621 8.87076 9.62477 9.466V9.5368C9.62122 10.143 9.53048 10.7469 9.40788 11.2796C8.66245 11.0318 8.12488 10.3287 8.12488 9.5C8.12488 8.67836 8.65337 7.98016 9.38896 7.72678Z" fill="white"/>
</svg>
