<svg width="20" height="26" viewBox="0 0 20 26" fill="none" xmlns="http://www.w3.org/2000/svg">
<path d="M6.13616 20.3055L6.13478 20.3041C3.79676 17.9165 2.64973 16.0109 2.07934 14.4183C1.50975 12.8278 1.5 11.5122 1.5 10.2415C1.5 5.40107 5.32485 1.5 9.99133 1.5C14.659 1.5 18.5 5.40234 18.5 10.2415C18.5 11.5122 18.4903 12.8278 17.9207 14.4183C17.3503 16.0109 16.2033 17.9165 13.8652 20.3041L13.8639 20.3055L10 24.2825L6.13616 20.3055Z" fill="#A0B1DA" stroke="#818DAB"/>
<path d="M13.5 6H6.5C6.36739 6 6.24021 6.05268 6.14645 6.14645C6.05268 6.24021 6 6.36739 6 6.5V16H14V6.5C14 6.36739 13.9473 6.24021 13.8536 6.14645C13.7598 6.05268 13.6326 6 13.5 6V6ZM13 12C13 12.5933 12.8241 13.1734 12.4944 13.6667C12.1648 14.1601 11.6962 14.5446 11.148 14.7716C10.5999 14.9987 9.99667 15.0581 9.41473 14.9424C8.83279 14.8266 8.29824 14.5409 7.87868 14.1213C7.45912 13.7018 7.1734 13.1672 7.05764 12.5853C6.94189 12.0033 7.0013 11.4001 7.22836 10.8519C7.45542 10.3038 7.83994 9.83524 8.33329 9.50559C8.82664 9.17595 9.40666 9 10 9H10.05C10.837 9.01312 11.5872 9.33497 12.1391 9.89616C12.6909 10.4574 13.0001 11.2129 13 12V12ZM11 7H13V8H11V7ZM11.5 12C11.4997 12.2965 11.4116 12.5862 11.2468 12.8327C11.0819 13.0791 10.8478 13.2712 10.5738 13.3846C10.2999 13.498 9.99852 13.5277 9.70773 13.4699C9.41693 13.4122 9.14977 13.2695 8.94 13.06C8.65861 12.779 8.50035 12.3977 8.5 12H11.5Z" fill="white"/>
</svg>
