<svg width="20" height="26" viewBox="0 0 20 26" fill="none" xmlns="http://www.w3.org/2000/svg">
<path d="M6.13616 20.3055L6.13478 20.3041C3.79676 17.9165 2.64973 16.0109 2.07934 14.4183C1.50975 12.8278 1.5 11.5122 1.5 10.2415C1.5 5.40107 5.32485 1.5 9.99133 1.5C14.659 1.5 18.5 5.40234 18.5 10.2415C18.5 11.5122 18.4903 12.8278 17.9207 14.4183C17.3503 16.0109 16.2033 17.9165 13.8652 20.3041L13.8639 20.3055L10 24.2825L6.13616 20.3055Z" fill="#667284" stroke="#4B515A"/>
<path d="M7 9.5H4.75V7.25H7V9.5Z" fill="white"/>
<path d="M7 12.5H4.75V10.25H7V12.5Z" fill="white"/>
<path d="M6.625 15.5V14.375H4.75V13.25H7.75V15.5H6.625Z" fill="white"/>
<path d="M12.625 14.375H12.25C12.25 14.9963 11.7463 15.5 11.125 15.5C10.5037 15.5 10 14.9963 10 14.375L9.25 14.375V8.1875C9.25 7.66973 9.66973 7.25 10.1875 7.25H15.25V8.375H10V12.5H15.25V14.375L14.875 14.375C14.875 14.9963 14.3713 15.5 13.75 15.5C13.1287 15.5 12.625 14.9963 12.625 14.375Z" fill="white"/>
</svg>
