<svg width="20" height="26" viewBox="0 0 20 26" fill="none" xmlns="http://www.w3.org/2000/svg">
<path d="M10 24.2825L6.13616 20.3055L6.13478 20.3041C3.79676 17.9165 2.64973 16.0109 2.07934 14.4183C1.50975 12.8278 1.5 11.5122 1.5 10.2415C1.5 5.40107 5.32485 1.5 9.99133 1.5C14.659 1.5 18.5 5.40234 18.5 10.2415C18.5 11.5122 18.4903 12.8278 17.9207 14.4183C17.3503 16.0109 16.2033 17.9165 13.8652 20.3041L13.8639 20.3055L10 24.2825Z" fill="#C19D95" stroke="#937D78"/>
<path d="M12.625 6.5C12.6524 6.5 12.6797 6.50025 12.7069 6.50073C11.9165 6.02417 10.9903 5.75 10 5.75C7.1005 5.75 4.75 8.1005 4.75 11C4.75 13.8995 7.1005 16.25 10 16.25C10.9903 16.25 11.9165 15.9758 12.7069 15.4993C12.6797 15.4998 12.6524 15.5 12.625 15.5C10.1397 15.5 8.125 13.4853 8.125 11C8.125 8.51472 10.1397 6.5 12.625 6.5Z" fill="white"/>
<path d="M13.4927 10.3505L13.5152 8.375L12.3923 10.0141L10.6008 9.46179L11.6984 11.1092L10.5625 12.7296L12.3936 11.9776L13.4912 13.625L13.4556 11.6464L15.2867 10.8944L13.4927 10.3505Z" fill="white"/>
</svg>
