<svg width="20" height="26" viewBox="0 0 20 26" fill="none" xmlns="http://www.w3.org/2000/svg">
<path d="M10 24.2825L6.13616 20.3055L6.13478 20.3041C3.79676 17.9165 2.64973 16.0109 2.07934 14.4183C1.50975 12.8278 1.5 11.5122 1.5 10.2415C1.5 5.40107 5.32485 1.5 9.99133 1.5C14.659 1.5 18.5 5.40234 18.5 10.2415C18.5 11.5122 18.4903 12.8278 17.9207 14.4183C17.3503 16.0109 16.2033 17.9165 13.8652 20.3041L13.8639 20.3055L10 24.2825Z" fill="#CD81DA" stroke="#A361AF"/>
<path fill-rule="evenodd" clip-rule="evenodd" d="M10 5.99805L5.5 8.00053V8.99803H6.25V13.498H5.6875V14.3755H5.125V15.5005H14.875V14.3755H14.3125V13.498H13.75V8.99803H14.5V8.00053L10 5.99805ZM12.25 8.99803H10.75V13.498H12.25V8.99803ZM9.25 8.99803H7.75V13.498H9.25V8.99803Z" fill="white"/>
</svg>
