<svg width="20" height="26" viewBox="0 0 20 26" fill="none" xmlns="http://www.w3.org/2000/svg">
<path d="M6.13616 20.3055L6.13478 20.3041C3.79676 17.9165 2.64973 16.0109 2.07934 14.4183C1.50975 12.8278 1.5 11.5122 1.5 10.2415C1.5 5.40107 5.32485 1.5 9.99133 1.5C14.659 1.5 18.5 5.40234 18.5 10.2415C18.5 11.5122 18.4903 12.8278 17.9207 14.4183C17.3503 16.0109 16.2033 17.9165 13.8652 20.3041L13.8639 20.3055L10 24.2825L6.13616 20.3055Z" fill="#ED97C2" stroke="#BF789B"/>
<path d="M9.5 10.5C9.5 10.6483 9.45601 10.7933 9.3736 10.9167C9.29119 11.04 9.17406 11.1361 9.03701 11.1929C8.89997 11.2497 8.74917 11.2645 8.60368 11.2356C8.4582 11.2066 8.32456 11.1352 8.21967 11.0303C8.11478 10.9254 8.04335 10.7918 8.01441 10.6463C7.98547 10.5008 8.00033 10.35 8.05709 10.213C8.11386 10.0759 8.20999 9.95881 8.33332 9.8764C8.45666 9.79399 8.60167 9.75 8.75 9.75C8.94891 9.75 9.13968 9.82902 9.28033 9.96967C9.42098 10.1103 9.5 10.3011 9.5 10.5ZM8 14.18C7.33302 14.0474 6.71456 13.7362 6.21064 13.2796C5.70672 12.823 5.33626 12.2381 5.13882 11.5873C4.94137 10.9366 4.92434 10.2444 5.08955 9.58479C5.25476 8.92513 5.59601 8.32272 6.07686 7.84186C6.55772 7.36101 7.16013 7.01976 7.81979 6.85455C8.47944 6.68934 9.17158 6.70637 9.82232 6.90381C10.4731 7.10126 11.058 7.47172 11.5146 7.97564C11.9712 8.47955 12.2824 9.09802 12.415 9.765C12.5393 10.3712 12.5112 10.9987 12.3334 11.5913C12.1555 12.184 11.8333 12.7233 11.3958 13.1608C10.9583 13.5983 10.419 13.9205 9.82635 14.0984C9.23369 14.2762 8.60616 14.3043 8 14.18V14.18ZM8.275 8.81C7.98693 8.88649 7.72359 9.03631 7.51066 9.24486C7.29772 9.45341 7.14246 9.71358 7.06 10C6.97591 10.2997 6.97302 10.6163 7.05162 10.9174C7.13023 11.2186 7.2875 11.4934 7.50732 11.7137C7.72714 11.934 8.0016 12.092 8.30256 12.1713C8.60352 12.2506 8.92015 12.2484 9.22 12.165C9.50446 12.0904 9.76504 11.9442 9.97688 11.7402C10.1887 11.5363 10.3447 11.2814 10.43 11C10.5194 10.6993 10.5265 10.3801 10.4506 10.0757C10.3747 9.77131 10.2187 9.49282 9.99862 9.26921C9.77859 9.0456 9.50264 8.88506 9.1995 8.8043C8.89636 8.72354 8.57712 8.72551 8.275 8.81V8.81ZM13 6V8H13.5V11.78C13.4994 12.0127 13.4446 12.2421 13.34 12.45L12.805 13.525L12.58 13.415L11.76 15.05L11.985 15.16L12.88 15.61L13.105 15.72L13.92 14.085L13.695 14L14.235 12.92C14.4123 12.5663 14.5031 12.1756 14.5 11.78V8H15V6H13Z" fill="white"/>
</svg>
