<svg width="20" height="26" viewBox="0 0 20 26" fill="none" xmlns="http://www.w3.org/2000/svg">
<path d="M6.13616 20.3055L6.13478 20.3041C3.79676 17.9165 2.64973 16.0109 2.07934 14.4183C1.50975 12.8278 1.5 11.5122 1.5 10.2415C1.5 5.40107 5.32485 1.5 9.99133 1.5C14.659 1.5 18.5 5.40234 18.5 10.2415C18.5 11.5122 18.4903 12.8278 17.9207 14.4183C17.3503 16.0109 16.2033 17.9165 13.8652 20.3041L13.8639 20.3055L10 24.2825L6.13616 20.3055Z" fill="#667284" stroke="#4B515A"/>
<path fill-rule="evenodd" clip-rule="evenodd" d="M4.75 5.75H15.25V12.5H13V11.75H7V12.5H4.75V5.75ZM7.375 7.25H6.625V10.25H7.375V7.25ZM10.375 7.25H9.625V10.25H10.375V7.25ZM11.875 7.25H11.125V10.25H11.875V7.25ZM12.625 7.25V10.25H13.375V7.25H12.625ZM8.125 7.25V10.25H8.875V7.25H8.125Z" fill="white"/>
<path d="M9.24074 14.5625H10.7593C10.8533 15.51 11.6527 16.25 12.625 16.25C13.5973 16.25 14.3967 15.51 14.4907 14.5625H15.25V13.4375H4.75V14.5625H5.50926C5.60333 15.51 6.40275 16.25 7.375 16.25C8.34725 16.25 9.14667 15.51 9.24074 14.5625Z" fill="white"/>
</svg>
