<svg width="20" height="26" viewBox="0 0 20 26" fill="none" xmlns="http://www.w3.org/2000/svg">
<path d="M6.13616 20.3055L6.13478 20.3041C3.79676 17.9165 2.64973 16.0109 2.07934 14.4183C1.50975 12.8278 1.5 11.5122 1.5 10.2415C1.5 5.40107 5.32485 1.5 9.99133 1.5C14.659 1.5 18.5 5.40234 18.5 10.2415C18.5 11.5122 18.4903 12.8278 17.9207 14.4183C17.3503 16.0109 16.2033 17.9165 13.8652 20.3041L13.8639 20.3055L10 24.2825L6.13616 20.3055Z" fill="#45BF94" stroke="#2E9874"/>
<path d="M11.4 7L7.575 13.115C7.94551 12.9996 8.332 12.944 8.72 12.95C9.32934 12.9392 9.93201 13.0783 10.475 13.355C10.7168 13.4924 10.992 13.56 11.27 13.55C11.5496 13.5609 11.8267 13.4934 12.07 13.355C12.613 13.0783 13.2157 12.9392 13.825 12.95C13.98 12.95 14.12 12.95 14.255 12.95L11.725 10.225C11.6581 10.153 11.6139 10.063 11.5979 9.96606C11.5819 9.86913 11.5948 9.76964 11.635 9.68L12.66 7.395C12.7251 7.24356 12.7518 7.07836 12.7376 6.91412C12.7235 6.74987 12.669 6.59168 12.5789 6.4536C12.4888 6.31553 12.366 6.20187 12.2214 6.12273C12.0768 6.04359 11.9148 6.00143 11.75 6H7.555L7.91 7H11.4ZM13.825 14.4C13.3263 14.3906 12.833 14.5058 12.39 14.735C12.0465 14.9203 11.6601 15.0117 11.27 15C10.8815 15.011 10.497 14.9196 10.155 14.735C9.71196 14.5058 9.21875 14.3906 8.72 14.4C8.22274 14.3895 7.73088 14.5048 7.29 14.735C6.94802 14.9196 6.56348 15.011 6.175 15C5.78637 15.0124 5.40147 14.921 5.06 14.735H5V15.805C5.37336 15.9528 5.77393 16.0192 6.175 16C6.67375 16.0094 7.16696 15.8942 7.61 15.665C7.9499 15.4797 8.33303 15.3882 8.72 15.4C9.10862 15.3875 9.49353 15.479 9.835 15.665C10.278 15.8942 10.7713 16.0094 11.27 16C11.7687 16.0094 12.262 15.8942 12.705 15.665C13.0485 15.4797 13.4349 15.3883 13.825 15.4C14.2136 15.3875 14.5985 15.479 14.94 15.665L15 15.69V14.62C14.6283 14.4643 14.2278 14.3893 13.825 14.4V14.4ZM7.39 11.5H6.5C6.23478 11.5 5.98043 11.3946 5.79289 11.2071C5.60536 11.0196 5.5 10.7652 5.5 10.5V9.5C5.5 9.23478 5.60536 8.98043 5.79289 8.79289C5.98043 8.60536 6.23478 8.5 6.5 8.5H7.25C7.44891 8.5 7.63968 8.57902 7.78033 8.71967C7.92098 8.86032 8 9.05109 8 9.25L8.175 10.28L7.39 11.5Z" fill="white"/>
</svg>
