<svg width="20" height="26" viewBox="0 0 20 26" fill="none" xmlns="http://www.w3.org/2000/svg">
<circle cx="10" cy="13" r="8.5" fill="#5990E2" stroke="#3B6EB3"/>
<path d="M14.75 12.5H13.89L13.39 11.35C13.2838 11.1013 13.1078 10.8886 12.8833 10.7378C12.6588 10.5869 12.3954 10.5043 12.125 10.5H11.72L11.53 9.05C11.5167 8.90348 11.4505 8.76681 11.3438 8.66558C11.237 8.56434 11.097 8.50548 10.95 8.5H9.05C8.90298 8.50548 8.76299 8.56434 8.65624 8.66558C8.54948 8.76681 8.48327 8.90348 8.47 9.05L8.28 10.5H7.89C7.62185 10.506 7.36115 10.5894 7.13935 10.7402C6.91756 10.891 6.74413 11.1028 6.64 11.35L6.14 12.5H5.25C5.17238 12.5582 5.10938 12.6337 5.06598 12.7205C5.02259 12.8073 5 12.903 5 13C5 13.097 5.02259 13.1927 5.06598 13.2795C5.10938 13.3663 5.17238 13.4418 5.25 13.5H5.5V16.5C5.5 16.6326 5.55268 16.7598 5.64645 16.8536C5.74021 16.9473 5.86739 17 6 17H7.5C7.63261 17 7.75978 16.9473 7.85355 16.8536C7.94732 16.7598 8 16.6326 8 16.5V16H12V16.5C12 16.6326 12.0527 16.7598 12.1464 16.8536C12.2402 16.9473 12.3674 17 12.5 17H14C14.1326 17 14.2598 16.9473 14.3536 16.8536C14.4473 16.7598 14.5 16.6326 14.5 16.5V13.5H14.75C14.8276 13.4418 14.8906 13.3663 14.934 13.2795C14.9774 13.1927 15 13.097 15 13C15 12.903 14.9774 12.8073 14.934 12.7205C14.8906 12.6337 14.8276 12.5582 14.75 12.5V12.5ZM8 15H6.75C6.67238 14.9418 6.60938 14.8663 6.56598 14.7795C6.52259 14.6927 6.5 14.597 6.5 14.5C6.5 14.403 6.52259 14.3073 6.56598 14.2205C6.60938 14.1337 6.67238 14.0582 6.75 14H8V15ZM7 13L7.555 11.755C7.58059 11.6849 7.62576 11.6236 7.68514 11.5784C7.74451 11.5332 7.81562 11.506 7.89 11.5H12.125C12.2001 11.5057 12.272 11.5327 12.3322 11.5779C12.3925 11.6231 12.4385 11.6845 12.465 11.755L13 13H7ZM13.25 15H12V14H13.25C13.3276 14.0582 13.3906 14.1337 13.434 14.2205C13.4774 14.3073 13.5 14.403 13.5 14.5C13.5 14.597 13.4774 14.6927 13.434 14.7795C13.3906 14.8663 13.3276 14.9418 13.25 15Z" fill="white"/>
</svg>
