<svg width="20" height="26" viewBox="0 0 20 26" fill="none" xmlns="http://www.w3.org/2000/svg">
<path d="M6.13616 20.3055L6.13478 20.3041C3.79676 17.9165 2.64973 16.0109 2.07934 14.4183C1.50975 12.8278 1.5 11.5122 1.5 10.2415C1.5 5.40107 5.32485 1.5 9.99133 1.5C14.659 1.5 18.5 5.40234 18.5 10.2415C18.5 11.5122 18.4903 12.8278 17.9207 14.4183C17.3503 16.0109 16.2033 17.9165 13.8652 20.3041L13.8639 20.3055L10 24.2825L6.13616 20.3055Z" fill="#6BC9FF" stroke="#56A3CF"/>
<path d="M9.75003 14.0002C10.3434 14.0002 10.9234 13.8242 11.4167 13.4946C11.9101 13.1649 12.2946 12.6964 12.5217 12.1482C12.7487 11.6001 12.8081 10.9969 12.6924 10.4149C12.5766 9.83297 12.2909 9.29842 11.8714 8.87886C11.4518 8.4593 10.9172 8.17358 10.3353 8.05783C9.75336 7.94207 9.15016 8.00148 8.60198 8.22854C8.05381 8.45561 7.58527 8.84012 7.25563 9.33347C6.92598 9.82682 6.75003 10.4068 6.75003 11.0002C6.75003 11.7958 7.06611 12.5589 7.62871 13.1215C8.19132 13.6841 8.95438 14.0002 9.75003 14.0002ZM9.50003 9.00018H10.5V13.0002H9.50003V10.2502H8.50003L9.50003 9.00018ZM15 14.0002V14.5002C15 14.898 14.842 15.2795 14.5607 15.5608C14.2794 15.8421 13.8979 16.0002 13.5 16.0002H6.50003C6.10221 16.0002 5.72068 15.8421 5.43937 15.5608C5.15807 15.2795 5.00003 14.898 5.00003 14.5002V14.0002C4.99751 13.6309 5.13131 13.2737 5.37579 12.9969C5.62027 12.7201 5.95826 12.5433 6.32503 12.5002C6.48228 12.8663 6.69848 13.2041 6.96503 13.5002H6.00003V15.0002H14V13.5002H12.535C12.8044 13.2042 13.0239 12.8665 13.185 12.5002H13.5C13.8979 12.5002 14.2794 12.6582 14.5607 12.9395C14.842 13.2208 15 13.6024 15 14.0002ZM9.75003 7.25018C9.65343 7.24507 9.55663 7.24507 9.46003 7.25018C9.76669 6.8173 10.2031 6.49318 10.7061 6.32472C11.2092 6.15625 11.7528 6.15217 12.2583 6.31307C12.7638 6.47396 13.205 6.79149 13.5181 7.21972C13.8312 7.64795 14 8.16469 14 8.69518C13.9984 9.26975 13.7949 9.82546 13.425 10.2652C13.2552 9.41539 12.7963 8.65066 12.1263 8.10101C11.4563 7.55135 10.6166 7.25071 9.75003 7.25018V7.25018Z" fill="white"/>
</svg>
