<svg width="20" height="26" viewBox="0 0 20 26" fill="none" xmlns="http://www.w3.org/2000/svg">
<path d="M6.13616 20.3055L6.13478 20.3041C3.79676 17.9165 2.64973 16.0109 2.07934 14.4183C1.50975 12.8278 1.5 11.5122 1.5 10.2415C1.5 5.40107 5.32485 1.5 9.99133 1.5C14.659 1.5 18.5 5.40234 18.5 10.2415C18.5 11.5122 18.4903 12.8278 17.9207 14.4183C17.3503 16.0109 16.2033 17.9165 13.8652 20.3041L13.8639 20.3055L10 24.2825L6.13616 20.3055Z" fill="#667284" stroke="#4B515A"/>
<path d="M10 5.75L4.75 6.875V8L10 6.875L15.25 8V6.875L10 5.75Z" fill="white"/>
<path fill-rule="evenodd" clip-rule="evenodd" d="M7.87662 8.45456L7.75 8.75H7.375C7.16789 8.75 7 8.91789 7 9.125V9.5C6.58579 9.5 6.25 9.83579 6.25 10.25V11.375C6.25 11.7892 6.58579 12.125 7 12.125V15.875C7 16.0821 7.16789 16.25 7.375 16.25H7.75C7.95711 16.25 8.125 16.0821 8.125 15.875C8.125 16.0821 8.29289 16.25 8.5 16.25H8.875C9.08211 16.25 9.25 16.0821 9.25 15.875V15.125H10.75V15.875C10.75 16.0821 10.9179 16.25 11.125 16.25H11.5C11.7071 16.25 11.875 16.0821 11.875 15.875C11.875 16.0821 12.0429 16.25 12.25 16.25H12.625C12.8321 16.25 13 16.0821 13 15.875V12.125C13.4142 12.125 13.75 11.7892 13.75 11.375V10.25C13.75 9.83579 13.4142 9.5 13 9.5V9.125C13 8.91789 12.8321 8.75 12.625 8.75H12.25L12.1234 8.45456C12.0052 8.1788 11.734 8 11.434 8H8.56598C8.26595 8 7.9948 8.1788 7.87662 8.45456ZM8.125 12.125C7.91789 12.125 7.75 11.9571 7.75 11.75V9.875C7.75 9.66789 7.91789 9.5 8.125 9.5H11.875C12.0821 9.5 12.25 9.66789 12.25 9.875V11.75C12.25 11.9571 12.0821 12.125 11.875 12.125H8.125ZM8.875 13.4375C8.875 13.7482 8.62316 14 8.3125 14C8.00184 14 7.75 13.7482 7.75 13.4375C7.75 13.1268 8.00184 12.875 8.3125 12.875C8.62316 12.875 8.875 13.1268 8.875 13.4375ZM12.25 13.4375C12.25 13.7482 11.9982 14 11.6875 14C11.3768 14 11.125 13.7482 11.125 13.4375C11.125 13.1268 11.3768 12.875 11.6875 12.875C11.9982 12.875 12.25 13.1268 12.25 13.4375Z" fill="white"/>
</svg>
