<svg width="20" height="26" viewBox="0 0 20 26" fill="none" xmlns="http://www.w3.org/2000/svg">
<path d="M6.13616 20.3055L6.13478 20.3041C3.79676 17.9165 2.64973 16.0109 2.07934 14.4183C1.50975 12.8278 1.5 11.5122 1.5 10.2415C1.5 5.40107 5.32485 1.5 9.99133 1.5C14.659 1.5 18.5 5.40234 18.5 10.2415C18.5 11.5122 18.4903 12.8278 17.9207 14.4183C17.3503 16.0109 16.2033 17.9165 13.8652 20.3041L13.8639 20.3055L10 24.2825L6.13616 20.3055Z" fill="#667284" stroke="#4B515A"/>
<path d="M8.125 5.75C8.125 6.37132 7.62132 6.875 7 6.875C6.37868 6.875 5.875 6.37132 5.875 5.75H8.125Z" fill="white"/>
<path d="M4.75 9.125C5.37132 9.125 5.875 8.62132 5.875 8C5.875 7.37868 5.37132 6.875 4.75 6.875V9.125Z" fill="white"/>
<path d="M5.875 11C5.875 11.6213 5.37132 12.125 4.75 12.125V9.875C5.37132 9.875 5.875 10.3787 5.875 11Z" fill="white"/>
<path d="M15.25 9.125C14.6287 9.125 14.125 8.62132 14.125 8C14.125 7.37868 14.6287 6.875 15.25 6.875V9.125Z" fill="white"/>
<path d="M15.25 12.125C14.6287 12.125 14.125 11.6213 14.125 11C14.125 10.3787 14.6287 9.875 15.25 9.875V12.125Z" fill="white"/>
<path d="M5.875 14C5.875 14.6213 5.37132 15.125 4.75 15.125V12.875C5.37132 12.875 5.875 13.3787 5.875 14Z" fill="white"/>
<path d="M15.25 15.125C14.6287 15.125 14.125 14.6213 14.125 14C14.125 13.3787 14.6287 12.875 15.25 12.875V15.125Z" fill="white"/>
<path d="M10 6.875C10.6213 6.875 11.125 6.37132 11.125 5.75H8.875C8.875 6.37132 9.37868 6.875 10 6.875Z" fill="white"/>
<path d="M13 6.875C13.6213 6.875 14.125 6.37132 14.125 5.75H11.875C11.875 6.37132 12.3787 6.875 13 6.875Z" fill="white"/>
<path fill-rule="evenodd" clip-rule="evenodd" d="M7.375 8.75C7.16789 8.75 7 8.91789 7 9.125V15.875C7 16.0821 7.16789 16.25 7.375 16.25H7.75C7.95711 16.25 8.125 16.0821 8.125 15.875C8.125 16.0821 8.29289 16.25 8.5 16.25H8.875C9.08211 16.25 9.25 16.0821 9.25 15.875V15.125H10.75V15.875C10.75 16.0821 10.9179 16.25 11.125 16.25H11.5C11.7071 16.25 11.875 16.0821 11.875 15.875C11.875 16.0821 12.0429 16.25 12.25 16.25H12.625C12.8321 16.25 13 16.0821 13 15.875V9.125C13 8.91789 12.8321 8.75 12.625 8.75H12.25L12.1234 8.45456C12.0052 8.1788 11.734 8 11.434 8H8.56598C8.26595 8 7.9948 8.1788 7.87662 8.45456L7.75 8.75H7.375ZM8.875 13.4375C8.875 13.7482 8.62316 14 8.3125 14C8.00184 14 7.75 13.7482 7.75 13.4375C7.75 13.1268 8.00184 12.875 8.3125 12.875C8.62316 12.875 8.875 13.1268 8.875 13.4375ZM12.25 13.4375C12.25 13.7482 11.9982 14 11.6875 14C11.3768 14 11.125 13.7482 11.125 13.4375C11.125 13.1268 11.3768 12.875 11.6875 12.875C11.9982 12.875 12.25 13.1268 12.25 13.4375ZM11.875 12.125H8.125C7.91789 12.125 7.75 11.9571 7.75 11.75V9.875C7.75 9.66789 7.91789 9.5 8.125 9.5H11.875C12.0821 9.5 12.25 9.66789 12.25 9.875V11.75C12.25 11.9571 12.0821 12.125 11.875 12.125Z" fill="white"/>
</svg>
