<svg width="20" height="26" viewBox="0 0 20 26" fill="none" xmlns="http://www.w3.org/2000/svg">
<path d="M6.13616 20.3055L6.13478 20.3041C3.79676 17.9165 2.64973 16.0109 2.07934 14.4183C1.50975 12.8278 1.5 11.5122 1.5 10.2415C1.5 5.40107 5.32485 1.5 9.99133 1.5C14.659 1.5 18.5 5.40234 18.5 10.2415C18.5 11.5122 18.4903 12.8278 17.9207 14.4183C17.3503 16.0109 16.2033 17.9165 13.8652 20.3041L13.8639 20.3055L10 24.2825L6.13616 20.3055Z" fill="#667284" stroke="#4B515A"/>
<path d="M11.5231 6.25055C11.4826 6.30185 11.4317 6.34332 11.3739 6.37204C11.3162 6.40076 11.2531 6.41602 11.189 6.41676L6.89094 6.42114C6.79641 6.42339 6.70347 6.44673 6.61849 6.48956C6.53351 6.53239 6.45848 6.5937 6.39856 6.66928C6.33864 6.74487 6.29524 6.83295 6.27133 6.92748C6.24742 7.02202 6.24356 7.12079 6.26002 7.21701C6.29203 7.37082 6.37479 7.50835 6.49414 7.60603C6.61348 7.7037 6.76198 7.75546 6.91418 7.75241L11.186 7.75602C11.2501 7.75675 11.3132 7.77202 11.3709 7.80074C11.4286 7.82947 11.4795 7.87094 11.52 7.92224C11.6634 8.10951 11.8527 8.25358 12.0683 8.33941C12.2839 8.42524 12.5178 8.44967 12.7457 8.41016C12.9735 8.37065 13.1869 8.26864 13.3636 8.11479C13.5402 7.96095 13.6737 7.7609 13.75 7.53554L12.7448 7.52912L12.3149 7.08482L12.7448 6.64054L13.7469 6.64057C13.6702 6.41567 13.5366 6.21612 13.36 6.0627C13.1834 5.90928 12.9702 5.80761 12.7426 5.76827C12.5151 5.72894 12.2815 5.75337 12.0662 5.83904C11.8508 5.92471 11.6617 6.06847 11.5184 6.25535L11.5231 6.25055Z" fill="white"/>
<path fill-rule="evenodd" clip-rule="evenodd" d="M5.6875 8.75C5.16973 8.75 4.75 9.16973 4.75 9.6875V14.375H5.5C5.5 14.9963 6.00368 15.5 6.625 15.5C7.24632 15.5 7.75 14.9963 7.75 14.375H8.125C8.125 14.9963 8.62868 15.5 9.25 15.5C9.87132 15.5 10.375 14.9963 10.375 14.375H12.25C12.25 14.9963 12.7537 15.5 13.375 15.5C13.9963 15.5 14.5 14.9963 14.5 14.375H15.25V12.6875C15.25 12.2162 14.9602 11.8126 14.549 11.6452L14.0832 10.364C13.8945 9.84528 13.4016 9.5 12.8497 9.5H11.6687C11.5819 9.07208 11.2036 8.75 10.75 8.75H5.6875ZM10.5625 9.875V12.875H5.5V9.875H10.5625ZM13.0259 10.7484L13.5265 12.125H11.6875V10.625H12.8497C12.9285 10.625 12.9989 10.6743 13.0259 10.7484Z" fill="white"/>
</svg>
