<svg width="20" height="26" viewBox="0 0 20 26" fill="none" xmlns="http://www.w3.org/2000/svg">
<path d="M6.13616 20.3055L6.13478 20.3041C3.79676 17.9165 2.64973 16.0109 2.07934 14.4183C1.50975 12.8278 1.5 11.5122 1.5 10.2415C1.5 5.40107 5.32485 1.5 9.99133 1.5C14.659 1.5 18.5 5.40234 18.5 10.2415C18.5 11.5122 18.4903 12.8278 17.9207 14.4183C17.3503 16.0109 16.2033 17.9165 13.8652 20.3041L13.8639 20.3055L10 24.2825L6.13616 20.3055Z" fill="#667284" stroke="#4B515A"/>
<path fill-rule="evenodd" clip-rule="evenodd" d="M7.62869 5.75H6.43753L6.4375 11H7.76102L7.76104 9.10364C8.96876 9.10364 9.8125 8.54045 9.8125 7.38864C9.8125 6.29091 8.9853 5.75 7.62869 5.75ZM7.84707 8.19045H7.76104V6.66636H7.81399C8.37648 6.66636 8.64119 6.92091 8.64119 7.40455C8.65442 7.97727 8.35332 8.19045 7.84707 8.19045Z" fill="white"/>
<path fill-rule="evenodd" clip-rule="evenodd" d="M5.5 12.5V7.25295C5.08579 7.25295 4.75 7.58874 4.75 8.00295V14.375L5.5 14.375C5.5 14.9963 6.00368 15.5 6.625 15.5C7.24632 15.5 7.75 14.9963 7.75 14.375H8.125C8.125 14.9963 8.62868 15.5 9.25 15.5C9.87132 15.5 10.375 14.9963 10.375 14.375H12.25C12.25 14.9963 12.7537 15.5 13.375 15.5C13.9963 15.5 14.5 14.9963 14.5 14.375H15.25L15.25 12.6875L15.25 12.6788V12.5C15.25 12.0203 14.9497 11.6107 14.5269 11.4489L14.067 9.72432C13.9138 9.14977 13.3935 8.75 12.7988 8.75H11.6875V8.19045C11.6875 7.67269 11.2678 7.25295 10.75 7.25295H10.5625V12.5H5.5ZM12.7988 9.875C12.8838 9.875 12.9581 9.93211 12.98 10.0142L13.3429 11.375H11.6875V9.875H12.7988Z" fill="white"/>
</svg>
