<svg width="20" height="26" viewBox="0 0 20 26" fill="none" xmlns="http://www.w3.org/2000/svg">
<path d="M6.13616 20.3055L6.13478 20.3041C3.79676 17.9165 2.64973 16.0109 2.07934 14.4183C1.50975 12.8278 1.5 11.5122 1.5 10.2415C1.5 5.40107 5.32485 1.5 9.99133 1.5C14.659 1.5 18.5 5.40234 18.5 10.2415C18.5 11.5122 18.4903 12.8278 17.9207 14.4183C17.3503 16.0109 16.2033 17.9165 13.8652 20.3041L13.8639 20.3055L10 24.2825L6.13616 20.3055Z" fill="#45BF94" stroke="#2E9874"/>
<path d="M15 8.875C15.0007 8.49727 14.9267 8.12312 14.7825 7.77401C14.6382 7.4249 14.4265 7.1077 14.1594 6.8406C13.8923 6.5735 13.5751 6.36176 13.226 6.21751C12.8769 6.07326 12.5027 5.99935 12.125 6H10.81C11.1854 6.34986 11.4847 6.77322 11.6894 7.24374C11.8942 7.71426 11.9999 8.22188 12 8.735V11H11V8.735C11 7.315 10 6 8.545 6H7.75C7.02106 6.00133 6.32235 6.29148 5.80692 6.80692C5.29148 7.32236 5.00132 8.02106 5 8.75C5 9.14 5 13.25 5 13.25C5.00394 13.9781 5.29494 14.6753 5.80981 15.1902C6.32468 15.7051 7.02187 15.9961 7.75 16H8V14.5C7.71344 14.4962 7.43668 14.3951 7.21504 14.2135C6.99339 14.0318 6.84001 13.7802 6.78 13.5C6.7425 13.3387 6.73755 13.1716 6.76544 13.0083C6.79333 12.8451 6.85351 12.6891 6.94244 12.5494C7.03137 12.4097 7.14727 12.2892 7.28336 12.1949C7.41945 12.1005 7.57299 12.0343 7.735 12L9 11.75V16H11V13.5L13 13.765V16H14.75L15 9V8.875ZM7.25 10C7.10166 10 6.95666 9.95602 6.83332 9.87361C6.70999 9.79119 6.61386 9.67406 6.55709 9.53702C6.50032 9.39997 6.48547 9.24917 6.51441 9.10369C6.54335 8.9582 6.61478 8.82456 6.71967 8.71967C6.82456 8.61478 6.9582 8.54335 7.10368 8.51441C7.24917 8.48548 7.39997 8.50033 7.53701 8.55709C7.67406 8.61386 7.79119 8.70999 7.8736 8.83333C7.95601 8.95666 8 9.10167 8 9.25C8 9.44892 7.92098 9.63968 7.78033 9.78033C7.63968 9.92099 7.44891 10 7.25 10Z" fill="white"/>
</svg>
