<svg width="25" height="26" viewBox="0 0 25 26" fill="none" xmlns="http://www.w3.org/2000/svg">
<g id="hybrid / detailedshield_c_02_turnpike">
<g id="detailedshield_c_02_turnpike">
<g id="detailedshield_c_base">
<g id="stretchable-items">
<path id="shape01" d="M15.5 2.35C16.7079 2.35 17.5913 2.03699 18.3856 1.62908C18.4171 1.66921 18.4512 1.71399 18.4876 1.76354C18.7029 2.05671 18.9978 2.51725 19.2954 3.16745C19.8896 4.46593 20.5 6.53225 20.5 9.55C20.5 12.519 19.5426 14.6911 18.0711 16.2754C16.6207 17.837 14.6411 18.8586 12.5 19.48C10.3589 18.8586 8.37928 17.837 6.92886 16.2754C5.45737 14.6911 4.5 12.519 4.5 9.55C4.5 6.53225 5.11038 4.46593 5.70465 3.16745C6.00222 2.51725 6.29707 2.05671 6.51237 1.76354C6.54876 1.71399 6.58289 1.66921 6.61439 1.62908C7.40874 2.03699 8.29205 2.35 9.5 2.35C10.2274 2.35 11.0446 2.11236 11.6474 1.89548C11.9557 1.78454 12.222 1.67381 12.4114 1.59069C12.4431 1.57679 12.4727 1.56364 12.5 1.55137C12.5273 1.56364 12.5569 1.57679 12.5886 1.59069C12.778 1.67381 13.0443 1.78454 13.3526 1.89548C13.9554 2.11236 14.7726 2.35 15.5 2.35Z" fill="#4278BF" stroke="white"/>
<path id="shape02" d="M18.927 2.39807C19.3145 3.05865 19.7707 4.06789 20.0821 5.5H4.91871C5.23006 4.06789 5.68625 3.05864 6.07378 2.39806C6.28282 2.04173 6.47264 1.78557 6.61038 1.61831C7.39423 2.00749 8.29324 2.35 9.50037 2.35C10.2226 2.35 11.04 2.11222 11.6434 1.8956C11.9523 1.78473 12.2194 1.67408 12.4095 1.59103C12.4421 1.57681 12.4724 1.56339 12.5004 1.55088C12.5284 1.56339 12.5587 1.57681 12.5912 1.59102C12.7814 1.67407 13.0485 1.78473 13.3573 1.8956C13.9608 2.11222 14.7781 2.35 15.5004 2.35C16.7075 2.35 17.6065 2.00749 18.3904 1.6183C18.5281 1.78556 18.7179 2.04173 18.927 2.39807Z" fill="#CC5252" stroke="white"/>
</g>
</g>
<g id="non-stretchable-items">
<g id="roadtype_turnpike">
<rect id="background" x="1.5" y="15.5" width="22" height="9" fill="#4278BF" stroke="white"/>
<path id="TPKE" d="M7.49519 18.384H6.09519V23H4.91919V18.384H3.44719V17.464H7.62319L7.49519 18.384ZM9.93663 17.464C10.6566 17.464 11.214 17.6133 11.6086 17.912C12.0086 18.2107 12.2086 18.656 12.2086 19.248C12.2086 19.8667 12.0113 20.3333 11.6166 20.648C11.222 20.9573 10.694 21.112 10.0326 21.112H9.40063V23H8.22463V17.464H9.93663ZM9.93663 20.248C10.278 20.248 10.5393 20.1707 10.7206 20.016C10.902 19.8613 10.9926 19.6053 10.9926 19.248C10.9926 18.624 10.6353 18.312 9.92063 18.312H9.40063V20.248H9.93663ZM14.1897 23H13.0137V17.464H14.1897V23ZM15.4857 19.96L17.4777 23H16.1017L14.2377 20.048L16.0777 17.464H17.3337L15.4857 19.96ZM21.1663 18.32H19.1663V19.76H20.9103V20.608H19.1663V22.136H21.3103V23H17.9903V17.464H21.2943L21.1663 18.32Z" fill="white"/>
</g>
</g>
</g>
</g>
</svg>
