<svg width="31" height="26" viewBox="0 0 31 26" fill="none" xmlns="http://www.w3.org/2000/svg">
<g id="hybrid / detailedshield_c_02_truck">
<g id="detailedshield_c_02_truck">
<g id="detailedshield_c_base">
<g id="stretchable-items">
<path id="shape01" d="M18.5 2.35C19.7079 2.35 20.5913 2.03699 21.3856 1.62908C21.4171 1.66921 21.4512 1.71399 21.4876 1.76354C21.7029 2.05671 21.9978 2.51725 22.2954 3.16745C22.8896 4.46593 23.5 6.53225 23.5 9.55C23.5 12.519 22.5426 14.6911 21.0711 16.2754C19.6207 17.837 17.6411 18.8586 15.5 19.48C13.3589 18.8586 11.3793 17.837 9.92886 16.2754C8.45737 14.6911 7.5 12.519 7.5 9.55C7.5 6.53225 8.11038 4.46593 8.70465 3.16745C9.00222 2.51725 9.29707 2.05671 9.51237 1.76354C9.54876 1.71399 9.58289 1.66921 9.61439 1.62908C10.4087 2.03699 11.2921 2.35 12.5 2.35C13.2274 2.35 14.0446 2.11236 14.6474 1.89548C14.9557 1.78454 15.222 1.67381 15.4114 1.59069C15.4431 1.57679 15.4727 1.56364 15.5 1.55137C15.5273 1.56364 15.5569 1.57679 15.5886 1.59069C15.778 1.67381 16.0443 1.78454 16.3526 1.89548C16.9554 2.11236 17.7726 2.35 18.5 2.35Z" fill="#4278BF" stroke="white"/>
<path id="shape02" d="M21.927 2.39807C22.3145 3.05865 22.7707 4.06789 23.0821 5.5H7.91871C8.23006 4.06789 8.68625 3.05864 9.07378 2.39806C9.28282 2.04173 9.47264 1.78557 9.61038 1.61831C10.3942 2.00749 11.2932 2.35 12.5004 2.35C13.2226 2.35 14.04 2.11222 14.6434 1.8956C14.9523 1.78473 15.2194 1.67408 15.4095 1.59103C15.4421 1.57681 15.4724 1.56339 15.5004 1.55088C15.5284 1.56339 15.5587 1.57681 15.5912 1.59102C15.7814 1.67407 16.0485 1.78473 16.3573 1.8956C16.9608 2.11222 17.7781 2.35 18.5004 2.35C19.7075 2.35 20.6065 2.00749 21.3904 1.6183C21.5281 1.78556 21.7179 2.04173 21.927 2.39807Z" fill="#CC5252" stroke="white"/>
</g>
</g>
<g id="non-stretchable-items">
<g id="roadtype_truck">
<rect id="background" x="1.5" y="15.5" width="28" height="9" fill="#4278BF" stroke="white"/>
<path id="TRUCK" d="M7.67488 18.384H6.27488V23H5.09888V18.384H3.62688V17.464H7.80288L7.67488 18.384ZM10.1803 20.832H9.58031V23H8.40431V17.464H10.1323C10.8736 17.464 11.431 17.6027 11.8043 17.88C12.1776 18.152 12.3643 18.5653 12.3643 19.12C12.3643 19.4827 12.2736 19.7813 12.0923 20.016C11.9163 20.2507 11.6416 20.4507 11.2683 20.616L12.7003 23H11.3643L10.1803 20.832ZM9.58031 20H10.1963C10.511 20 10.7483 19.9307 10.9083 19.792C11.0683 19.648 11.1483 19.424 11.1483 19.12C11.1483 18.8373 11.063 18.632 10.8923 18.504C10.727 18.3707 10.4656 18.304 10.1083 18.304H9.58031V20ZM17.3919 21.176C17.3919 21.5547 17.3119 21.8907 17.1519 22.184C16.9919 22.4773 16.7519 22.7093 16.4319 22.88C16.1172 23.0453 15.7332 23.128 15.2799 23.128C14.5972 23.128 14.0745 22.952 13.7119 22.6C13.3545 22.2427 13.1759 21.768 13.1759 21.176V17.464H14.3519V21.12C14.3519 21.4933 14.4265 21.7733 14.5759 21.96C14.7252 22.1413 14.9599 22.232 15.2799 22.232C15.5999 22.232 15.8345 22.1413 15.9839 21.96C16.1385 21.7733 16.2159 21.4933 16.2159 21.12V17.464H17.3919V21.176ZM20.6743 17.336C21.0209 17.336 21.3223 17.3867 21.5783 17.488C21.8343 17.584 22.0849 17.7333 22.3303 17.936L21.7463 18.616C21.4263 18.3547 21.0903 18.224 20.7383 18.224C20.3436 18.224 20.0289 18.3867 19.7943 18.712C19.5649 19.032 19.4503 19.536 19.4503 20.224C19.4503 20.896 19.5649 21.3947 19.7943 21.72C20.0289 22.04 20.3463 22.2 20.7463 22.2C20.9543 22.2 21.1436 22.1627 21.3143 22.088C21.4849 22.008 21.6636 21.896 21.8503 21.752L22.3943 22.432C22.1969 22.6347 21.9516 22.8027 21.6583 22.936C21.3703 23.064 21.0503 23.128 20.6983 23.128C20.2023 23.128 19.7676 23.016 19.3943 22.792C19.0209 22.568 18.7303 22.24 18.5223 21.808C18.3143 21.3707 18.2103 20.8427 18.2103 20.224C18.2103 19.6213 18.3169 19.104 18.5303 18.672C18.7436 18.2347 19.0369 17.904 19.4103 17.68C19.7836 17.4507 20.2049 17.336 20.6743 17.336ZM24.2366 23H23.0606V17.464H24.2366V23ZM25.5326 19.96L27.5246 23H26.1486L24.2846 20.048L26.1246 17.464H27.3806L25.5326 19.96Z" fill="white"/>
</g>
</g>
</g>
</g>
</svg>
