<svg width="19" height="20" viewBox="0 0 19 20" fill="none" xmlns="http://www.w3.org/2000/svg">
<g id="hybrid / detailedshield_h_01">
<g id="detailedshield_h_base">
<g id="stretchable-items">
<path id="shape01" d="M9.4823 1.58992C9.48829 1.58675 9.49419 1.58361 9.5 1.5805C9.50581 1.58361 9.51171 1.58675 9.5177 1.58992C9.70578 1.68949 9.97995 1.81804 10.3402 1.94518C11.0614 2.19974 12.1242 2.44737 13.5263 2.44737C14.8984 2.44737 15.8499 2.32037 16.5799 2.12552C16.9357 2.03056 17.234 1.9206 17.4959 1.80662C17.4592 5.27342 17.165 8.46683 16.0946 11.2411C14.9746 14.1437 12.9957 16.6105 9.49988 18.4379C6.00039 16.6105 4.02157 14.1437 2.90257 11.2412C1.83304 8.46699 1.54049 5.27362 1.50409 1.80661C1.76593 1.9206 2.06424 2.03055 2.42008 2.12552C3.15012 2.32037 4.1016 2.44737 5.47368 2.44737C6.87582 2.44737 7.93858 2.19974 8.65983 1.94518C9.02005 1.81804 9.29422 1.68949 9.4823 1.58992Z" fill="white" stroke="#555759"/>
</g>
</g>
</g>
</svg>
