<svg width="21" height="26" viewBox="0 0 21 26" fill="none" xmlns="http://www.w3.org/2000/svg">
<g id="hybrid / detailedshield_c_02_extension">
<g id="detailedshield_c_02_extension">
<g id="detailedshield_c_base">
<g id="stretchable-items">
<path id="shape01" d="M13.5 2.35C14.7079 2.35 15.5913 2.03699 16.3856 1.62908C16.4171 1.66921 16.4512 1.71399 16.4876 1.76354C16.7029 2.05671 16.9978 2.51725 17.2954 3.16745C17.8896 4.46593 18.5 6.53225 18.5 9.55C18.5 12.519 17.5426 14.6911 16.0711 16.2754C14.6207 17.837 12.6411 18.8586 10.5 19.48C8.35892 18.8586 6.37928 17.837 4.92886 16.2754C3.45737 14.6911 2.5 12.519 2.5 9.55C2.5 6.53225 3.11038 4.46593 3.70465 3.16745C4.00222 2.51725 4.29707 2.05671 4.51237 1.76354C4.54876 1.71399 4.58289 1.66921 4.61439 1.62908C5.40874 2.03699 6.29205 2.35 7.5 2.35C8.2274 2.35 9.04457 2.11236 9.6474 1.89548C9.95573 1.78454 10.222 1.67381 10.4114 1.59069C10.4431 1.57679 10.4727 1.56364 10.5 1.55137C10.5273 1.56364 10.5569 1.57679 10.5886 1.59069C10.778 1.67381 11.0443 1.78454 11.3526 1.89548C11.9554 2.11236 12.7726 2.35 13.5 2.35Z" fill="#4278BF" stroke="white"/>
<path id="shape02" d="M16.927 2.39807C17.3145 3.05865 17.7707 4.06789 18.0821 5.5H2.91871C3.23006 4.06789 3.68625 3.05864 4.07378 2.39806C4.28282 2.04173 4.47264 1.78557 4.61038 1.61831C5.39423 2.00749 6.29324 2.35 7.50037 2.35C8.22258 2.35 9.03995 2.11222 9.64342 1.8956C9.95226 1.78473 10.2194 1.67408 10.4095 1.59103C10.4421 1.57681 10.4724 1.56339 10.5004 1.55088C10.5284 1.56339 10.5587 1.57681 10.5912 1.59102C10.7814 1.67407 11.0485 1.78473 11.3573 1.8956C11.9608 2.11222 12.7781 2.35 13.5004 2.35C14.7075 2.35 15.6065 2.00749 16.3904 1.6183C16.5281 1.78556 16.7179 2.04173 16.927 2.39807Z" fill="#CC5252" stroke="white"/>
</g>
</g>
<g id="non-stretchable-items">
<g id="roadtype_extension">
<rect id="background" x="1.5" y="15.5" width="18" height="9" fill="#4278BF" stroke="white"/>
<path id="EXT" d="M7.72484 18.32H5.72484V19.76H7.46884V20.608H5.72484V22.136H7.86884V23H4.54884V17.464H7.85284L7.72484 18.32ZM12.7754 23H11.4794L10.4474 20.808L9.43141 23H8.17541L9.75141 20.056L8.30341 17.464H9.59141L10.4634 19.312L11.3754 17.464H12.6234L11.1594 20.016L12.7754 23ZM16.8897 18.384H15.4897V23H14.3137V18.384H12.8417V17.464H17.0177L16.8897 18.384Z" fill="white"/>
</g>
</g>
</g>
</g>
</svg>
