<svg width="32" height="34" viewBox="0 0 32 34" fill="none" xmlns="http://www.w3.org/2000/svg">
<path d="M3.3402 11.2976L11.5421 3.29959C14.0027 0.900134 17.9973 0.900136 20.4579 3.2996L28.6598 11.2976C31.1134 13.6902 31.1134 17.564 28.6598 19.9566L16 32.3016L3.3402 19.9566C0.8866 17.564 0.886601 13.6902 3.3402 11.2976Z" fill="#6A7483" stroke="#E6E6E6"/>
<path d="M17.0001 10.5C17.0001 9.7 17.7001 9 18.5001 9C19.3001 9 20.0001 9.7 20.0001 10.5C20.0001 11.3 19.3001 12 18.5001 12C17.7001 12 17.0001 11.3 17.0001 10.5ZM14.2001 16.8L13.9001 16.4L11.5001 14L11.3001 14.1C10.8001 14.7 10.5001 15.3 10.5001 16.1V19C10.5001 19.1 10.5001 19.2 10.5001 19.3L9.6001 21L10.6001 22L11.9001 19.6C12.0001 19.4 12.0001 19.2 12.0001 19V16.6L13.1001 17.8C13.3001 18 13.4001 18.3 13.4001 18.7V22H15.0001V18.7C15.0001 17.9 14.7001 17.3 14.2001 16.8ZM23.0001 20L21.0001 22H15.0001L18.0001 19L10.5001 11.5L10.0001 11L12.4001 9.6C12.7001 9.4 13.1001 9.3 13.4001 9.3C13.9001 9.3 14.4001 9.5 14.8001 9.9L17.4001 12.5C17.8001 12.8 18.0001 13.3 18.0001 13.8V17.6L18.7001 18.3L20.0001 17L23.0001 20ZM14.8001 12L13.8001 10.9C13.7001 10.8 13.6001 10.8 13.4001 10.8C13.3001 10.8 13.2001 10.8 13.1001 10.9L12.0001 11.6L13.3001 12.9L14.8001 12ZM16.5001 13.9L15.1001 14.7L16.5001 16.1V13.9Z" fill="white"/>
</svg>
