<svg width="32" height="34" viewBox="0 0 32 34" fill="none" xmlns="http://www.w3.org/2000/svg">
<path d="M3.3402 11.2976L11.5421 3.29959C14.0027 0.900134 17.9973 0.900136 20.4579 3.2996L28.6598 11.2976C31.1134 13.6902 31.1134 17.564 28.6598 19.9566L16 32.3016L3.3402 19.9566C0.8866 17.564 0.886601 13.6902 3.3402 11.2976Z" fill="#6A7483" stroke="#E6E6E6"/>
<path d="M19.5001 9.00002C18.9132 9.00023 18.3358 9.14886 17.8218 9.4321C17.3078 9.71534 16.8737 10.124 16.5601 10.62C16.8058 10.8794 17.0084 11.1765 17.1601 11.5H17.5001C17.9211 11.5009 18.3373 11.5904 18.7215 11.7626C19.1057 11.9349 19.4493 12.1862 19.7301 12.5H20.0001C20.527 12.5014 21.0467 12.6228 21.5197 12.855C21.9927 13.0872 22.4066 13.424 22.7301 13.84C22.953 13.3086 23.0408 12.7303 22.9858 12.1567C22.9308 11.5831 22.7345 11.032 22.4147 10.5527C22.0948 10.0734 21.6612 9.68075 21.1526 9.40981C20.6441 9.13888 20.0763 8.99809 19.5001 9.00002V9.00002Z" fill="white"/>
<path d="M15.67 17H13.67L13 19V20H14V23L17 20V19H15L15.67 17Z" fill="white"/>
<path d="M20 14H18.91C18.8056 13.709 18.6144 13.4571 18.3623 13.2783C18.1101 13.0994 17.8091 13.0023 17.5 13H16C16 12.4696 15.7893 11.9609 15.4142 11.5858C15.0391 11.2107 14.5304 11 14 11C13.4696 11 12.9609 11.2107 12.5858 11.5858C12.2107 11.9609 12 12.4696 12 13V14H11C10.4696 14 9.96086 14.2107 9.58579 14.5858C9.21071 14.9609 9 15.4696 9 16C9 16.5304 9.21071 17.0391 9.58579 17.4142C9.96086 17.7893 10.4696 18 11 18H11.75L12.42 16H17.58L17 18H20C20.5304 18 21.0391 17.7893 21.4142 17.4142C21.7893 17.0391 22 16.5304 22 16C22 15.4696 21.7893 14.9609 21.4142 14.5858C21.0391 14.2107 20.5304 14 20 14V14Z" fill="white"/>
</svg>
