<svg width="32" height="34" viewBox="0 0 32 34" fill="none" xmlns="http://www.w3.org/2000/svg">
<path d="M3.3402 11.2976L11.5421 3.29959C14.0027 0.900134 17.9973 0.900136 20.4579 3.2996L28.6598 11.2976C31.1134 13.6902 31.1134 17.564 28.6598 19.9566L16 32.3016L3.3402 19.9566C0.8866 17.564 0.886601 13.6902 3.3402 11.2976Z" fill="#333B47" stroke="#B3B3B3"/>
<path d="M14 11C14 11.5523 13.5523 12 13 12C12.4477 12 12 11.5523 12 11C12 10.4477 12.4477 10 13 10C13.5523 10 14 10.4477 14 11Z" fill="#CCCCCC"/>
<path d="M12 13C11.4477 13 11 13.4477 11 14V17H12V22H14V18H13V13L12 13Z" fill="#CCCCCC"/>
<path d="M14 14C14 13.4477 14.4477 13 15 13H17C17.5523 13 18 13.4477 18 14V17H17V22H15V17H14V14Z" fill="#CCCCCC"/>
<path d="M19 12C18.4477 12 18 11.5523 18 11C18 10.4477 18.4477 10 19 10C19.5523 10 20 10.4477 20 11C20 11.5523 19.5523 12 19 12Z" fill="#CCCCCC"/>
<path d="M21 14C21 13.4477 20.5523 13 20 13L19 13V18H18V22H20V17H21V14Z" fill="#CCCCCC"/>
<path d="M16 12C16.5523 12 17 11.5523 17 11C17 10.4477 16.5523 10 16 10C15.4477 10 15 10.4477 15 11C15 11.5523 15.4477 12 16 12Z" fill="#CCCCCC"/>
</svg>
