<svg width="32" height="34" viewBox="0 0 32 34" fill="none" xmlns="http://www.w3.org/2000/svg">
<path d="M3.3402 11.2976L11.5421 3.29959C14.0027 0.900134 17.9973 0.900136 20.4579 3.2996L28.6598 11.2976C31.1134 13.6902 31.1134 17.564 28.6598 19.9566L16 32.3016L3.3402 19.9566C0.8866 17.564 0.886601 13.6902 3.3402 11.2976Z" fill="#333B47" stroke="#B3B3B3"/>
<path d="M20.2485 13H18.4485L16.9485 10.5H12.6485L11.1485 13H13.8485V13.3C13.3485 13.5 12.8485 13.9 12.5485 14.3C12.3485 14.1 12.1485 14 11.8485 14C11.2485 14 10.8485 14.4 10.8485 15C10.8485 15.4 11.1485 15.8 11.5485 15.9L10.2485 18H9.84851C9.24851 18 8.84851 17.5 8.84851 16.9V14.6C8.84851 14.2 8.94851 13.9 9.14851 13.6L11.2485 10C11.6485 9.4 12.2485 9 12.9485 9H16.6485C17.3485 9 18.0485 9.4 18.3485 10L20.2485 13ZM22.8485 19.6V22C22.8485 22.6 22.4485 23.1 21.8485 23.1H19.8485L18.8485 21.6H14.8485L13.8485 23H11.8485C11.2485 23 10.8485 22.5 10.8485 21.9V19.5C10.8485 19.1 10.9485 18.8 11.1485 18.5L13.2485 15C13.6485 14.4 14.2485 14 14.9485 14H18.6485C19.3485 14 20.0485 14.4 20.3485 15L22.4485 18.6C22.7485 18.8 22.8485 19.2 22.8485 19.6ZM14.8485 20C14.8485 19.4 14.4485 19 13.8485 19C13.2485 19 12.8485 19.4 12.8485 20C12.8485 20.6 13.2485 21 13.8485 21C14.4485 21 14.8485 20.6 14.8485 20ZM20.5485 18L19.0485 15.5H14.6485L13.1485 18H20.5485ZM20.8485 20C20.8485 19.4 20.4485 19 19.8485 19C19.2485 19 18.8485 19.4 18.8485 20C18.8485 20.6 19.2485 21 19.8485 21C20.4485 21 20.8485 20.6 20.8485 20Z" fill="#CCCCCC"/>
</svg>
