<svg width="28" height="31" viewBox="0 0 28 31" fill="none" xmlns="http://www.w3.org/2000/svg">
<path d="M3.0836 10.3578L10.1919 3.10968C12.2967 0.963438 15.7052 0.963439 17.8101 3.10969L24.9184 10.3578C27.0285 12.5095 27.0285 16.002 24.9184 18.1537L14.001 29.2859L3.0836 18.1537C0.973436 16.002 0.973437 12.5095 3.0836 10.3578Z" fill="#6B7485" stroke="white"/>
<path d="M15.8572 8.7957C15.8572 8.7957 15.8572 9.35699 15.8572 9.41935C15.8572 9.91828 15.4239 10.3548 14.9286 10.3548C14.4334 10.3548 14 9.91828 14 9.41935C14 9.35699 14 8.7957 14 8.7957C14 8.29677 14.4334 7.86021 14.9286 7.86021C15.4239 7.86021 15.8572 8.29677 15.8572 8.7957ZM20.1905 18.4624V20.3333H13.381L15.7334 17.9634L11.7096 13.9097L9.91433 12.1011L7.87148 10.1054L8.73814 9.23226L9.60481 8.35914C10.2239 7.73548 11.3381 7.73548 11.9572 8.35914L14.4953 10.5419C14.9905 11.0409 15.2381 11.6645 15.2381 12.3505V15.7806L16.6 17.1527L17.7143 15.9677C17.7143 15.9677 19.4477 17.7763 20.1905 18.4624ZM10.781 11.228L12.0191 9.98064L11.1524 9.29462C10.9048 9.04516 10.6572 9.10753 10.4715 9.23226L9.66671 10.1054L10.781 11.228ZM12.5762 13.0366L14 14.471V12.3505C14 12.1634 13.9381 11.9763 13.8762 11.7892L12.5762 13.0366ZM11.0286 14.5957L9.23338 12.7871L9.17148 12.8495C8.67624 13.3484 8.42862 13.972 8.42862 14.6581V16.8409L7.80957 20.3333H9.04767L9.60481 17.2774C9.66671 17.0903 9.66671 16.9656 9.66671 16.8409V14.9699L12.1429 17.4645V20.3333H13.381V17.4645C13.381 17.1527 13.2572 16.8409 13.0096 16.5914L11.0286 14.5957Z" fill="white"/>
</svg>
