<svg width="28" height="31" viewBox="0 0 28 31" fill="none" xmlns="http://www.w3.org/2000/svg">
<path d="M3.0836 10.3578L10.1919 3.10968C12.2967 0.963438 15.7052 0.963439 17.8101 3.10969L24.9184 10.3578C27.0285 12.5095 27.0285 16.002 24.9184 18.1537L14.001 29.2859L3.0836 18.1537C0.973436 16.002 0.973437 12.5095 3.0836 10.3578Z" fill="#6B7485" stroke="white"/>
<path d="M20.5 20.6452H17.7143L20.5 18.7742V20.6452ZM9.35714 20.6452L7.5 19.7097V20.6452H9.35714ZM20.0357 16.4355L18.4571 17.1839L16.4143 20.0839C16.0429 20.4581 15.5786 20.6452 15.1143 20.6452H11.3071C10.8429 20.6452 10.2857 20.4581 10.0071 20.0839L8.05714 18.0258C7.31429 17.2774 7.31429 16.1548 8.05714 15.4065L9.35714 14.0968H12.1429L14 12.2258V9.41936L15.3 8.10968C16.0429 7.36129 17.1571 7.36129 17.9 8.10968L19.85 10.0742C20.2214 10.4484 20.4071 10.9161 20.4071 11.3839V15.5935C20.5 15.9677 20.3143 16.3419 20.0357 16.4355ZM11.2143 16.9032C11.2143 16.3419 10.8429 15.9677 10.2857 15.9677C9.72857 15.9677 9.35714 16.3419 9.35714 16.9032C9.35714 17.4645 9.72857 17.8387 10.2857 17.8387C10.8429 17.8387 11.2143 17.4645 11.2143 16.9032ZM15.8571 10.3548C15.8571 10.9161 16.2286 11.2903 16.7857 11.2903C17.3429 11.2903 17.7143 10.9161 17.7143 10.3548C17.7143 9.79355 17.3429 9.41936 16.7857 9.41936C16.2286 9.41936 15.8571 9.79355 15.8571 10.3548ZM18.6429 12.6L12.5143 18.7742H15.1143L16.8786 16.0613L18.6429 15.2194V12.6Z" fill="white"/>
</svg>
