<svg width="28" height="31" viewBox="0 0 28 31" fill="none" xmlns="http://www.w3.org/2000/svg">
<path d="M3.0836 10.3578L10.1919 3.10968C12.2967 0.963438 15.7052 0.963439 17.8101 3.10969L24.9184 10.3578C27.0285 12.5095 27.0285 16.002 24.9184 18.1537L14.001 29.2859L3.0836 18.1537C0.973436 16.002 0.973437 12.5095 3.0836 10.3578Z" fill="#6B7485" stroke="white"/>
<path d="M18.581 13.3484C18.3334 12.6624 17.6524 12.2258 16.9096 12.2258H13.5667C12.8239 12.2258 12.1429 12.6624 11.8953 13.3484L10.2858 16.5914V19.7097C10.2858 20.0839 10.5334 20.3333 10.9048 20.3333H12.762C13.1334 20.3333 13.381 20.0839 13.381 19.7097V19.086H17.0953V19.7097C17.0953 20.0839 17.3429 20.3333 17.7143 20.3333H19.5715C19.9429 20.3333 20.1905 20.0839 20.1905 19.7097V16.5914L18.581 13.3484ZM13.381 17.8387H11.5239V16.5914H13.381V17.8387ZM12.3286 15.3441L13.0096 13.8473C13.1334 13.5978 13.3191 13.4731 13.5667 13.4731H16.9096C17.1572 13.4731 17.4048 13.5978 17.4667 13.8473L18.1477 15.3441H12.3286ZM18.9524 17.8387H17.0953V16.5914H18.9524V17.8387ZM9.23338 15.9677H8.42862C8.05719 15.9677 7.80957 15.7183 7.80957 15.3441V12.2258L9.41909 8.98279C9.66671 8.29677 10.3477 7.86021 11.0905 7.86021H14.4334C15.1762 7.86021 15.8572 8.29677 16.1048 8.98279L17.0953 10.9785C17.0334 10.9785 15.6715 10.9785 15.6715 10.9785L14.9905 9.48172C14.9286 9.23226 14.681 9.10753 14.4334 9.10753H11.0905C10.8429 9.10753 10.5953 9.23226 10.5334 9.48172L9.85243 10.9785H13.381C12.3286 11.0409 11.4 11.6021 10.9048 12.5376V12.2258H9.04767V13.4731H10.4096L9.23338 15.9677Z" fill="white"/>
</svg>
