<svg width="28" height="31" viewBox="0 0 28 31" fill="none" xmlns="http://www.w3.org/2000/svg">
<path d="M3.0836 10.3578L10.1919 3.10968C12.2967 0.963438 15.7052 0.963439 17.8101 3.10969L24.9184 10.3578C27.0285 12.5095 27.0285 16.002 24.9184 18.1537L14.001 29.2859L3.0836 18.1537C0.973436 16.002 0.973437 12.5095 3.0836 10.3578Z" fill="#E6334B" stroke="white"/>
<path d="M7.5 11.2903V15.9677H9.35714V19.7097H10.2857V15.9677H17.7143V19.7097H18.6429V15.9677H20.5V11.2903L7.5 11.2903ZM11.6786 15.0322H8.46429L10.7857 12.2258H14L11.6786 15.0322ZM17.2143 15.0322H14L16.3571 12.2258H19.5714L17.2143 15.0322Z" fill="white"/>
</svg>
