<svg width="28" height="31" viewBox="0 0 28 31" fill="none" xmlns="http://www.w3.org/2000/svg">
<path d="M3.0836 10.3578L10.1919 3.10968C12.2967 0.963438 15.7052 0.963439 17.8101 3.10969L24.9184 10.3578C27.0285 12.5095 27.0285 16.002 24.9184 18.1537L14.001 29.2859L3.0836 18.1537C0.973436 16.002 0.973437 12.5095 3.0836 10.3578Z" fill="#6B7485" stroke="white"/>
<path d="M15.2378 14.7204H12.7616L12.1426 11.6021V7.86021H15.8569V11.6021L15.2378 14.7204ZM13.9997 16.5914C12.9473 16.5914 12.1426 17.4021 12.1426 18.4624C12.1426 19.5226 12.9473 20.3333 13.9997 20.3333C15.0521 20.3333 15.8569 19.5226 15.8569 18.4624C15.8569 17.4021 15.0521 16.5914 13.9997 16.5914Z" fill="white"/>
</svg>
